<svg xmlns="http://www.w3.org/2000/svg" width="215.182" height="115.258" viewBox="0 0 215.182 115.258">
  <g id="Group_4648" data-name="Group 4648" transform="translate(-777.136 -489.683)">
    <rect id="Rectangle_3427" data-name="Rectangle 3427" width="9.282" height="1.652" transform="translate(875.189 546.221)" fill="#93b3f4"/>
    <rect id="Rectangle_3428" data-name="Rectangle 3428" width="9.282" height="1.136" transform="translate(876.323 545.085)" fill="#b7d3f3"/>
    <rect id="Rectangle_3429" data-name="Rectangle 3429" width="8.899" height="1.136" transform="translate(875.793 543.949)" fill="#93b3f4"/>
    <rect id="Rectangle_3430" data-name="Rectangle 3430" width="8.037" height="0.868" transform="translate(876.872 543.081)" fill="#bed2fa"/>
    <rect id="Rectangle_3431" data-name="Rectangle 3431" width="9.282" height="1.136" transform="translate(876.629 541.946)" fill="#b7d3f3"/>
    <rect id="Rectangle_3432" data-name="Rectangle 3432" width="8.899" height="1.136" transform="translate(876.099 540.809)" fill="#93b3f4"/>
    <rect id="Rectangle_3433" data-name="Rectangle 3433" width="8.037" height="0.868" transform="translate(877.177 539.941)" fill="#bed2fa"/>
    <rect id="Rectangle_3434" data-name="Rectangle 3434" width="2" height="10.698" transform="translate(874.767 536.955) rotate(9.905)" fill="#b7d3f3"/>
    <rect id="Rectangle_3435" data-name="Rectangle 3435" width="2" height="8.411" transform="translate(870.694 526.453)" fill="#93b3f4"/>
    <rect id="Rectangle_3436" data-name="Rectangle 3436" width="2" height="9.145" transform="translate(873.068 525.719)" fill="#afcdfb"/>
    <rect id="Rectangle_3437" data-name="Rectangle 3437" width="2" height="7.982" transform="translate(857.334 552.9)" fill="#bed2fa"/>
    <rect id="Rectangle_3438" data-name="Rectangle 3438" width="2" height="8.411" transform="translate(859.334 552.47)" fill="#6d89cf"/>
    <rect id="Rectangle_3439" data-name="Rectangle 3439" width="2" height="8.411" transform="translate(861.654 552.47)" fill="#93b3f4"/>
    <rect id="Rectangle_3440" data-name="Rectangle 3440" width="2" height="9.145" transform="translate(864.027 551.736)" fill="#afcdfb"/>
    <rect id="Rectangle_3441" data-name="Rectangle 3441" width="9.282" height="1.652" transform="translate(885.437 559.27)" fill="#93b3f4"/>
    <rect id="Rectangle_3442" data-name="Rectangle 3442" width="9.282" height="1.136" transform="translate(886.573 558.134)" fill="#b7d3f3"/>
    <rect id="Rectangle_3443" data-name="Rectangle 3443" width="8.899" height="1.136" transform="translate(886.043 556.998)" fill="#93b3f4"/>
    <rect id="Rectangle_3444" data-name="Rectangle 3444" width="8.037" height="0.868" transform="translate(887.12 556.13)" fill="#bed2fa"/>
    <rect id="Rectangle_3445" data-name="Rectangle 3445" width="9.282" height="1.136" transform="translate(886.878 554.994)" fill="#b7d3f3"/>
    <rect id="Rectangle_3446" data-name="Rectangle 3446" width="8.899" height="1.136" transform="translate(886.348 553.858)" fill="#93b3f4"/>
    <rect id="Rectangle_3447" data-name="Rectangle 3447" width="8.037" height="0.868" transform="translate(887.426 552.99)" fill="#bed2fa"/>
    <rect id="Rectangle_3448" data-name="Rectangle 3448" width="1.582" height="9.564" transform="translate(880.639 551.321)" fill="#c1d9f4"/>
    <rect id="Rectangle_3449" data-name="Rectangle 3449" width="1.582" height="9.145" transform="translate(875.845 551.74)" fill="#c1d9f4"/>
    <rect id="Rectangle_3450" data-name="Rectangle 3450" width="2" height="9.899" transform="translate(873.516 550.987)" fill="#fff"/>
    <rect id="Rectangle_3451" data-name="Rectangle 3451" width="2" height="10.698" transform="matrix(0.985, 0.172, -0.172, 0.985, 885.017, 550.003)" fill="#b7d3f3"/>
    <rect id="Rectangle_3452" data-name="Rectangle 3452" width="2" height="7.982" transform="translate(870.899 552.904)" fill="#bed2fa"/>
    <rect id="Rectangle_3453" data-name="Rectangle 3453" width="2" height="8.411" transform="translate(868.621 552.474)" fill="#93b3f4"/>
    <g id="Group_4315" data-name="Group 4315" transform="translate(786.522 489.683)">
      <path id="Path_5221" data-name="Path 5221" d="M870.729,604.636l67.369-.311,17.958,0,5.949,0,17.992,0,82.2-.02s18.8-21.4-1.282-41.716c-20.822-21.069-30.947-3.91-37.347-33.567-16.111-74.65-175.4-31.2-133.616,32.322,15.043,22.873-29.612,10.716-19.22,43.3Z" transform="translate(-869.144 -489.683)" fill="#dde8fd"/>
      <g id="Group_4313" data-name="Group 4313" transform="translate(28.332 28.449)">
        <path id="Path_5222" data-name="Path 5222" d="M1239.24,854.77h-92.358V774.961a6.4,6.4,0,0,1,6.391-6.391h80.6a5.37,5.37,0,0,1,5.364,5.364Zm-90.905-1.453h89.453V773.934a3.916,3.916,0,0,0-3.911-3.911h-80.6a4.943,4.943,0,0,0-4.938,4.938v78.357Z" transform="translate(-1146.882 -768.57)" fill="#bed2fa"/>
        <rect id="Rectangle_3454" data-name="Rectangle 3454" width="90.905" height="1.616" transform="translate(0.726 16.733)" fill="#bed2fa"/>
        <rect id="Rectangle_3455" data-name="Rectangle 3455" width="90.905" height="1.616" transform="translate(0.726 29.741)" fill="#bed2fa"/>
        <rect id="Rectangle_3456" data-name="Rectangle 3456" width="90.905" height="1.616" transform="translate(0.726 42.75)" fill="#bed2fa"/>
        <rect id="Rectangle_3457" data-name="Rectangle 3457" width="90.905" height="1.615" transform="translate(0.726 55.806)" fill="#bed2fa"/>
      </g>
      <g id="Group_4314" data-name="Group 4314" transform="translate(31.121 73.336)">
        <rect id="Rectangle_3458" data-name="Rectangle 3458" width="2.27" height="8.448" transform="translate(20.035 10.919) rotate(180)" fill="#bed2fa"/>
        <rect id="Rectangle_3459" data-name="Rectangle 3459" width="1.967" height="9.182" transform="translate(17.236 10.919) rotate(180)" fill="#bed2fa"/>
        <rect id="Rectangle_3460" data-name="Rectangle 3460" width="1.967" height="9.182" transform="translate(14.154 11.004) rotate(-173.025)" fill="#93b3f4"/>
        <rect id="Rectangle_3461" data-name="Rectangle 3461" width="2.27" height="8.448" transform="translate(83.463 10.919) rotate(180)" fill="#bed2fa"/>
        <rect id="Rectangle_3462" data-name="Rectangle 3462" width="1.967" height="9.182" transform="translate(80.664 10.919) rotate(180)" fill="#bed2fa"/>
        <rect id="Rectangle_3463" data-name="Rectangle 3463" width="1.967" height="9.182" transform="translate(77.582 11.004) rotate(-173.025)" fill="#93b3f4"/>
        <rect id="Rectangle_3464" data-name="Rectangle 3464" width="9.282" height="1.652" transform="translate(10.418 10.918) rotate(180)" fill="#6d89cf"/>
        <rect id="Rectangle_3465" data-name="Rectangle 3465" width="9.282" height="1.136" transform="translate(9.282 9.267) rotate(180)" fill="#bed2fa"/>
        <rect id="Rectangle_3466" data-name="Rectangle 3466" width="8.899" height="1.136" transform="translate(9.812 8.131) rotate(180)" fill="#93b3f4"/>
        <rect id="Rectangle_3467" data-name="Rectangle 3467" width="8.037" height="0.868" transform="translate(8.735 6.994) rotate(180)" fill="#bed2fa"/>
        <rect id="Rectangle_3468" data-name="Rectangle 3468" width="9.282" height="1.652" transform="translate(54.971 10.918) rotate(180)" fill="#93b3f4"/>
        <rect id="Rectangle_3469" data-name="Rectangle 3469" width="9.282" height="1.136" transform="translate(53.836 9.267) rotate(180)" fill="#bed2fa"/>
        <rect id="Rectangle_3470" data-name="Rectangle 3470" width="8.899" height="1.136" transform="translate(54.365 8.131) rotate(180)" fill="#93b3f4"/>
        <rect id="Rectangle_3471" data-name="Rectangle 3471" width="8.037" height="0.868" transform="translate(53.288 6.994) rotate(180)" fill="#bed2fa"/>
        <rect id="Rectangle_3472" data-name="Rectangle 3472" width="9.282" height="1.136" transform="translate(53.531 6.127) rotate(180)" fill="#bed2fa"/>
        <rect id="Rectangle_3473" data-name="Rectangle 3473" width="8.899" height="1.136" transform="translate(54.06 4.991) rotate(180)" fill="#93b3f4"/>
        <rect id="Rectangle_3474" data-name="Rectangle 3474" width="8.037" height="0.868" transform="translate(52.982 3.854) rotate(180)" fill="#bed2fa"/>
        <rect id="Rectangle_3475" data-name="Rectangle 3475" width="1.582" height="9.145" transform="translate(40.313 10.883) rotate(180)" fill="#c1d9f4"/>
        <rect id="Rectangle_3476" data-name="Rectangle 3476" width="1.582" height="9.564" transform="translate(59.77 10.883) rotate(180)" fill="#c1d9f4"/>
        <rect id="Rectangle_3477" data-name="Rectangle 3477" width="1.582" height="9.145" transform="translate(64.563 10.883) rotate(180)" fill="#c1d9f4"/>
        <rect id="Rectangle_3478" data-name="Rectangle 3478" width="2" height="9.899" transform="translate(38.731 10.882) rotate(180)" fill="#fff"/>
        <rect id="Rectangle_3479" data-name="Rectangle 3479" width="2" height="9.899" transform="translate(66.893 10.882) rotate(180)" fill="#fff"/>
        <rect id="Rectangle_3480" data-name="Rectangle 3480" width="2" height="9.427" transform="translate(36.731 10.882) rotate(180)" fill="#bed2fa"/>
        <rect id="Rectangle_3481" data-name="Rectangle 3481" width="2" height="10.698" transform="matrix(-0.985, 0.172, -0.172, -0.985, 57.231, 10.539)" fill="#bed2fa"/>
        <rect id="Rectangle_3482" data-name="Rectangle 3482" width="2" height="7.982" transform="translate(34.731 10.882) rotate(180)" fill="#bed2fa"/>
        <rect id="Rectangle_3483" data-name="Rectangle 3483" width="2" height="7.982" transform="translate(69.509 10.882) rotate(180)" fill="#bed2fa"/>
        <rect id="Rectangle_3484" data-name="Rectangle 3484" width="2" height="8.411" transform="translate(32.732 10.882) rotate(180)" fill="#6d89cf"/>
        <rect id="Rectangle_3485" data-name="Rectangle 3485" width="2" height="8.411" transform="translate(30.412 10.882) rotate(180)" fill="#93b3f4"/>
        <rect id="Rectangle_3486" data-name="Rectangle 3486" width="2" height="8.411" transform="translate(71.787 10.882) rotate(180)" fill="#93b3f4"/>
        <rect id="Rectangle_3487" data-name="Rectangle 3487" width="2" height="9.145" transform="translate(28.038 10.883) rotate(180)" fill="#afcdfb"/>
        <rect id="Rectangle_3488" data-name="Rectangle 3488" width="2" height="9.145" transform="translate(62.778 10.883) rotate(180)" fill="#afcdfb"/>
      </g>
      <rect id="Rectangle_3489" data-name="Rectangle 3489" width="2.27" height="8.448" transform="translate(94.549 36.77)" fill="#bed2fa"/>
      <rect id="Rectangle_3490" data-name="Rectangle 3490" width="1.967" height="9.182" transform="translate(97.349 36.036)" fill="#bed2fa"/>
      <rect id="Rectangle_3491" data-name="Rectangle 3491" width="1.967" height="9.182" transform="translate(99.317 36.189) rotate(-6.975)" fill="#93b3f4"/>
      <rect id="Rectangle_3492" data-name="Rectangle 3492" width="2.27" height="8.448" transform="translate(58.018 49.743)" fill="#bed2fa"/>
      <rect id="Rectangle_3493" data-name="Rectangle 3493" width="1.967" height="9.182" transform="translate(60.818 49.009)" fill="#bed2fa"/>
      <rect id="Rectangle_3494" data-name="Rectangle 3494" width="1.967" height="9.182" transform="translate(62.785 49.163) rotate(-6.975)" fill="#93b3f4"/>
      <rect id="Rectangle_3495" data-name="Rectangle 3495" width="2.27" height="8.448" transform="translate(31.121 36.77)" fill="#bed2fa"/>
      <rect id="Rectangle_3496" data-name="Rectangle 3496" width="1.967" height="9.182" transform="translate(33.92 36.036)" fill="#bed2fa"/>
      <rect id="Rectangle_3497" data-name="Rectangle 3497" width="1.967" height="9.182" transform="translate(35.888 36.19) rotate(-6.975)" fill="#93b3f4"/>
      <rect id="Rectangle_3498" data-name="Rectangle 3498" width="9.282" height="1.652" transform="translate(104.167 43.566)" fill="#6d89cf"/>
      <rect id="Rectangle_3499" data-name="Rectangle 3499" width="9.282" height="1.136" transform="translate(105.302 42.43)" fill="#bed2fa"/>
      <rect id="Rectangle_3500" data-name="Rectangle 3500" width="8.899" height="1.136" transform="translate(104.772 41.294)" fill="#93b3f4"/>
      <rect id="Rectangle_3501" data-name="Rectangle 3501" width="8.037" height="0.868" transform="translate(105.85 40.426)" fill="#bed2fa"/>
      <rect id="Rectangle_3502" data-name="Rectangle 3502" width="9.282" height="1.652" transform="translate(59.614 43.566)" fill="#93b3f4"/>
      <rect id="Rectangle_3503" data-name="Rectangle 3503" width="9.282" height="1.136" transform="translate(60.748 42.43)" fill="#bed2fa"/>
      <rect id="Rectangle_3504" data-name="Rectangle 3504" width="8.899" height="1.136" transform="translate(60.219 41.294)" fill="#93b3f4"/>
      <rect id="Rectangle_3505" data-name="Rectangle 3505" width="8.037" height="0.868" transform="translate(61.296 40.426)" fill="#bed2fa"/>
      <rect id="Rectangle_3506" data-name="Rectangle 3506" width="9.282" height="1.136" transform="translate(61.054 39.29)" fill="#bed2fa"/>
      <rect id="Rectangle_3507" data-name="Rectangle 3507" width="8.899" height="1.136" transform="translate(60.525 38.154)" fill="#93b3f4"/>
      <rect id="Rectangle_3508" data-name="Rectangle 3508" width="8.037" height="0.868" transform="translate(61.602 37.286)" fill="#bed2fa"/>
      <rect id="Rectangle_3509" data-name="Rectangle 3509" width="1.582" height="9.145" transform="translate(74.272 36.036)" fill="#c1d9f4"/>
      <rect id="Rectangle_3510" data-name="Rectangle 3510" width="1.582" height="9.564" transform="translate(54.815 35.617)" fill="#c1d9f4"/>
      <rect id="Rectangle_3511" data-name="Rectangle 3511" width="1.582" height="9.145" transform="translate(50.021 36.036)" fill="#c1d9f4"/>
      <rect id="Rectangle_3512" data-name="Rectangle 3512" width="2" height="9.899" transform="translate(75.854 35.282)" fill="#fff"/>
      <rect id="Rectangle_3513" data-name="Rectangle 3513" width="2" height="9.899" transform="translate(47.691 35.282)" fill="#fff"/>
      <rect id="Rectangle_3514" data-name="Rectangle 3514" width="2" height="9.427" transform="translate(77.853 35.754)" fill="#bed2fa"/>
      <rect id="Rectangle_3515" data-name="Rectangle 3515" width="2" height="10.698" transform="matrix(0.985, 0.172, -0.172, 0.985, 59.194, 34.298)" fill="#bed2fa"/>
      <rect id="Rectangle_3516" data-name="Rectangle 3516" width="2" height="7.982" transform="translate(79.854 37.2)" fill="#93b3f4"/>
      <rect id="Rectangle_3517" data-name="Rectangle 3517" width="2" height="7.982" transform="translate(45.075 37.2)" fill="#bed2fa"/>
      <rect id="Rectangle_3518" data-name="Rectangle 3518" width="2" height="8.411" transform="translate(81.853 36.77)" fill="#6d89cf"/>
      <rect id="Rectangle_3519" data-name="Rectangle 3519" width="2" height="8.411" transform="translate(42.798 36.77)" fill="#93b3f4"/>
      <rect id="Rectangle_3520" data-name="Rectangle 3520" width="2" height="9.899" transform="translate(81.219 48.291)" fill="#fff"/>
      <rect id="Rectangle_3521" data-name="Rectangle 3521" width="2" height="7.982" transform="translate(78.603 50.208)" fill="#bed2fa"/>
      <rect id="Rectangle_3522" data-name="Rectangle 3522" width="2" height="8.411" transform="translate(76.326 49.779)" fill="#93b3f4"/>
      <rect id="Rectangle_3523" data-name="Rectangle 3523" width="2" height="8.411" transform="translate(69.643 49.779)" fill="#93b3f4"/>
      <rect id="Rectangle_3524" data-name="Rectangle 3524" width="2" height="8.411" transform="translate(66.852 49.779)" fill="#93b3f4"/>
      <rect id="Rectangle_3525" data-name="Rectangle 3525" width="2" height="9.899" transform="translate(35.368 48.291)" fill="#fff"/>
      <rect id="Rectangle_3526" data-name="Rectangle 3526" width="2" height="9.899" transform="matrix(0.993, -0.122, 0.122, 0.993, 37.372, 48.447)" fill="#fff"/>
      <rect id="Rectangle_3527" data-name="Rectangle 3527" width="2" height="7.982" transform="translate(32.751 50.208)" fill="#bed2fa"/>
      <rect id="Rectangle_3528" data-name="Rectangle 3528" width="2" height="8.411" transform="translate(30.473 49.779)" fill="#93b3f4"/>
      <rect id="Rectangle_3529" data-name="Rectangle 3529" width="1.582" height="9.145" transform="translate(65.231 62.053)" fill="#c1d9f4"/>
      <rect id="Rectangle_3530" data-name="Rectangle 3530" width="2" height="9.899" transform="translate(66.814 61.299)" fill="#fff"/>
      <rect id="Rectangle_3531" data-name="Rectangle 3531" width="2" height="9.427" transform="translate(68.813 61.771)" fill="#bed2fa"/>
      <rect id="Rectangle_3532" data-name="Rectangle 3532" width="2" height="9.145" transform="translate(101.439 49.045)" fill="#afcdfb"/>
      <rect id="Rectangle_3533" data-name="Rectangle 3533" width="2" height="9.145" transform="translate(103.617 49.045)" fill="#afcdfb"/>
      <rect id="Rectangle_3534" data-name="Rectangle 3534" width="2" height="9.145" transform="translate(51.806 36.036)" fill="#afcdfb"/>
      <rect id="Rectangle_3535" data-name="Rectangle 3535" width="2" height="8.411" transform="translate(48.157 62.791)" fill="#93b3f4"/>
    </g>
    <rect id="Rectangle_3536" data-name="Rectangle 3536" width="2" height="9.145" transform="translate(877.631 551.74)" fill="#afcdfb"/>
    <g id="Group_4320" data-name="Group 4320" transform="translate(916.436 519.512)">
      <rect id="Rectangle_3537" data-name="Rectangle 3537" width="13.699" height="13.29" rx="6.645" transform="translate(0)" fill="#bed2fa"/>
      <path id="Path_5223" data-name="Path 5223" d="M2149.762,787.749h10.058a1.227,1.227,0,0,1,1.227,1.227v9.685a1.227,1.227,0,0,1-1.227,1.227h-10.058a1.227,1.227,0,0,1-1.227-1.227v-9.685A1.227,1.227,0,0,1,2149.762,787.749Z" transform="translate(-2147.942 -787.173)" fill="#dde8fd"/>
      <g id="Group_4318" data-name="Group 4318" transform="translate(1.617 1.505)">
        <g id="Group_4316" data-name="Group 4316" transform="translate(4.949)">
          <path id="Path_5224" data-name="Path 5224" d="M2207.08,797.142a.284.284,0,1,1,.284.284A.284.284,0,0,1,2207.08,797.142Z" transform="translate(-2207.08 -796.858)" fill="#bed2fa"/>
          <path id="Path_5225" data-name="Path 5225" d="M2229.216,802.287a.284.284,0,1,1,.11.386.284.284,0,0,1-.11-.386Z" transform="translate(-2226.926 -801.602)" fill="#bed2fa"/>
          <path id="Path_5226" data-name="Path 5226" d="M2247.616,818.451a.284.284,0,1,1-.085.392A.284.284,0,0,1,2247.616,818.451Z" transform="translate(-2243.364 -816.208)" fill="#bed2fa"/>
          <path id="Path_5227" data-name="Path 5227" d="M2255.782,842.5a.284.284,0,1,1-.284.284A.284.284,0,0,1,2255.782,842.5Z" transform="translate(-2250.559 -837.841)" fill="#bed2fa"/>
          <path id="Path_5228" data-name="Path 5228" d="M2249.156,869.207a.284.284,0,1,1-.4,0A.284.284,0,0,1,2249.156,869.207Z" transform="translate(-2244.429 -861.752)" fill="#bed2fa"/>
          <path id="Path_5229" data-name="Path 5229" d="M2231.684,886.722a.284.284,0,1,1-.4,0A.284.284,0,0,1,2231.684,886.722Z" transform="translate(-2228.74 -877.48)" fill="#bed2fa"/>
          <path id="Path_5230" data-name="Path 5230" d="M2207.08,893.982a.284.284,0,1,1,.284.284A.284.284,0,0,1,2207.08,893.982Z" transform="translate(-2207.08 -883.82)" fill="#bed2fa"/>
        </g>
        <g id="Group_4317" data-name="Group 4317" transform="translate(0 0.539)">
          <path id="Path_5231" data-name="Path 5231" d="M2185.429,802.287a.284.284,0,1,0-.11.386.284.284,0,0,0,.11-.386Z" transform="translate(-2182.212 -802.141)" fill="#bed2fa"/>
          <path id="Path_5232" data-name="Path 5232" d="M2167.027,818.451a.284.284,0,1,0,.085.392A.284.284,0,0,0,2167.027,818.451Z" transform="translate(-2165.771 -816.747)" fill="#bed2fa"/>
          <path id="Path_5233" data-name="Path 5233" d="M2158.853,842.5a.284.284,0,1,0,.284.284A.284.284,0,0,0,2158.853,842.5Z" transform="translate(-2158.569 -838.38)" fill="#bed2fa"/>
          <path id="Path_5234" data-name="Path 5234" d="M2165.488,869.207a.284.284,0,1,0,.4,0A.284.284,0,0,0,2165.488,869.207Z" transform="translate(-2164.708 -862.291)" fill="#bed2fa"/>
          <path id="Path_5235" data-name="Path 5235" d="M2182.958,886.722a.284.284,0,1,0,.4,0A.283.283,0,0,0,2182.958,886.722Z" transform="translate(-2180.396 -878.019)" fill="#bed2fa"/>
        </g>
      </g>
      <g id="Group_4319" data-name="Group 4319" transform="translate(6.772 2.899)">
        <path id="Path_5236" data-name="Path 5236" d="M2209.11,842.78a.284.284,0,1,1,.284.284A.284.284,0,0,1,2209.11,842.78Z" transform="translate(-2209.11 -839.235)" fill="#bed2fa"/>
        <rect id="Rectangle_3538" data-name="Rectangle 3538" width="0.077" height="3.545" transform="translate(0.245)" fill="#bed2fa"/>
        <rect id="Rectangle_3539" data-name="Rectangle 3539" width="2.389" height="0.232" transform="matrix(0.786, -0.618, 0.618, 0.786, 0.177, 3.45)" fill="#bed2fa"/>
      </g>
    </g>
    <g id="Group_4321" data-name="Group 4321" transform="translate(942.399 585.349)">
      <path id="Path_5237" data-name="Path 5237" d="M2416.37,1442.3s12.981-12.346,16.623-9.476S2416.37,1442.3,2416.37,1442.3Z" transform="translate(-2414.418 -1431.896)" fill="#bed2fa"/>
      <path id="Path_5238" data-name="Path 5238" d="M2407.17,1493.272s24.151-10.812,29.865-5.1-6.628,5.011-11.2,4.372S2407.17,1493.272,2407.17,1493.272Z" transform="translate(-2406.156 -1480.491)" fill="#bed2fa"/>
      <path id="Path_5239" data-name="Path 5239" d="M2397.23,1437.648s.113-.608.268-1.5c.3-1.736.761-4.545.842-6.008.122-2.213,1.9-3.784,3.855-1.531s-4.215,8.43-4.215,8.43Z" transform="translate(-2397.23 -1427.514)" fill="#bed2fa"/>
    </g>
    <path id="Path_5240" data-name="Path 5240" d="M2192.857,1086.947c-1.767-4.625-9.639-2.33-9.639-2.33s-4.609,8.869-6.174,9.227,2.46-8.352,2.46-8.352c-3.1.012-10.545,4.565-10.545,4.565s1.473,9.656-.131,9.618-.868-8.617-.868-8.617c-2.882,1.191-5.305,4.937-5.305,4.937-2.9,5.995,4.95,9.406,4.95,9.406a15.881,15.881,0,0,1-1.252,7.43h0a11.5,11.5,0,0,0-.753,2.021l.81-.082q.067-.336.156-.651a.005.005,0,0,1,0,0l0-.009c.043-.131.1-.317.182-.544h0c.2-.509.33-.884.409-1.153v0c.588-1.6,1.457-3.685,2.127-4.172a1.561,1.561,0,0,1-.21-.354l.21.354c1.686,2.832,8.669,2.628,12.452,1.446s1.989-2.1-.269-3.66-6.569-.653-7.927-1.217.454-1.447,3.05-1.508,4.142,2.384,8.342,2.361,6.581-8.167,6.581-8.167c-2.783,1.181-8.092.115-8.39-.855s7.338-1.64,8.5-2.057,3-3,1.232-7.628Z" transform="translate(-1243.607 -533.735)" fill="#bed2fa"/>
    <path id="Path_5241" data-name="Path 5241" d="M1211.153,1291.029c-3.636-4.447,3.215-11.05,3.215-11.05s11.588.476,12.851-.893-9.828-2.342-9.828-2.342c1.8-3.114,10.679-7.984,10.679-7.984s8.872,7.055,9.759,5.417-8.174-5.846-8.174-5.846c2.861-2.214,8.031-2.493,8.031-2.493,7.708.541,6.614,10.41,6.614,10.41a18.427,18.427,0,0,0,8.2,3.026h0a13.373,13.373,0,0,1,2.469.408l-.55.768c-.251-.084-.5-.158-.745-.218h0l-.011,0c-.156-.032-.38-.078-.653-.13h0c-.627-.094-1.08-.178-1.4-.253h0c-1.946-.328-4.55-.659-5.428-.265a1.829,1.829,0,0,0-.235-.417l.235.417c1.878,3.331-2.355,10.244-5.728,13.371s-3.263.791-3.53-2.382,3.132-6.991,3.348-8.682-1.719-.377-3.278,2.2.01,5.546-2.436,9.761-12.019,1.914-12.019,1.914c2.794-2.12,4.785-8.081,3.98-8.941s-5.885,6.442-6.973,7.368-4.754,1.286-8.391-3.16Z" transform="translate(-388.789 -696.982)" fill="#bed2fa"/>
    <g id="Group_4322" data-name="Group 4322" transform="translate(855.76 544.877)">
      <path id="Path_5242" data-name="Path 5242" d="M1564.14,1030.77h28.747a6.971,6.971,0,0,1,6.968,6.968v1.088a7.129,7.129,0,0,1-7.126,7.125H1564.14V1030.77h0Z" transform="translate(-1562.483 -1030.769)" fill="#fff"/>
      <path id="Path_5243" data-name="Path 5243" d="M1611.906,1037.007v2.284a8.6,8.6,0,0,1-.655,3.345c-.837,1.977-2.393,3.305-4.175,3.305H1548.6c-.387,0-.7-.432-.7-.964v-.342c0-.532.313-.964.7-.964h35.648a6.754,6.754,0,0,0,.5-1.035,8.1,8.1,0,0,0,.523-2.9v-2.9a8.215,8.215,0,0,0-.145-1.545,7.138,7.138,0,0,0-.826-2.254h-35.7c-.387,0-.7-.432-.7-.965v-.341c0-.533.313-.965.7-.965h58.774c2.071,0,3.818,1.912,4.36,4.525A8.442,8.442,0,0,1,1611.906,1037.007Z" transform="translate(-1547.897 -1030.761)" fill="#afcdfb"/>
      <path id="Path_5244" data-name="Path 5244" d="M1564.14,1105.18l4.33.255-4.33.154Z" transform="translate(-1562.483 -1097.589)" fill="#bed2fa"/>
      <path id="Path_5245" data-name="Path 5245" d="M1564.14,1128.53l10.3.255-10.3.153Z" transform="translate(-1562.483 -1118.557)" fill="#bed2fa"/>
    </g>
    <g id="Group_4324" data-name="Group 4324" transform="translate(855.309 592.523)">
      <path id="Path_5246" data-name="Path 5246" d="M1549.132,1509.653h42.179v-11.808h-42.524a5.309,5.309,0,0,0-5.309,5.309V1504A5.653,5.653,0,0,0,1549.132,1509.653Z" transform="translate(-1543.479 -1497.844)" fill="#3a49cd"/>
      <path id="Path_5247" data-name="Path 5247" d="M0,0H47.987a5.545,5.545,0,0,1,5.542,5.542v.846a5.422,5.422,0,0,1-5.42,5.42H0V0H0Z" transform="translate(93.453 11.809) rotate(180)" fill="#fff"/>
      <path id="Path_5248" data-name="Path 5248" d="M1896.245,1596.29h58.4a.82.82,0,0,1,.82.82v.126a.82.82,0,0,1-.82.82h-58.4a.82.82,0,0,1-.82-.82v-.126A.82.82,0,0,1,1896.245,1596.29Z" transform="translate(-1859.524 -1586.247)" fill="#3a49cd"/>
      <path id="Path_5249" data-name="Path 5249" d="M1896.244,1497.84h58.4a.82.82,0,0,1,.82.82v.126a.82.82,0,0,1-.82.82h-58.4a.82.82,0,0,1-.82-.82v-.127A.82.82,0,0,1,1896.244,1497.84Z" transform="translate(-1859.523 -1497.84)" fill="#3a49cd"/>
      <path id="Path_5250" data-name="Path 5250" d="M2402.48,1555.72l-6.49.2,6.49.119Z" transform="translate(-2309.027 -1549.816)" fill="#bed2fa"/>
      <path id="Path_5251" data-name="Path 5251" d="M2323.7,1529.08l-15.439.2,15.439.119Z" transform="translate(-2230.246 -1525.893)" fill="#bed2fa"/>
      <g id="Group_4323" data-name="Group 4323" transform="translate(78.172 3.346)">
        <path id="Path_5252" data-name="Path 5252" d="M2309.81,1530.64a2.738,2.738,0,0,1,.881,1.341,2.063,2.063,0,0,1,.069.467c.036,1.108,0,3.616,0,3.616l1.953-1.254,1.948,1.254v-3.4a2.856,2.856,0,0,0-.478-1.677.73.73,0,0,0-.54-.348Z" transform="translate(-2309.81 -1530.64)" fill="#afcdfb"/>
        <path id="Path_5253" data-name="Path 5253" d="M2309.81,1530.639a2.739,2.739,0,0,1,.881,1.341l3.915.05s-.154-1.194-.962-1.391Z" transform="translate(-2309.81 -1530.639)" fill="#93b3f4"/>
      </g>
    </g>
    <g id="Group_4326" data-name="Group 4326" transform="translate(842.07 560.058)">
      <path id="Path_5254" data-name="Path 5254" d="M0,0H46.883a6.8,6.8,0,0,1,6.8,6.8V7.836a6.651,6.651,0,0,1-6.648,6.648H0V0Z" transform="translate(93.717 14.484) rotate(180)" fill="#fff"/>
      <path id="Path_5255" data-name="Path 5255" d="M1453.7,1185.2v3.118a3.051,3.051,0,0,0,.329,1.35,3.947,3.947,0,0,0,1.862,1.754,5.051,5.051,0,0,0,2.161.475h50.769a1,1,0,0,1,1.077.9v.368a1,1,0,0,1-1.077.9h-87.7a7.932,7.932,0,0,1-6.084-2.642,5.5,5.5,0,0,1-1.344-3.559v-2.459a5.015,5.015,0,0,1,.693-2.533,7.191,7.191,0,0,1,6.281-3.291h88.157a1,1,0,0,1,1.077.9v.368a1,1,0,0,1-1.077.9H1457.9a4.625,4.625,0,0,0-3.088,1.125,3.5,3.5,0,0,0-.795,1.031A2.962,2.962,0,0,0,1453.7,1185.2Z" transform="translate(-1413.691 -1179.582)" fill="#6d89cf"/>
      <path id="Path_5256" data-name="Path 5256" d="M2275.128,1250.57l-6.508.244,6.508.147Z" transform="translate(-2181.41 -1243.329)" fill="#bed2fa"/>
      <path id="Path_5257" data-name="Path 5257" d="M2196.114,1217.9l-15.484.244,15.484.146Z" transform="translate(-2102.396 -1213.991)" fill="#bed2fa"/>
      <g id="Group_4325" data-name="Group 4325" transform="translate(78.394 4.103)">
        <path id="Path_5258" data-name="Path 5258" d="M2182.2,1219.81a3.041,3.041,0,0,1,1.36,1.214,1.168,1.168,0,0,1,.106.422c.057,1,0,3.273,0,3.273l3.017-1.135,3.009,1.135v-3.077a1.913,1.913,0,0,0-.738-1.518,1.369,1.369,0,0,0-.833-.315Z" transform="translate(-2182.2 -1219.81)" fill="#fa7269"/>
        <path id="Path_5259" data-name="Path 5259" d="M2182.2,1219.809a3.04,3.04,0,0,1,1.36,1.214l6.046.045a1.737,1.737,0,0,0-1.485-1.259H2182.2Z" transform="translate(-2182.2 -1219.809)" fill="#e75755"/>
      </g>
    </g>
    <path id="Path_5260" data-name="Path 5260" d="M992.318,1613.86v.089a.254.254,0,0,1-.244.26H777.38a.253.253,0,0,1-.244-.26v-.089a.254.254,0,0,1,.244-.26H992.074a.254.254,0,0,1,.244.26Z" transform="translate(0 -1009.268)" fill="#060632"/>
    <g id="Group_4328" data-name="Group 4328" transform="translate(865.281 512.789)">
      <path id="Path_5261" data-name="Path 5261" d="M1736.111,827.524a14.289,14.289,0,0,1,1.725,5.043c.549,2.993,1.03,4.1,1.823,4.712a48.838,48.838,0,0,0,5.208,2.426l-.33.773s-6.472-.881-7.2-1.963-3.5-7.473-3.283-8.944,2.057-2.048,2.057-2.048Z" transform="translate(-1724.576 -816.168)" fill="#ea8888"/>
      <path id="Path_5262" data-name="Path 5262" d="M1906.621,1138.159c-.058.631.82.785,1.838.835s.71.259,2.1.512,1.954-.129,2.055-.318c.09-.167-.559-.429-1.25-.724l-.261-.113a6.1,6.1,0,0,1-1.821-1.686,8.943,8.943,0,0,1-1.12-2.574l-1.9-.4s.532,1.765.717,2.519a2.337,2.337,0,0,1-.194,1.316A2.483,2.483,0,0,0,1906.621,1138.159Z" transform="translate(-1879.237 -1091.1)" fill="#fc9290"/>
      <path id="Path_5263" data-name="Path 5263" d="M1911.5,1172.752c1.018.051.71.259,2.1.512s1.954-.129,2.055-.318c.09-.167-.559-.429-1.25-.724l-.011.012a3.973,3.973,0,0,1-2.113.025c-.923-.251-1.815-.8-2.451-.98a2.479,2.479,0,0,0-.174.638c-.058.631.82.785,1.838.836Z" transform="translate(-1882.28 -1124.857)" fill="#9e332e"/>
      <path id="Path_5264" data-name="Path 5264" d="M1702.9,944.689s12.6-.948,14.966.549,6.174,18.927,6.174,18.927a1.544,1.544,0,0,1-.759.245,6.36,6.36,0,0,1-1.561-.234s-5.465-7.8-5.85-9.764-.291-3.718-1.167-3.765-11.8,1.328-13.457-1.583a6.71,6.71,0,0,1-.286-5.795l1.941,1.42Z" transform="translate(-1694.392 -920.106)" fill="#ed6966"/>
      <path id="Path_5265" data-name="Path 5265" d="M1859.372,1157.987c-.058.631.821.785,1.838.835s.71.259,2.105.512,1.954-.129,2.055-.318c.09-.167-.559-.429-1.25-.724l-.261-.113a6.094,6.094,0,0,1-1.821-1.686,8.945,8.945,0,0,1-1.12-2.574l-1.9-.4s.532,1.765.717,2.519a2.335,2.335,0,0,1-.194,1.316A2.476,2.476,0,0,0,1859.372,1157.987Z" transform="translate(-1836.808 -1108.905)" fill="#fc9290"/>
      <path id="Path_5266" data-name="Path 5266" d="M1864.252,1192.583c1.018.051.71.259,2.1.512s1.954-.129,2.055-.318c.09-.167-.559-.428-1.25-.724l-.011.012a3.971,3.971,0,0,1-2.113.025c-.923-.25-1.815-.8-2.45-.98a2.484,2.484,0,0,0-.174.638C1862.356,1192.379,1863.235,1192.532,1864.252,1192.583Z" transform="translate(-1839.85 -1142.665)" fill="#9e332e"/>
      <path id="Path_5267" data-name="Path 5267" d="M1669.127,964.841s11.188.53,13.5,2.117,5.433,19.153,5.433,19.153a1.548,1.548,0,0,1-.768.215,6.368,6.368,0,0,1-1.551-.294s-5.157-8.006-5.466-9.984-.146-3.726-1.02-3.807-11.847.868-13.385-2.106,3.257-5.293,3.257-5.293Z" transform="translate(-1663.084 -939.478)" fill="#fa7269"/>
      <path id="Path_5268" data-name="Path 5268" d="M1652.29,717.538a2.9,2.9,0,0,0-1.447-.681.735.735,0,0,1,.36-.07,2.436,2.436,0,0,0-.9,0c-3.264-2.325-5.2,2.863-5.443,4.121a8.524,8.524,0,0,1-2.223,4.619c-3.945,4,1.691,8.633,1.691,8.633.024.024,2.829-5.979,5.645-6.943a7.194,7.194,0,0,0,1.455-2.3,6.8,6.8,0,0,1-1.076,2.144c2.523-1.355,3.071-8.43,1.937-9.525Z" transform="translate(-1641.237 -716.198)" fill="#fff"/>
      <path id="Path_5269" data-name="Path 5269" d="M1695.722,808.78a12.592,12.592,0,0,1,2.084,0,6.7,6.7,0,0,1,1.808.454c.986.412.883,2.158-1.187,1.835s-2.85-1.771-2.705-2.289Z" transform="translate(-1690.15 -799.296)" fill="#fc9290"/>
      <path id="Path_5270" data-name="Path 5270" d="M1700.524,787.5c.012.006.3,1.5-1.06,1.442-.89-.039-2.808-1.115-2.638-1.877a9.42,9.42,0,0,0,.888-3.445l.162.043,2.722.73s-.121.864-.177,1.682c-.047.687-.049,1.341.1,1.425Z" transform="translate(-1691.146 -776.739)" fill="#fc9290"/>
      <path id="Path_5271" data-name="Path 5271" d="M1709.926,784.769s-.121.864-.177,1.682a3.28,3.28,0,0,1-2.545-2.412Z" transform="translate(-1700.474 -777.119)" fill="#ea8888"/>
      <path id="Path_5272" data-name="Path 5272" d="M1701.226,733.634a8.127,8.127,0,0,1-.384-2.552c.06-.792,1.166-3.5,3.884-2.373a3.959,3.959,0,0,1,1.436,1.009c.507.571,1.162,1.691-.455,3.888l-.469.762-4.011-.734Z" transform="translate(-1694.753 -727.189)" fill="#fff"/>
      <path id="Path_5273" data-name="Path 5273" d="M1707.7,746.324s-3.561-.851-3-3.06.484-3.807,2.782-3.357,2.522,1.405,2.513,2.188S1708.636,746.488,1707.7,746.324Z" transform="translate(-1698.171 -737.42)" fill="#fc9290"/>
      <path id="Path_5274" data-name="Path 5274" d="M1701.315,737.589s-1.635,2.342-3.224,2.343a3.029,3.029,0,0,1-2.132-.564,4.356,4.356,0,0,0,2.019-2.139s2.92-1.062,3.336.359Z" transform="translate(-1690.377 -734.742)" fill="#fff"/>
      <path id="Path_5275" data-name="Path 5275" d="M1745.58,743.1a3.233,3.233,0,0,1,.609,1.372c.032.608-.185,1.786.163,1.833,0,0,1.183-1.574.617-2.781-.6-1.28-1.388-.425-1.388-.425Z" transform="translate(-1734.936 -740.105)" fill="#fff"/>
      <path id="Path_5276" data-name="Path 5276" d="M1672.079,824.46c-.3.354-1.22.462-2.207.625a6.631,6.631,0,0,0-2.174.63c-1.318.774-5.624,3.389-6.887,3.27-.49-.046-.4-.98-.1-2.22.467-1.957,1.443-4.676,1.443-5.858a34.325,34.325,0,0,1,.5-3.917l.071-.426c.567-3.393,1.352-7.395,1.352-7.395s.876,1.911,2.582,1.911,1.31-1.457,1.31-1.457,1.557.183,1.925.579a15.217,15.217,0,0,1,1.486,2.576s.038.594-1.434.877a19.3,19.3,0,0,1,.4,2.689c.032.795-.542,3.281-.707,4.828a2.856,2.856,0,0,0,.023,1.173,2.278,2.278,0,0,0,.9.743c.832.484,1.866.95,1.515,1.371Z" transform="translate(-1658.504 -799.687)" fill="#0b0754"/>
      <path id="Path_5277" data-name="Path 5277" d="M1670.563,879.091c.945,1.61-2.562,2.095-3.142,2.435-1.318.774-5.349,3.58-6.611,3.461-.489-.046-.4-.98-.1-2.22.466-1.957,1.443-4.676,1.443-5.858a34.325,34.325,0,0,1,.5-3.917l1.519-1.459s1.628,4.208,3.18,4.9a13.046,13.046,0,0,0,2.287.744,2.855,2.855,0,0,0,.023,1.173,2.277,2.277,0,0,0,.9.743Z" transform="translate(-1658.504 -855.689)" fill="#030231"/>
      <path id="Path_5278" data-name="Path 5278" d="M1665.5,819.687a1.979,1.979,0,0,0-2.555.708c-1.256,1.5.893,12.194,2.754,12.743,2.067.61,8.27.579,8.27.579l-.259-.753s-6.444-2.076-6.708-2.416-.841-10.689-1.5-10.862Z" transform="translate(-1660.39 -808.944)" fill="#fc9290"/>
      <path id="Path_5279" data-name="Path 5279" d="M1656.752,809.167s-2.668.241-3.443,1.118-1,3.255-1,3.255a6.4,6.4,0,0,0,5.18,1.161Z" transform="translate(-1651.179 -799.683)" fill="#0b0754"/>
      <path id="Path_5280" data-name="Path 5280" d="M1831.3,900.725l.255-2.34-3.309,4.36s1.385.69,1.467.558Z" transform="translate(-1809.168 -879.801)" fill="#163560"/>
      <g id="Group_4327" data-name="Group 4327" transform="translate(14.045 18.607)">
        <path id="Path_5281" data-name="Path 5281" d="M1782.736,921.323l-3.056,4.668h5.134l2.875-4.668Z" transform="translate(-1779.602 -919.006)" fill="#0b0754"/>
        <path id="Path_5282" data-name="Path 5282" d="M1845.079,900.923l.24-2.317-1.729,2.164Z" transform="translate(-1836.993 -898.606)" fill="#dde8fd"/>
        <path id="Path_5283" data-name="Path 5283" d="M1779.154,923.52l-.233-.168,3.037-4.514.1.253Z" transform="translate(-1778.92 -916.774)" fill="#dde8fd"/>
        <path id="Path_5284" data-name="Path 5284" d="M1808.69,918.838l4.837.136.212.118h-4.952Z" transform="translate(-1805.653 -916.774)" fill="#fff"/>
      </g>
      <path id="Path_5285" data-name="Path 5285" d="M1772.592,948.75a1.744,1.744,0,0,0-.33,0c.369-.172.741-.359.741-.359s-.166-.17-.8.056a.473.473,0,0,1-.214.023l.89-.4c-.159-.143-.585-.029-.917.093a.731.731,0,0,1-.7-.107l-.01-.008.044,0c.519-.076.652-.373.508-.339s-1.015.1-1.015.1a4.078,4.078,0,0,0-1.173.278l.436.805a6.433,6.433,0,0,0,1.58.132c.027-.008.058-.019.093-.033h0l1.14-.075s-.021-.123-.271-.157Z" transform="translate(-1756.52 -924.085)" fill="#fc9290"/>
    </g>
    <g id="Group_4330" data-name="Group 4330" transform="translate(913.949 558.221)">
      <path id="Path_5286" data-name="Path 5286" d="M2219.106,1266.13s6.579,2.867,7.774,2.814,8.553-2.242,8.553-2.242l-.187,1.266s-5.679,3.266-7.665,3.452c-1.955.182-8.639-1.754-9.284-2.163S2217.231,1266.544,2219.106,1266.13Z" transform="translate(-2207.61 -1255.464)" fill="#ea8888"/>
      <path id="Path_5287" data-name="Path 5287" d="M2128.845,1161.691s-2.427-.461-3.636.422c-2.19,1.6-2.307,7.112-3.128,7.933s-2.8.471-2.975,4.72.788,4.6-.36,6.5.485,3.8.485,3.8a2.487,2.487,0,0,1-.382-1.8s.278,1.668,1.338,2.059,1.216.678,1.385,1.251c0,0,9.041-4.633,9.051-7.918s1.779-6.541.911-7.965a3.153,3.153,0,0,1,.434,1.287,1.7,1.7,0,0,0-.383-1.929c-.9-.93,1.06-2.854.769-5.083a3.568,3.568,0,0,0-3.51-3.272Z" transform="translate(-2118.336 -1161.57)" fill="#0b0754"/>
      <path id="Path_5288" data-name="Path 5288" d="M2173.572,1236.067a6.334,6.334,0,0,1-2.212.941c-3.409.788-4.716-2.094-5.207-4.072a2.928,2.928,0,0,1,1.155-.355c.246-.029.506-.048.72-.059a5.359,5.359,0,0,0,1.079-3.357l.161.043,2.687.735s-.123.854-.184,1.661a3.2,3.2,0,0,0,.066,1.383c.21.045.335.075.335.075v0a17.312,17.312,0,0,1,1.4,3Z" transform="translate(-2161.275 -1222.271)" fill="#fc9290"/>
      <path id="Path_5289" data-name="Path 5289" d="M2199.372,1230.326s-.124.853-.183,1.661a3.243,3.243,0,0,1-2.5-2.4Z" transform="translate(-2188.693 -1222.652)" fill="#ea8888"/>
      <path id="Path_5290" data-name="Path 5290" d="M2197.034,1190.043s-3.614-.2-3.454-2.448-.2-3.788,2.113-3.756,2.7.922,2.831,1.685-.545,4.513-1.489,4.519Z" transform="translate(-2185.9 -1181.568)" fill="#fc9290"/>
      <path id="Path_5291" data-name="Path 5291" d="M2188.56,1180.186c-.51-.716-.941-.6-1.192-.412a2.529,2.529,0,0,0-3.281.286,4.306,4.306,0,0,1-1.587,2.436,2.994,2.994,0,0,0,2.173.172,2.585,2.585,0,0,0,1.289-.759,8.444,8.444,0,0,1-1.576,1.666c1.872-.707,2.78-3.175,2.871-3.436a2.836,2.836,0,0,1,.712,1.105c.139.585.738,1.5,1.084,1.485a3.739,3.739,0,0,0-.493-2.544Z" transform="translate(-2175.955 -1177.486)" fill="#0b0754"/>
      <path id="Path_5292" data-name="Path 5292" d="M2138.472,1269.632c-.326-1.668-1.39-8.333-.326-10.477.382-.77,1.881-.84,3.527-.772.512.33,2.462,1.579,3.264,1.423l.045-.011c.377-.094.52-.359.205-.588a7.184,7.184,0,0,1,1.826.112,13.5,13.5,0,0,1,2.113.905,4.848,4.848,0,0,1-1.921,1.886c.195,1.741-.095,2.509-1.9,6.531a7.645,7.645,0,0,0,.206,6.46s-8.985,7.224-9.035,3.546C2136.436,1275.878,2138.889,1271.764,2138.472,1269.632Z" transform="translate(-2134.624 -1248.489)" fill="#dde8fd"/>
      <path id="Path_5293" data-name="Path 5293" d="M2180.9,1325.487a1.67,1.67,0,0,0,1.2-.732l.139-.209c1.023-1.548,1.421-6.29,3.721-11.341.561-1.23,2.572-1.451,3.12-2.841,0,0,1.35-4.506-2.584-4.639s-10.535,12.537-10.639,13.866C2175.763,1320.879,2173.263,1326.349,2180.9,1325.487Z" transform="translate(-2169.573 -1291.02)" fill="#e75755"/>
      <path id="Path_5294" data-name="Path 5294" d="M2332.871,1472.87h-5.6a2.326,2.326,0,0,1,.158-1.5,1.079,1.079,0,0,0-.04-1.289,2.173,2.173,0,0,0,.943.178,1.972,1.972,0,0,0,.833-.293,20.134,20.134,0,0,0,1.6,1.676C2331.127,1471.9,2332.758,1471.81,2332.871,1472.87Z" transform="translate(-2305.906 -1438.506)" fill="#030231"/>
      <path id="Path_5295" data-name="Path 5295" d="M2161.494,1283.25s-.729,6.63,4,8.019,6.067-6.1,2.252-6.639A36.725,36.725,0,0,1,2161.494,1283.25Z" transform="translate(-2157.055 -1270.838)" fill="#bed2fa"/>
      <path id="Path_5296" data-name="Path 5296" d="M2268.175,1305.458c.337,2.528,1.654,10.5,3.976,14.4.749,1.255-1.886,1.958-1.9,1.954a4.476,4.476,0,0,1-1.213-.9c-1.886-1.7-5.713-6.511-5.713-10.368,0-1.881-.033-5.473,1.334-6.386.842-.562,3.383.3,3.517,1.3Z" transform="translate(-2248.534 -1289.45)" fill="#ed6966"/>
      <path id="Path_5297" data-name="Path 5297" d="M2139.979,1322.848s.208-.289.569-.837a19.828,19.828,0,0,0,1.485-3.581c.607-1.727,1.328-3.852,2.228-6.062.278-.682.573-1.373.887-2.063.561-1.23,2.1-1.06,2.65-2.45,0,0,2.14-4.819-1.794-4.952s-11.408,12.892-11.838,14.154C2133.7,1318.437,2131.4,1324.171,2139.979,1322.848Z" transform="translate(-2131.986 -1288.485)" fill="#fa7269"/>
      <path id="Path_5298" data-name="Path 5298" d="M2292.58,1472.87h-5.6a2.328,2.328,0,0,1,.158-1.5,1.079,1.079,0,0,0-.04-1.289,2.174,2.174,0,0,0,.943.178,1.972,1.972,0,0,0,.833-.293,20.175,20.175,0,0,0,1.6,1.676C2290.836,1471.9,2292.468,1471.81,2292.58,1472.87Z" transform="translate(-2269.725 -1438.506)" fill="#0b0754"/>
      <path id="Path_5299" data-name="Path 5299" d="M2212.364,1368.927c.607-1.727,1.328-3.852,2.228-6.063-.235-1.675-.742-3.14-1.6-3.731C2213,1359.134,2210.928,1365.544,2212.364,1368.927Z" transform="translate(-2202.317 -1338.981)" fill="#ed6966"/>
      <path id="Path_5300" data-name="Path 5300" d="M2228.726,1306.167c.337,2.527.812,10.684,3.135,14.576.749,1.255-1.886,1.958-1.9,1.954a4.487,4.487,0,0,1-1.213-.9c-1.885-1.7-5.713-6.511-5.713-10.368,0-1.881,2.207-5.322,3.575-6.235A1.376,1.376,0,0,1,2228.726,1306.167Z" transform="translate(-2212.353 -1290.338)" fill="#fa7269"/>
      <path id="Path_5301" data-name="Path 5301" d="M2222.651,1231.263a3.341,3.341,0,0,0-1.3-.057s.051.375.76.412A.565.565,0,0,0,2222.651,1231.263Z" transform="translate(-2210.84 -1224.081)" fill="#fff"/>
      <g id="Group_4329" data-name="Group 4329" transform="translate(20.131 6.496)">
        <path id="Path_5302" data-name="Path 5302" d="M2365.661,1227.344l-1.161-2.094-2.51,7.007,1.481,1.59Z" transform="translate(-2357.266 -1225.25)" fill="#0b0754"/>
        <path id="Path_5303" data-name="Path 5303" d="M2318.015,1247.007l-2.335,6.668,6.205-1.393,2.19-6.5Z" transform="translate(-2315.68 -1243.686)" fill="#0b0754"/>
        <path id="Path_5304" data-name="Path 5304" d="M2315.939,1262.651l-.109-.19,2.208-6.311.111.169Z" transform="translate(-2315.815 -1252.998)" fill="#dde8fd"/>
        <path id="Path_5305" data-name="Path 5305" d="M2337.48,1246.075l5.883-1.145.289.087-6.06,1.227Z" transform="translate(-2335.256 -1242.923)" fill="#fff"/>
        <path id="Path_5306" data-name="Path 5306" d="M2379.885,1228.242l-1.255-1.992-.8,2.249,1.767-.344Z" transform="translate(-2371.49 -1226.148)" fill="#dde8fd"/>
      </g>
      <path id="Path_5307" data-name="Path 5307" d="M2173.6,1258.87c-.2-.039-.635-.2-1.073-.323a.9.9,0,0,0,.317-.355c.078-.247.13-.326-.13-.248s-1.173.5-1.173.5h0a2.414,2.414,0,0,0-1,.884s-6.415,2.255-7.187,2.294c-1.194.06-9.141-2.867-9.141-2.867-1.875.414-1.455,2.718-.809,3.127s6.364,2.489,9.752,2.528c1.716.02,7.96-3.993,7.96-3.993a2.657,2.657,0,0,1,1.3-.229c.573.1,1.9,0,2.189-.469s-.678-.782-1.017-.847Z" transform="translate(-2149.343 -1248.088)" fill="#fc9290"/>
      <path id="Path_5308" data-name="Path 5308" d="M2155.8,1265.951a4.366,4.366,0,0,1-3.152,2.762s-4.031-1.242-2.024-3.988C2150.622,1264.725,2152.606,1263.25,2155.8,1265.951Z" transform="translate(-2146.825 -1253.841)" fill="#dde8fd"/>
      <path id="Path_5309" data-name="Path 5309" d="M2385.5,1258.89h0a.611.611,0,0,0-.021-.183s-.575-.91-.763-.947c-.573-.113-.573.642-.452,1.129a1.981,1.981,0,0,0,.475.841h0l-.023.712a1.522,1.522,0,0,0,.785-1.553Z" transform="translate(-2357.081 -1247.938)" fill="#fc9290"/>
    </g>
    <g id="Group_4332" data-name="Group 4332" transform="translate(850.694 574.541)">
      <path id="Path_5310" data-name="Path 5310" d="M1517.86,1321.57h34.878a8.272,8.272,0,0,1,8.268,8.268v1.29a8.459,8.459,0,0,1-8.455,8.455h-34.69V1321.57h0Z" transform="translate(-1515.858 -1321.569)" fill="#fff"/>
      <path id="Path_5311" data-name="Path 5311" d="M1575.566,1328.973v2.71a10.04,10.04,0,0,1-.791,3.97c-1.011,2.346-2.891,3.922-5.043,3.922h-70.646c-.468,0-.846-.513-.846-1.144v-.406c0-.631.379-1.144.846-1.144h41.856a1.938,1.938,0,0,0,1.808-1.216l.005-.013a9.451,9.451,0,0,0,.631-3.444v-3.445a9.6,9.6,0,0,0-.174-1.833l-.006-.03a3.3,3.3,0,0,0-3.248-2.645h-40.873c-.468,0-.846-.512-.846-1.145v-.4c0-.632.379-1.145.846-1.145h71c2.5,0,4.612,2.269,5.267,5.369a9.841,9.841,0,0,1,.211,2.042Z" transform="translate(-1498.24 -1321.561)" fill="#9e332e"/>
      <path id="Path_5312" data-name="Path 5312" d="M1517.86,1409.86l5.231.3-5.231.183Z" transform="translate(-1515.859 -1400.853)" fill="#bed2fa"/>
      <path id="Path_5313" data-name="Path 5313" d="M1517.86,1437.57l12.445.3-12.445.183Z" transform="translate(-1515.859 -1425.736)" fill="#bed2fa"/>
      <g id="Group_4331" data-name="Group 4331" transform="translate(33.403 5.713)">
        <path id="Path_5314" data-name="Path 5314" d="M1833.185,1377.57a3.5,3.5,0,0,0-1.36,1.65,2.066,2.066,0,0,0-.106.574c-.056,1.363,0,4.447,0,4.447l-3.017-1.542-3.009,1.542v-4.18a3.019,3.019,0,0,1,.738-2.063,1.187,1.187,0,0,1,.833-.427h5.921Z" transform="translate(-1825.693 -1377.57)" fill="#fa7269"/>
        <path id="Path_5315" data-name="Path 5315" d="M1833.943,1377.57a3.5,3.5,0,0,0-1.36,1.65l-6.046.061s.237-1.469,1.485-1.711Z" transform="translate(-1826.451 -1377.57)" fill="#e75755"/>
      </g>
    </g>
    <g id="Group_4334" data-name="Group 4334" transform="translate(829.311 537.224)">
      <rect id="Rectangle_3540" data-name="Rectangle 3540" width="2" height="9.899" transform="translate(18.271 13.763)" fill="#fff"/>
      <rect id="Rectangle_3541" data-name="Rectangle 3541" width="2" height="7.982" transform="translate(15.654 15.68)" fill="#bed2fa"/>
      <rect id="Rectangle_3542" data-name="Rectangle 3542" width="2" height="8.411" transform="translate(13.376 15.25)" fill="#93b3f4"/>
      <rect id="Rectangle_3543" data-name="Rectangle 3543" width="2" height="9.899" transform="translate(10.261 13.763)" fill="#fff"/>
      <rect id="Rectangle_3544" data-name="Rectangle 3544" width="2" height="7.982" transform="translate(7.644 15.68)" fill="#bed2fa"/>
      <path id="Path_5316" data-name="Path 5316" d="M1316.95,1174.567s.641,2.78,2.509,2.78c1.6,0,3.8-3.619,3.8-3.619l-6.306.839Z" transform="translate(-1314.06 -1151.491)" fill="#fa7269"/>
      <path id="Path_5317" data-name="Path 5317" d="M1399.508,1274.137l-1.072.569s-5.8-6.145-7.188-12.042a9.167,9.167,0,0,1-.243-3.076s-.084-.267-.232-.739l-.02-.063c-.064-.207-.142-.451-.228-.727-.28-.891-.664-2.111-1.1-3.5-1.009-3.195-3.316-10.4-4.3-13.4l7.086-2.563a44.719,44.719,0,0,1,1.961,6.824c.178.651.357,1.371.523,2.155.189.889.365,1.86.512,2.91a44.687,44.687,0,0,1,.425,5.973c0,.892-.018,1.818-.071,2.773a12.237,12.237,0,0,0,.26,2.695,90.617,90.617,0,0,0,3.689,12.208Z" transform="translate(-1375.278 -1209.745)" fill="#0b0754"/>
      <path id="Path_5318" data-name="Path 5318" d="M1513.217,1587.436h-5.729a2.381,2.381,0,0,1,.162-1.535,1.1,1.1,0,0,0-.042-1.319,2.227,2.227,0,0,0,.965.182,2.018,2.018,0,0,0,.852-.3,20.6,20.6,0,0,0,1.632,1.715C1511.432,1586.448,1513.1,1586.352,1513.217,1587.436Z" transform="translate(-1485.108 -1520.328)" fill="#030231"/>
      <path id="Path_5319" data-name="Path 5319" d="M1395.205,1250.494l-4.45,8.3c-.064-.207-.142-.451-.228-.727-.28-.891-.664-2.11-1.1-3.5-1.009-3.195-3.316-10.4-4.3-13.4l7.086-2.563a44.719,44.719,0,0,1,1.961,6.824c.178.651.357,1.371.523,2.155.189.889.365,1.86.512,2.91Z" transform="translate(-1375.279 -1209.75)" fill="#030231"/>
      <path id="Path_5320" data-name="Path 5320" d="M1382.376,1594.661a2.558,2.558,0,0,0-.023,1.793h3.116s.065-.74-1.066-1.6A2.3,2.3,0,0,0,1382.376,1594.661Z" transform="translate(-1372.648 -1529.347)" fill="#030231"/>
      <path id="Path_5321" data-name="Path 5321" d="M1381.654,957.708c0-.155.082-1.828,2.623-1.976,0,0-1.247.179-1.45.734,0,0,.835-.7,1.534-.5s1.135,1.407,1.149,1.806-.34,1.7-.778,1.817a1.346,1.346,0,0,1-.533.014,6.022,6.022,0,0,1,.356.6c1.065,2.059.146,4.484-.718,4.28-.554-.131-.892.83-.892.83l-5.332-4.586s1.868-4.116,4.041-3.023Z" transform="translate(-1368.535 -955.732)" fill="#0b0754"/>
      <path id="Path_5322" data-name="Path 5322" d="M1384.38,1049.538a6.47,6.47,0,0,0,2.263.963c3.488.806,4.825-2.142,5.328-4.166a3,3,0,0,0-1.182-.363c-.252-.03-.517-.049-.737-.06a5.484,5.484,0,0,1-1.1-3.435l-.164.044-2.749.753s.126.874.188,1.7a3.271,3.271,0,0,1-.067,1.415c-.214.047-.343.077-.343.077v0a17.731,17.731,0,0,0-1.43,3.07Z" transform="translate(-1374.611 -1033.628)" fill="#fc9290"/>
      <path id="Path_5323" data-name="Path 5323" d="M1400.59,1043.667s.126.873.188,1.7a3.317,3.317,0,0,0,2.562-2.452Z" transform="translate(-1389.168 -1034.021)" fill="#ea8888"/>
      <path id="Path_5324" data-name="Path 5324" d="M1379.161,1005.2s3.586-.922,2.978-3.146-.555-3.842-2.87-3.347-2.526,1.464-2.5,2.256,1.448,4.419,2.4,4.237Z" transform="translate(-1367.771 -994.244)" fill="#fc9290"/>
      <path id="Path_5325" data-name="Path 5325" d="M1373.23,996.217c.368-.821.826-.788,1.114-.651a2.588,2.588,0,0,1,3.35-.368,4.405,4.405,0,0,0,2.079,2.128,3.064,3.064,0,0,1-2.146.607,2.644,2.644,0,0,1-1.445-.5,8.638,8.638,0,0,0,1.914,1.357c-2.019-.336-3.423-2.631-3.567-2.875a2.9,2.9,0,0,0-.494,1.251c-.022.615.218,1.8-.133,1.857C1373.9,999.019,1372.678,997.448,1373.23,996.217Z" transform="translate(-1364.471 -990.762)" fill="#0b0754"/>
      <path id="Path_5326" data-name="Path 5326" d="M1351.02,1075.511s6.023-1.462,8.642.7l-1.309,18.253-11.779-2.846a17.2,17.2,0,0,1,2.59-4.226c2.259-3.071,1.276-7.576,1.856-11.879Z" transform="translate(-1340.662 -1062.858)" fill="#fc9290"/>
      <path id="Path_5327" data-name="Path 5327" d="M1348.844,1232.466s-.007.062-.019.18c-.005.051-.012.112-.02.184-.051.473-.147,1.381-.27,2.561-.323,3.1-.83,8.068-1.176,11.992a50.19,50.19,0,0,0-.349,5.887c.279,1.173,0,15.2,0,15.2a4.121,4.121,0,0,1-2.519,0s-2.667-12.641-2.294-14.4a6.051,6.051,0,0,0-.25-3.257c-2.071-9.643-1.844-14.987-1.433-17.546a10.778,10.778,0,0,1,.354-1.562,3.272,3.272,0,0,1,.142-.384A9.745,9.745,0,0,1,1348.844,1232.466Z" transform="translate(-1334.975 -1202.894)" fill="#030231"/>
      <path id="Path_5328" data-name="Path 5328" d="M1350.415,1082.635a43.5,43.5,0,0,1-1.87,6.329s.695,5.022.031,6.4a.611.611,0,0,1-.283.317c-2.456,1.07-12.021.031-12.425-3.054-.147-1.121,3.644-5.065,3.864-5.543a3.419,3.419,0,0,0-.255-2.169c-.63,1.942-4.106,1.384-4.106,1.384.408-.7,1.425-5.528,2.56-7.709a4.335,4.335,0,0,1,3.132-1.876,3.408,3.408,0,0,0,3.242,1.291c2.293-.214,2.713-1.617,2.713-1.617a7.992,7.992,0,0,1,2.661.776,10.469,10.469,0,0,1,.736,5.472Z" transform="translate(-1330.603 -1064.079)" fill="#fa7269"/>
      <path id="Path_5329" data-name="Path 5329" d="M1433.6,1143.971s.695,5.022.032,6.4c-1.79-.9-4.122-2.837-3.412-5.867,1.031-4.4,5.25-6.863,5.25-6.863A43.509,43.509,0,0,1,1433.6,1143.971Z" transform="translate(-1415.66 -1119.086)" fill="#ed6966"/>
      <g id="Group_4333" data-name="Group 4333" transform="translate(0 17.093)">
        <path id="Path_5330" data-name="Path 5330" d="M1331.565,1141.48l4.1,6.58h-6.978l-3.907-6.438Z" transform="translate(-1321.091 -1139.625)" fill="#0b0754"/>
        <path id="Path_5331" data-name="Path 5331" d="M1395.178,1145.906l.07-.229-3.88-6.227-.078.207Z" transform="translate(-1380.817 -1137.802)" fill="#dde8fd"/>
        <path id="Path_5332" data-name="Path 5332" d="M1331.642,1139.45l-6.574.187-.288.162,6.785-.142Z" transform="translate(-1321.091 -1137.802)" fill="#fff"/>
        <path id="Path_5333" data-name="Path 5333" d="M1292.309,1125.3l-3.688-2,4.3,6.751,3.3,1.683Z" transform="translate(-1288.62 -1123.3)" fill="#030231"/>
      </g>
      <path id="Path_5334" data-name="Path 5334" d="M1425.212,1170.53c-.395.181-1.409,1.375-1.771,1.5-1.627.544-8.552-.9-8.552-.9l.214-1.213s6.8.181,7.544-.019c.141-.038.875-1.187,1.158-1.352Z" transform="translate(-1402.008 -1146.83)" fill="#fc9290"/>
      <path id="Path_5335" data-name="Path 5335" d="M1382.945,1177.24s-.82-.667-1.374-.516a8.868,8.868,0,0,0-1.671,1.017c-.3.166-1.125.759-.708,1.118s1.714.051,2.228-.224a2.658,2.658,0,0,1,1.311-.181Z" transform="translate(-1369.849 -1154.161)" fill="#fc9290"/>
      <path id="Path_5336" data-name="Path 5336" d="M1392.3,1175.712s-1-.119-1.268-.113-.2.065-.048.276.669.292.693.366S1392.3,1175.712,1392.3,1175.712Z" transform="translate(-1380.42 -1153.17)" fill="#fc9290"/>
      <path id="Path_5337" data-name="Path 5337" d="M1441.869,1076.389s2.954.351,3.767,1.617c1.028,1.6,3.456,7.981,3.377,9.588,0,0-1.775,3.02-7.86,2.537,0,0-.633-2.236.647-2.974a19.423,19.423,0,0,0,3.485-.873l-1.044-4.339-2.373-5.556Z" transform="translate(-1425.453 -1064.081)" fill="#fa7269"/>
      <path id="Path_5338" data-name="Path 5338" d="M1318.121,1164.72c-.092-.372-.9-.14-1.177.075a1.117,1.117,0,0,0-.208.245c-.008-.062-.016-.122-.02-.168-.015-.175-.219-.488-.27-.254s-.134,1.22-.134,1.22c-.01.793.5,1.121.828.863a3.9,3.9,0,0,0,.98-1.979Z" transform="translate(-1313.488 -1143.226)" fill="#fc9290"/>
    </g>
  </g>
</svg>
