<svg xmlns="http://www.w3.org/2000/svg" width="162.265" height="103.3" viewBox="0 0 162.265 103.3">
  <g id="Group_4647" data-name="Group 4647" transform="translate(5171.521 -14479.196)">
    <path id="Path_4814" data-name="Path 4814" d="M713.768,890.944c0,3.045,35.4,3.558,79.073,3.558s79.073-.512,79.073-3.558-35.4-5.515-79.073-5.515S713.768,887.9,713.768,890.944Z" transform="translate(-5885 13687.994)" fill="#e2d6d0"/>
    <g id="Group_4177" data-name="Group 4177" transform="translate(-5168.863 14481.854)">
      <path id="Path_4815" data-name="Path 4815" d="M809.716,387.408c-1.92,1.859-4.294,2.81-5.924,4.951a11.267,11.267,0,0,0-1.965,6.987c.157,9.464,5.932,18.327,4.711,27.832" transform="translate(-791.818 -365.828)" fill="none" stroke="#ece3db" stroke-miterlimit="10" stroke-width="5.315"/>
      <path id="Path_4816" data-name="Path 4816" d="M947.63,311.389c-4.339-.476-8.512-.6-11.625-.779-12.712,0-25.44-1.914-38.146-1.974-2.062-.007-4.142,0-6.28.1s-4.34.308-6.567.6c-6.275,1.027-12.148,3.232-18.154,5.258a35.731,35.731,0,0,1-9.613,1.737c-1.062.06-2.127.089-3.2.1s-2.154.008-3.25,0-2.212-.018-3.352-.016a23.123,23.123,0,0,0-3.915.306,14.119,14.119,0,0,0-3.772,1.178,10.178,10.178,0,0,0-2.687,1.859,9.708,9.708,0,0,0-1.779,2.37,12.264,12.264,0,0,0-1.055,2.733,17.006,17.006,0,0,0-.481,2.944,22.686,22.686,0,0,0-.027,3,28.022,28.022,0,0,0,.317,2.909q.3,1.881.713,3.775c.272,1.262.573,2.526.88,3.791s.609,2.529.881,3.793.5,2.526.664,3.785a25.933,25.933,0,0,1,.222,3.768,20.159,20.159,0,0,1-.416,3.741c-.295,1.267-.68,2.545-1.061,3.827-1.143,3.846-2.252,7.721-.917,11.39,1.749,4.8,7.057,7.392,11.631,8.812,5.32,1.652,10.958,2.388,16.431,3.471,8.49,1.681,17.054,2.9,25.676,3.763,1.732.168,3.467.321,5.229.434,1.684.094,3.436.137,5.267.117s3.751-.1,5.772-.243,4.164-.335,6.424-.574,4.666-.513,7.165-.836,5.064-.731,7.6-1.207q1.9-.357,3.729-.736t3.575-.775c6-1.242,12.784-2.766,16.9-7.688,3.822-4.574,5.481-10.655,7.385-16.191,1.977-5.75,3.482-11.654,5.592-17.359,2.033-5.5,6.311-10.924,5.927-17.019C968.68,315.508,957.709,312.5,947.63,311.389Z" transform="translate(-819.204 -298.125)" fill="none" stroke="#ece3db" stroke-miterlimit="10" stroke-width="5.315"/>
      <path id="Path_4817" data-name="Path 4817" d="M770.087,386.985c4.639.483,9.439.6,14.149.724,17.4.442,34.859,1.788,52.287.583a148.22,148.22,0,0,0,27.662-4.371c8.723-2.309,18-5.306,24.443-11.206,4.141-3.793,6.552-9.067,4.986-14.311-1.554-5.2-6.414-9.079-9.294-13.826a20.11,20.11,0,0,1-2.928-11.659c.25-3.968,1.706-7.813,2.048-11.776.717-8.283-5.411-12.638-13.87-14.763-5.8-1.458-11.895-1.915-17.829-2.755a300.21,300.21,0,0,0-33.348-2.73c-10.453-.3-21.11-.566-31.429,1.214-6.069,1.006-12.108,3.668-14.417,8.99-.956,2.2-1.42,4.544-2.191,6.8-5.836,17.1-33.862,21.936-31.695,41.919.743,6.85,4.489,14.953,10.26,19.68C754.716,384.247,762.388,386.183,770.087,386.985Z" transform="translate(-737.429 -291.286)" fill="#ece3db" stroke="#f8f1e7" stroke-miterlimit="10" stroke-width="5.71"/>
      <circle id="Ellipse_70" data-name="Ellipse 70" cx="3.202" cy="3.202" r="3.202" transform="translate(92.225 0)" fill="none" stroke="#ece3db" stroke-miterlimit="10" stroke-width="5.315"/>
      <circle id="Ellipse_71" data-name="Ellipse 71" cx="3.202" cy="3.202" r="3.202" transform="translate(143.742 86.257) rotate(-80.783)" fill="#f8f1e7" stroke="#ece3db" stroke-miterlimit="10" stroke-width="5.315"/>
      <circle id="Ellipse_72" data-name="Ellipse 72" cx="1.617" cy="1.617" r="1.617" transform="translate(102.231 4.77)" fill="none" stroke="#ece3db" stroke-miterlimit="10" stroke-width="5.315"/>
      <circle id="Ellipse_73" data-name="Ellipse 73" cx="1.617" cy="1.617" r="1.617" transform="translate(19.762 10.907)" fill="none" stroke="#ece3db" stroke-miterlimit="10" stroke-width="5.315"/>
      <circle id="Ellipse_74" data-name="Ellipse 74" cx="1.617" cy="1.617" r="1.617" transform="translate(150.601 88.379)" fill="#f8f1e7" stroke="#ece3db" stroke-miterlimit="10" stroke-width="5.315"/>
      <circle id="Ellipse_75" data-name="Ellipse 75" cx="1.617" cy="1.617" r="1.617" transform="translate(140.817 15.397)" fill="#f8f1e7" stroke="#ece3db" stroke-miterlimit="10" stroke-width="5.315"/>
      <circle id="Ellipse_76" data-name="Ellipse 76" cx="1.617" cy="1.617" r="1.617" transform="translate(2.062 58.174)" fill="#f8f1e7" stroke="#ece3db" stroke-miterlimit="10" stroke-width="5.315"/>
      <circle id="Ellipse_77" data-name="Ellipse 77" cx="1.617" cy="1.617" r="1.617" transform="translate(0 88.707)" fill="none" stroke="#ece3db" stroke-miterlimit="10" stroke-width="5.315"/>
    </g>
    <g id="Group_4187" data-name="Group 4187" transform="translate(-5129.783 14489.195)">
      <path id="Path_4818" data-name="Path 4818" d="M1054.539,286.1v82.449h-38.382V286.269c-.023-.059-.05-.117-.072-.172Z" transform="translate(-1015.047 -286.097)" fill="#e2d6d0"/>
      <rect id="Rectangle_3343" data-name="Rectangle 3343" width="33.414" height="12.719" transform="translate(3.558 3.91)" fill="#d8c8c1"/>
      <rect id="Rectangle_3344" data-name="Rectangle 3344" width="33.414" height="12.719" transform="translate(3.558 23.922)" fill="#d8c8c1"/>
      <rect id="Rectangle_3345" data-name="Rectangle 3345" width="33.414" height="12.719" transform="translate(3.558 42.601)" fill="#d8c8c1"/>
      <g id="Group_4186" data-name="Group 4186" transform="translate(3.623 7.201)">
        <g id="Group_4179" data-name="Group 4179">
          <g id="Group_4178" data-name="Group 4178">
            <rect id="Rectangle_3346" data-name="Rectangle 3346" width="2.956" height="13.698" transform="translate(0 0.291)" fill="#fafaf9" stroke="#e2d6d0" stroke-linecap="round" stroke-linejoin="round" stroke-width="1.427"/>
            <rect id="Rectangle_3347" data-name="Rectangle 3347" width="2.536" height="11.717" transform="translate(2.956 2.271)" fill="#fafaf9" stroke="#e2d6d0" stroke-linecap="round" stroke-linejoin="round" stroke-width="1.427"/>
            <rect id="Rectangle_3348" data-name="Rectangle 3348" width="2.695" height="13.989" transform="translate(5.492)" fill="#fafaf9" stroke="#e2d6d0" stroke-linecap="round" stroke-linejoin="round" stroke-width="1.427"/>
            <rect id="Rectangle_3349" data-name="Rectangle 3349" width="2.956" height="10.075" transform="translate(8.187 3.914)" fill="#fafaf9" stroke="#e2d6d0" stroke-linecap="round" stroke-linejoin="round" stroke-width="1.427"/>
            <rect id="Rectangle_3350" data-name="Rectangle 3350" width="2.956" height="12.731" transform="translate(11.142 1.258)" fill="#fafaf9" stroke="#e2d6d0" stroke-linecap="round" stroke-linejoin="round" stroke-width="1.427"/>
            <rect id="Rectangle_3351" data-name="Rectangle 3351" width="2.956" height="13.698" transform="translate(14.098 0.291)" fill="#fafaf9" stroke="#e2d6d0" stroke-linecap="round" stroke-linejoin="round" stroke-width="1.427"/>
            <rect id="Rectangle_3352" data-name="Rectangle 3352" width="2.22" height="11.717" transform="translate(17.053 2.271)" fill="#fafaf9" stroke="#e2d6d0" stroke-linecap="round" stroke-linejoin="round" stroke-width="1.427"/>
            <rect id="Rectangle_3353" data-name="Rectangle 3353" width="2.627" height="12.731" transform="translate(19.273 1.258)" fill="#fafaf9" stroke="#e2d6d0" stroke-linecap="round" stroke-linejoin="round" stroke-width="1.427"/>
            <rect id="Rectangle_3354" data-name="Rectangle 3354" width="2.627" height="13.698" transform="translate(21.9 0.291)" fill="#fafaf9" stroke="#e2d6d0" stroke-linecap="round" stroke-linejoin="round" stroke-width="1.427"/>
            <rect id="Rectangle_3355" data-name="Rectangle 3355" width="2.956" height="10.949" transform="translate(24.527 3.04)" fill="#fafaf9" stroke="#e2d6d0" stroke-linecap="round" stroke-linejoin="round" stroke-width="1.427"/>
            <rect id="Rectangle_3356" data-name="Rectangle 3356" width="2.956" height="13.01" transform="translate(27.482 0.978)" fill="#fafaf9" stroke="#e2d6d0" stroke-linecap="round" stroke-linejoin="round" stroke-width="1.427"/>
            <rect id="Rectangle_3357" data-name="Rectangle 3357" width="2.956" height="13.698" transform="translate(30.438 0.291)" fill="#fafaf9" stroke="#e2d6d0" stroke-linecap="round" stroke-linejoin="round" stroke-width="1.427"/>
          </g>
        </g>
        <g id="Group_4181" data-name="Group 4181" transform="translate(0 18.56)">
          <g id="Group_4180" data-name="Group 4180" transform="translate(0 0)">
            <rect id="Rectangle_3358" data-name="Rectangle 3358" width="2.956" height="13.698" transform="translate(33.393 13.989) rotate(180)" fill="#fafaf9" stroke="#e2d6d0" stroke-linecap="round" stroke-linejoin="round" stroke-width="1.427"/>
            <rect id="Rectangle_3359" data-name="Rectangle 3359" width="2.536" height="11.717" transform="translate(30.438 13.989) rotate(180)" fill="#fafaf9" stroke="#e2d6d0" stroke-linecap="round" stroke-linejoin="round" stroke-width="1.427"/>
            <rect id="Rectangle_3360" data-name="Rectangle 3360" width="2.695" height="13.989" transform="translate(27.901 13.989) rotate(180)" fill="#fafaf9" stroke="#e2d6d0" stroke-linecap="round" stroke-linejoin="round" stroke-width="1.427"/>
            <rect id="Rectangle_3361" data-name="Rectangle 3361" width="2.956" height="10.075" transform="translate(25.206 13.989) rotate(180)" fill="#fafaf9" stroke="#e2d6d0" stroke-linecap="round" stroke-linejoin="round" stroke-width="1.427"/>
            <rect id="Rectangle_3362" data-name="Rectangle 3362" width="2.956" height="12.731" transform="translate(22.251 13.989) rotate(180)" fill="#fafaf9" stroke="#e2d6d0" stroke-linecap="round" stroke-linejoin="round" stroke-width="1.427"/>
            <rect id="Rectangle_3363" data-name="Rectangle 3363" width="2.956" height="13.698" transform="translate(19.295 13.989) rotate(180)" fill="#fafaf9" stroke="#e2d6d0" stroke-linecap="round" stroke-linejoin="round" stroke-width="1.427"/>
            <rect id="Rectangle_3364" data-name="Rectangle 3364" width="2.22" height="11.717" transform="translate(16.34 13.989) rotate(180)" fill="#fafaf9" stroke="#e2d6d0" stroke-linecap="round" stroke-linejoin="round" stroke-width="1.427"/>
            <rect id="Rectangle_3365" data-name="Rectangle 3365" width="2.627" height="12.731" transform="translate(14.12 13.989) rotate(180)" fill="#fafaf9" stroke="#e2d6d0" stroke-linecap="round" stroke-linejoin="round" stroke-width="1.427"/>
            <rect id="Rectangle_3366" data-name="Rectangle 3366" width="2.627" height="13.698" transform="translate(11.493 13.989) rotate(180)" fill="#fafaf9" stroke="#e2d6d0" stroke-linecap="round" stroke-linejoin="round" stroke-width="1.427"/>
            <rect id="Rectangle_3367" data-name="Rectangle 3367" width="2.956" height="10.949" transform="translate(8.867 13.989) rotate(180)" fill="#fafaf9" stroke="#e2d6d0" stroke-linecap="round" stroke-linejoin="round" stroke-width="1.427"/>
            <rect id="Rectangle_3368" data-name="Rectangle 3368" width="2.956" height="13.01" transform="translate(5.911 13.989) rotate(180)" fill="#fafaf9" stroke="#e2d6d0" stroke-linecap="round" stroke-linejoin="round" stroke-width="1.427"/>
            <rect id="Rectangle_3369" data-name="Rectangle 3369" width="2.956" height="13.698" transform="translate(2.956 13.989) rotate(180)" fill="#fafaf9" stroke="#e2d6d0" stroke-linecap="round" stroke-linejoin="round" stroke-width="1.427"/>
          </g>
        </g>
        <g id="Group_4185" data-name="Group 4185" transform="translate(0 37.086)">
          <g id="Group_4184" data-name="Group 4184">
            <g id="Group_4183" data-name="Group 4183">
              <g id="Group_4182" data-name="Group 4182">
                <rect id="Rectangle_3370" data-name="Rectangle 3370" width="2.956" height="12.381" transform="translate(0 1.677)" fill="#fafaf9" stroke="#e2d6d0" stroke-linecap="round" stroke-linejoin="round" stroke-width="1.427"/>
                <rect id="Rectangle_3371" data-name="Rectangle 3371" width="2.536" height="13.395" transform="translate(2.956 0.664)" fill="#fafaf9" stroke="#e2d6d0" stroke-linecap="round" stroke-linejoin="round" stroke-width="1.427"/>
                <rect id="Rectangle_3372" data-name="Rectangle 3372" width="2.695" height="11.717" transform="translate(5.492 2.341)" fill="#fafaf9" stroke="#e2d6d0" stroke-linecap="round" stroke-linejoin="round" stroke-width="1.427"/>
                <rect id="Rectangle_3373" data-name="Rectangle 3373" width="2.956" height="12.381" transform="translate(8.187 1.677)" fill="#fafaf9" stroke="#e2d6d0" stroke-linecap="round" stroke-linejoin="round" stroke-width="1.427"/>
                <rect id="Rectangle_3374" data-name="Rectangle 3374" width="2.956" height="9.9" transform="translate(11.142 4.158)" fill="#fafaf9" stroke="#e2d6d0" stroke-linecap="round" stroke-linejoin="round" stroke-width="1.427"/>
                <rect id="Rectangle_3375" data-name="Rectangle 3375" width="2.956" height="11.962" transform="translate(14.098 2.097)" fill="#fafaf9" stroke="#e2d6d0" stroke-linecap="round" stroke-linejoin="round" stroke-width="1.427"/>
                <rect id="Rectangle_3376" data-name="Rectangle 3376" width="2.22" height="14.059" transform="translate(17.053)" fill="#fafaf9" stroke="#e2d6d0" stroke-linecap="round" stroke-linejoin="round" stroke-width="1.427"/>
                <rect id="Rectangle_3377" data-name="Rectangle 3377" width="2.627" height="10.949" transform="translate(19.273 3.11)" fill="#fafaf9" stroke="#e2d6d0" stroke-linecap="round" stroke-linejoin="round" stroke-width="1.427"/>
                <rect id="Rectangle_3378" data-name="Rectangle 3378" width="2.627" height="13.01" transform="translate(21.9 1.048)" fill="#fafaf9" stroke="#e2d6d0" stroke-linecap="round" stroke-linejoin="round" stroke-width="1.427"/>
                <rect id="Rectangle_3379" data-name="Rectangle 3379" width="2.956" height="11.962" transform="translate(24.527 2.097)" fill="#fafaf9" stroke="#e2d6d0" stroke-linecap="round" stroke-linejoin="round" stroke-width="1.427"/>
                <rect id="Rectangle_3380" data-name="Rectangle 3380" width="2.956" height="13.779" transform="translate(27.482 0.28)" fill="#fafaf9" stroke="#e2d6d0" stroke-linecap="round" stroke-linejoin="round" stroke-width="1.427"/>
                <rect id="Rectangle_3381" data-name="Rectangle 3381" width="2.956" height="12.381" transform="translate(30.438 1.677)" fill="#fafaf9" stroke="#e2d6d0" stroke-linecap="round" stroke-linejoin="round" stroke-width="1.427"/>
              </g>
            </g>
          </g>
        </g>
      </g>
      <rect id="Rectangle_3382" data-name="Rectangle 3382" width="40.826" height="1.957" transform="translate(0 0.997)" fill="#e2d6d0"/>
      <rect id="Rectangle_3383" data-name="Rectangle 3383" width="40.826" height="1.957" transform="translate(0 22.588)" fill="#e2d6d0"/>
    </g>
    <path id="Path_4819" data-name="Path 4819" d="M858.206,380.925a.26.26,0,1,0-.464-.235c-.8,1.585-1.557,3.224-2.255,4.883q-.139-.834-.261-1.671c.623-1.4,1.291-2.788,1.99-4.135a.26.26,0,1,0-.462-.24c-.578,1.112-1.134,2.255-1.661,3.407q-.087-.653-.163-1.308c.5-1.166,1.04-2.334,1.6-3.473a.26.26,0,0,0-.467-.229c-.432.88-.849,1.779-1.25,2.68q-.179-1.723-.286-3.458a.26.26,0,0,0-.519.032q.1,1.676.275,3.342c-.487-.771-.966-1.553-1.426-2.343a.26.26,0,0,0-.45.262c.642,1.1,1.317,2.2,2.007,3.257q.078.669.167,1.337c-.734-1.006-1.451-2.037-2.135-3.08a.26.26,0,0,0-.435.286c.861,1.311,1.771,2.608,2.705,3.854l.013.017q.131.89.281,1.776c-1.143-1.453-2.248-2.966-3.289-4.51a.26.26,0,1,0-.431.291c1.2,1.781,2.484,3.523,3.815,5.178l.1.125q.158.861.333,1.717c-1.372-1.622-2.695-3.324-3.937-5.071a.26.26,0,1,0-.424.3c1.395,1.963,2.889,3.871,4.443,5.672l.142.165q.187.853.391,1.7c-1.611-1.776-3.162-3.653-4.612-5.591a.26.26,0,1,0-.417.312,77.572,77.572,0,0,0,5.1,6.135l.189.205q.216.845.449,1.684a77.521,77.521,0,0,1-5.326-6.081.26.26,0,0,0-.409.322,77.913,77.913,0,0,0,5.793,6.566l.242.245q.245.837.506,1.668a77.981,77.981,0,0,1-6.074-6.539.26.26,0,1,0-.4.332,78.4,78.4,0,0,0,6.515,6.964l.287.271q.272.827.562,1.648a78.3,78.3,0,0,1-6.844-6.948.26.26,0,1,0-.392.342,78.693,78.693,0,0,0,7.264,7.328l.331.292,0-.018q.3.825.623,1.643l0,.009a78.789,78.789,0,0,1-7.65-7.326.26.26,0,1,0-.384.351,79.084,79.084,0,0,0,8.042,7.659l.341.281.012-.066q.33.815.677,1.622c0,.019-.006.037-.009.056a79.061,79.061,0,0,1-8.44-7.631.26.26,0,1,0-.376.36,79.537,79.537,0,0,0,8.846,7.953l.35.269.018-.118c.286.644.578,1.286.88,1.923v.005a79.172,79.172,0,0,1-8.166-6.785.26.26,0,0,0-.359.377,79.6,79.6,0,0,0,8.581,7.088l.36.256.008-.071q.448.916.918,1.822a79.242,79.242,0,0,1-7.8-5.955.26.26,0,0,0-.341.393,79.712,79.712,0,0,0,8.264,6.265l.369.243V411.2q.459.856.938,1.7a79.4,79.4,0,0,1-7.38-5.164.26.26,0,0,0-.322.409,79.744,79.744,0,0,0,7.9,5.487l.341.207q.481.824.981,1.637a79.428,79.428,0,0,1-6.9-4.419.26.26,0,1,0-.3.423,79.771,79.771,0,0,0,7.484,4.754l.3.169q.511.807,1.04,1.6c-2.168-1.135-4.316-2.386-6.39-3.732a.26.26,0,0,0-.283.436,79.888,79.888,0,0,0,7.029,4.068l.256.131q.541.79,1.1,1.568c-1.971-.943-3.931-1.981-5.834-3.095a.26.26,0,1,0-.263.449c2.128,1.245,4.326,2.4,6.533,3.43l.2.094q.572.773,1.164,1.532c-1.763-.768-3.52-1.608-5.235-2.51a.26.26,0,0,0-.242.461c1.963,1.031,3.981,1.988,6,2.843l.155.066q1.78,2.228,3.716,4.339a.26.26,0,0,0,.293.063.256.256,0,0,0,.074-.048.26.26,0,0,0,.015-.368q-2.052-2.23-3.923-4.6c-.228-2.111-.367-4.24-.409-6.334a.26.26,0,1,0-.52.01c.037,1.84.15,3.707.33,5.564q-.648-.839-1.271-1.7c-.162-2.342-.215-4.7-.15-7.012a.26.26,0,0,0-.52-.014c-.057,2.058-.02,4.151.1,6.237-.408-.572-.811-1.147-1.2-1.728a72.961,72.961,0,0,1,.164-7.676.26.26,0,1,0-.519-.039c-.171,2.271-.229,4.586-.184,6.9q-.58-.882-1.139-1.777a72.871,72.871,0,0,1,.536-8.31.26.26,0,0,0-.516-.064,73.337,73.337,0,0,0-.524,7.553q-.547-.9-1.07-1.82a73.061,73.061,0,0,1,.957-8.933.26.26,0,1,0-.513-.088,73.3,73.3,0,0,0-.923,8.18c-.34-.612-.67-1.229-.995-1.85a73.1,73.1,0,0,1,1.431-9.538.26.26,0,1,0-.508-.112,73.488,73.488,0,0,0-1.368,8.786c-.316-.621-.626-1.244-.925-1.873a73.125,73.125,0,0,1,1.956-10.123.26.26,0,0,0-.5-.135,73.538,73.538,0,0,0-1.865,9.37q-.439-.948-.854-1.907a73.2,73.2,0,0,1,2.528-10.671.26.26,0,1,0-.5-.158,73.555,73.555,0,0,0-2.412,9.934q-.336-.8-.655-1.614a73.589,73.589,0,0,1,2.65-9.934.26.26,0,1,0-.492-.169,73.915,73.915,0,0,0-2.51,9.2q-.309-.814-.6-1.635a73.956,73.956,0,0,1,2.733-9.2.26.26,0,1,0-.488-.181,74.327,74.327,0,0,0-2.565,8.463q-.283-.824-.548-1.655a74.4,74.4,0,0,1,2.775-8.469.26.26,0,0,0-.484-.192,74.7,74.7,0,0,0-2.584,7.74q-.255-.834-.493-1.673a74.8,74.8,0,0,1,2.78-7.749.26.26,0,1,0-.479-.2c-.96,2.269-1.814,4.626-2.556,7.018q-.229-.845-.44-1.7a75.183,75.183,0,0,1,2.74-7.026.26.26,0,1,0-.474-.214c-.919,2.039-1.753,4.156-2.5,6.3q-.2-.854-.384-1.712c.8-2.149,1.691-4.273,2.668-6.316a.26.26,0,0,0-.469-.224c-.866,1.812-1.666,3.687-2.393,5.585q-.173-.861-.328-1.725C856.432,384.622,857.288,382.739,858.206,380.925Z" transform="translate(-6003.01 14125.056)" fill="#4e7158"/>
    <path id="Path_4820" data-name="Path 4820" d="M1422.466,277.445a.26.26,0,1,1,.464-.235c.8,1.585,1.557,3.224,2.255,4.883q.139-.834.261-1.672c-.623-1.4-1.291-2.788-1.99-4.135a.26.26,0,1,1,.462-.24c.578,1.112,1.134,2.255,1.661,3.407q.087-.653.163-1.308c-.5-1.166-1.04-2.334-1.6-3.473a.26.26,0,1,1,.467-.229c.433.88.849,1.779,1.25,2.68q.179-1.723.286-3.458a.26.26,0,0,1,.52.032q-.1,1.676-.275,3.342c.487-.771.966-1.553,1.426-2.343a.26.26,0,1,1,.45.262c-.642,1.1-1.317,2.2-2.007,3.257q-.078.669-.167,1.337c.734-1.006,1.451-2.037,2.135-3.08a.26.26,0,0,1,.435.286c-.861,1.311-1.771,2.608-2.706,3.854l-.013.017q-.13.89-.28,1.776c1.143-1.453,2.248-2.966,3.289-4.51a.26.26,0,0,1,.431.291c-1.2,1.781-2.484,3.524-3.815,5.179l-.1.125q-.158.86-.333,1.717c1.371-1.622,2.695-3.324,3.936-5.071a.26.26,0,1,1,.424.3c-1.395,1.963-2.889,3.871-4.443,5.672l-.142.165q-.187.853-.391,1.7c1.611-1.776,3.162-3.653,4.612-5.591a.26.26,0,1,1,.417.312,77.558,77.558,0,0,1-5.1,6.135l-.189.205q-.216.845-.449,1.684a77.467,77.467,0,0,0,5.325-6.081.26.26,0,0,1,.409.322,77.949,77.949,0,0,1-5.793,6.566l-.242.245q-.244.837-.506,1.668a77.937,77.937,0,0,0,6.074-6.539.26.26,0,0,1,.4.332,78.417,78.417,0,0,1-6.515,6.964l-.287.271q-.272.827-.562,1.648a78.288,78.288,0,0,0,6.844-6.948.26.26,0,1,1,.392.341,78.673,78.673,0,0,1-7.264,7.328l-.331.292,0-.018q-.3.825-.623,1.643l0,.009a78.746,78.746,0,0,0,7.65-7.326.26.26,0,1,1,.384.351,79.113,79.113,0,0,1-8.042,7.659l-.341.281-.012-.066q-.33.815-.677,1.623c0,.019.006.037.009.056a79.094,79.094,0,0,0,8.44-7.631.26.26,0,0,1,.376.36,79.554,79.554,0,0,1-8.846,7.953l-.35.269-.018-.118q-.429.967-.88,1.923v.005a79.161,79.161,0,0,0,8.166-6.785.26.26,0,1,1,.359.377,79.568,79.568,0,0,1-8.581,7.088l-.36.256-.008-.071q-.448.916-.918,1.822a79.335,79.335,0,0,0,7.8-5.956.26.26,0,0,1,.341.394,79.758,79.758,0,0,1-8.263,6.265l-.369.243v-.018q-.459.856-.939,1.7a79.39,79.39,0,0,0,7.38-5.164.26.26,0,0,1,.322.409,79.777,79.777,0,0,1-7.9,5.487l-.341.208q-.481.824-.981,1.637a79.422,79.422,0,0,0,6.9-4.419.26.26,0,0,1,.3.423,79.784,79.784,0,0,1-7.484,4.753l-.3.169q-.511.807-1.041,1.6c2.169-1.135,4.316-2.386,6.39-3.732a.26.26,0,1,1,.283.436,79.818,79.818,0,0,1-7.029,4.068l-.256.131q-.541.79-1.1,1.568c1.972-.943,3.932-1.981,5.834-3.095a.26.26,0,1,1,.263.449c-2.128,1.245-4.326,2.4-6.533,3.43l-.2.094q-.572.773-1.164,1.532c1.763-.768,3.521-1.608,5.235-2.51a.26.26,0,0,1,.242.461c-1.963,1.031-3.981,1.988-6,2.843l-.155.066q-1.78,2.228-3.717,4.339a.26.26,0,1,1-.383-.352q2.052-2.23,3.922-4.6c.228-2.111.367-4.24.409-6.334a.26.26,0,1,1,.52.01c-.037,1.84-.15,3.706-.33,5.564q.648-.839,1.271-1.7c.162-2.342.215-4.7.151-7.012a.26.26,0,1,1,.52-.014c.057,2.058.02,4.151-.1,6.237q.612-.858,1.2-1.728a72.962,72.962,0,0,0-.164-7.676.26.26,0,1,1,.519-.039c.171,2.271.229,4.586.184,6.9q.58-.882,1.139-1.777a73.01,73.01,0,0,0-.536-8.31.26.26,0,1,1,.516-.064,73.373,73.373,0,0,1,.524,7.553q.547-.9,1.07-1.82a73.084,73.084,0,0,0-.957-8.933.26.26,0,1,1,.513-.088,73.353,73.353,0,0,1,.923,8.18q.51-.918.995-1.85a73.034,73.034,0,0,0-1.431-9.538.26.26,0,1,1,.508-.112,73.49,73.49,0,0,1,1.369,8.786c.315-.621.626-1.244.926-1.873a73.141,73.141,0,0,0-1.956-10.123.26.26,0,0,1,.5-.135,73.587,73.587,0,0,1,1.865,9.37q.438-.949.854-1.908a73.165,73.165,0,0,0-2.528-10.671.26.26,0,1,1,.5-.158,73.5,73.5,0,0,1,2.412,9.934q.336-.8.655-1.614a73.607,73.607,0,0,0-2.651-9.934.26.26,0,1,1,.492-.169,73.893,73.893,0,0,1,2.51,9.2q.309-.814.6-1.635a74,74,0,0,0-2.733-9.2.26.26,0,1,1,.488-.181,74.274,74.274,0,0,1,2.565,8.464q.283-.824.548-1.655a74.345,74.345,0,0,0-2.775-8.469.26.26,0,0,1,.484-.192,74.645,74.645,0,0,1,2.583,7.74q.256-.834.494-1.673a74.8,74.8,0,0,0-2.78-7.749.26.26,0,1,1,.479-.2c.96,2.269,1.814,4.626,2.556,7.018q.229-.845.44-1.7a75.26,75.26,0,0,0-2.741-7.026.26.26,0,1,1,.474-.214c.918,2.039,1.753,4.156,2.5,6.3q.2-.854.384-1.712c-.8-2.149-1.691-4.273-2.668-6.316a.26.26,0,1,1,.469-.224c.866,1.812,1.667,3.686,2.394,5.585q.173-.861.327-1.725C1424.241,281.143,1423.385,279.259,1422.466,277.445Z" transform="translate(-6478.703 14213.992)" fill="#4e7158"/>
    <g id="Group_4197" data-name="Group 4197" transform="translate(-5032.045 14523.01)">
      <g id="Group_4196" data-name="Group 4196" transform="translate(0 0)">
        <g id="Group_4188" data-name="Group 4188" transform="translate(0 4.837)">
          <path id="Path_4821" data-name="Path 4821" d="M1716.083,561.275l-.484-.148a33.4,33.4,0,0,1-11.432,16.136l.3.4A33.928,33.928,0,0,0,1716.083,561.275Z" transform="translate(-1704.167 -561.127)" fill="#4e7158"/>
        </g>
        <g id="Group_4189" data-name="Group 4189" transform="translate(0.422 10.856)">
          <path id="Path_4822" data-name="Path 4822" d="M1707.177,608.371c-.086,1.568,1.259,4.333,1.639,4.358.53.035,2.645-2.976,2.6-4.829-.041-1.631-2.024-4.006-2.4-3.946C1708.541,604.03,1707.264,606.778,1707.177,608.371Z" transform="translate(-1707.173 -603.954)" fill="#4e7158"/>
        </g>
        <g id="Group_4190" data-name="Group 4190" transform="translate(4.962 6.915)">
          <path id="Path_4823" data-name="Path 4823" d="M1739.515,579.871c.206,1.272,1.816,3.236,2.123,3.185.44-.073,1.51-2.813,1.214-4.324a4.98,4.98,0,0,0-2.562-2.814C1739.916,576.051,1739.3,578.56,1739.515,579.871Z" transform="translate(-1739.471 -575.913)" fill="#4e7158"/>
        </g>
        <g id="Group_4191" data-name="Group 4191" transform="translate(8.306 3.854)">
          <path id="Path_4824" data-name="Path 4824" d="M1763.41,557a3.8,3.8,0,0,0,1.821,1.879,4.371,4.371,0,0,0,.314-3.069,3.654,3.654,0,0,0-2-1.678A4.846,4.846,0,0,0,1763.41,557Z" transform="translate(-1763.269 -554.129)" fill="#4e7158"/>
        </g>
        <g id="Group_4192" data-name="Group 4192" transform="translate(11.077)">
          <path id="Path_4825" data-name="Path 4825" d="M1783.07,529.3a6.459,6.459,0,0,0,.287,3.026,4.949,4.949,0,0,0,1.882-2.516,6.176,6.176,0,0,0-.536-3.1A6.034,6.034,0,0,0,1783.07,529.3Z" transform="translate(-1782.989 -526.707)" fill="#4e7158"/>
        </g>
        <g id="Group_4193" data-name="Group 4193" transform="translate(2.067 16.614)">
          <path id="Path_4826" data-name="Path 4826" d="M1723.306,649.727c-1.658.3-4.458-1.377-4.431-1.779.038-.552,3.1-2.5,4.934-2.933,1.6-.374,4.644.567,4.709.958C1728.622,646.6,1725.415,649.34,1723.306,649.727Z" transform="translate(-1718.875 -644.928)" fill="#4e7158"/>
        </g>
        <g id="Group_4194" data-name="Group 4194" transform="translate(7.128 10.56)">
          <path id="Path_4827" data-name="Path 4827" d="M1758.745,605.978c-1.262.508-3.8-.3-3.856-.632-.074-.459,2.006-2.53,3.408-3.185,1.2-.56,3.821-.262,3.933.045C1762.4,602.685,1760.343,605.334,1758.745,605.978Z" transform="translate(-1754.886 -601.846)" fill="#4e7158"/>
        </g>
        <g id="Group_4195" data-name="Group 4195" transform="translate(10.262 5.646)">
          <path id="Path_4828" data-name="Path 4828" d="M1779.849,569.8a3.54,3.54,0,0,1-2.656.05,5.386,5.386,0,0,1,1.91-2.528,4.029,4.029,0,0,1,2.649-.33C1781.9,567.264,1780.806,569.2,1779.849,569.8Z" transform="translate(-1777.186 -566.884)" fill="#4e7158"/>
        </g>
      </g>
    </g>
    <g id="Group_4207" data-name="Group 4207" transform="translate(-5167.761 14548.006)">
      <g id="Group_4206" data-name="Group 4206" transform="translate(0 0)">
        <g id="Group_4198" data-name="Group 4198" transform="translate(2.926 4.837)">
          <path id="Path_4829" data-name="Path 4829" d="M759.283,739.138l.484-.149A33.4,33.4,0,0,0,771.2,755.126l-.3.4A33.927,33.927,0,0,1,759.283,739.138Z" transform="translate(-759.283 -738.99)" fill="#4e7158"/>
        </g>
        <g id="Group_4199" data-name="Group 4199" transform="translate(10.177 10.856)">
          <path id="Path_4830" data-name="Path 4830" d="M815.119,786.235c.086,1.568-1.259,4.333-1.639,4.358-.53.035-2.645-2.976-2.6-4.829.041-1.631,2.024-4.006,2.4-3.946C813.755,781.894,815.032,784.642,815.119,786.235Z" transform="translate(-810.881 -781.818)" fill="#4e7158"/>
        </g>
        <g id="Group_4200" data-name="Group 4200" transform="translate(6.448 6.915)">
          <path id="Path_4831" data-name="Path 4831" d="M787.738,757.735c-.206,1.272-1.816,3.236-2.123,3.185-.44-.073-1.51-2.813-1.215-4.324a4.979,4.979,0,0,1,2.563-2.814C787.337,753.915,787.951,756.424,787.738,757.735Z" transform="translate(-784.35 -753.777)" fill="#4e7158"/>
        </g>
        <g id="Group_4201" data-name="Group 4201" transform="translate(4.112 3.854)">
          <path id="Path_4832" data-name="Path 4832" d="M770.009,734.868a3.8,3.8,0,0,1-1.821,1.879,4.369,4.369,0,0,1-.314-3.069,3.653,3.653,0,0,1,2-1.678A4.846,4.846,0,0,1,770.009,734.868Z" transform="translate(-767.726 -731.992)" fill="#4e7158"/>
        </g>
        <g id="Group_4202" data-name="Group 4202" transform="translate(1.469)">
          <path id="Path_4833" data-name="Path 4833" d="M751.132,707.164a6.459,6.459,0,0,1-.287,3.026,4.949,4.949,0,0,1-1.882-2.517,6.177,6.177,0,0,1,.536-3.1A6.04,6.04,0,0,1,751.132,707.164Z" transform="translate(-748.918 -704.57)" fill="#4e7158"/>
        </g>
        <g id="Group_4203" data-name="Group 4203" transform="translate(3.129 16.614)">
          <path id="Path_4834" data-name="Path 4834" d="M765.947,827.59c1.658.3,4.458-1.378,4.431-1.779-.038-.553-3.1-2.5-4.934-2.933-1.6-.374-4.644.567-4.709.958C760.631,824.462,763.839,827.2,765.947,827.59Z" transform="translate(-760.733 -822.791)" fill="#4e7158"/>
        </g>
        <g id="Group_4204" data-name="Group 4204" transform="translate(0.36 10.56)">
          <path id="Path_4835" data-name="Path 4835" d="M744.525,783.841c1.262.508,3.8-.3,3.856-.632.074-.459-2.006-2.53-3.408-3.185-1.2-.56-3.821-.262-3.933.044C740.864,780.549,742.926,783.2,744.525,783.841Z" transform="translate(-741.029 -779.71)" fill="#4e7158"/>
        </g>
        <g id="Group_4205" data-name="Group 4205" transform="translate(0 5.646)">
          <path id="Path_4836" data-name="Path 4836" d="M740.383,747.659a3.541,3.541,0,0,0,2.656.05,5.383,5.383,0,0,0-1.909-2.528,4.029,4.029,0,0,0-2.649-.33C738.33,745.127,739.426,747.067,740.383,747.659Z" transform="translate(-738.466 -744.747)" fill="#4e7158"/>
        </g>
      </g>
    </g>
    <g id="Group_4217" data-name="Group 4217" transform="translate(-5116.675 14541.096)">
      <g id="Group_4216" data-name="Group 4216" transform="translate(0 0)">
        <g id="Group_4208" data-name="Group 4208" transform="translate(2.926 4.837)">
          <path id="Path_4837" data-name="Path 4837" d="M1122.8,689.973l.484-.148a33.4,33.4,0,0,0,11.432,16.136l-.3.4A33.926,33.926,0,0,1,1122.8,689.973Z" transform="translate(-1122.799 -689.825)" fill="#4e7158"/>
        </g>
        <g id="Group_4209" data-name="Group 4209" transform="translate(10.177 10.856)">
          <path id="Path_4838" data-name="Path 4838" d="M1178.635,737.069c.086,1.568-1.259,4.333-1.639,4.358-.53.035-2.645-2.976-2.6-4.829.041-1.631,2.024-4.006,2.4-3.946C1177.271,732.728,1178.548,735.476,1178.635,737.069Z" transform="translate(-1174.397 -732.652)" fill="#4e7158"/>
        </g>
        <g id="Group_4210" data-name="Group 4210" transform="translate(6.448 6.915)">
          <path id="Path_4839" data-name="Path 4839" d="M1151.253,708.569c-.206,1.272-1.815,3.236-2.123,3.185-.44-.073-1.51-2.813-1.214-4.324a4.979,4.979,0,0,1,2.563-2.814C1150.852,704.749,1151.466,707.258,1151.253,708.569Z" transform="translate(-1147.865 -704.611)" fill="#4e7158"/>
        </g>
        <g id="Group_4211" data-name="Group 4211" transform="translate(4.112 3.854)">
          <path id="Path_4840" data-name="Path 4840" d="M1133.524,685.7a3.8,3.8,0,0,1-1.821,1.879,4.37,4.37,0,0,1-.314-3.069,3.655,3.655,0,0,1,2-1.678A4.85,4.85,0,0,1,1133.524,685.7Z" transform="translate(-1131.241 -682.826)" fill="#4e7158"/>
        </g>
        <g id="Group_4212" data-name="Group 4212" transform="translate(1.469)">
          <path id="Path_4841" data-name="Path 4841" d="M1114.647,658a6.46,6.46,0,0,1-.287,3.026,4.951,4.951,0,0,1-1.882-2.516,6.177,6.177,0,0,1,.536-3.1A6.043,6.043,0,0,1,1114.647,658Z" transform="translate(-1112.433 -655.404)" fill="#4e7158"/>
        </g>
        <g id="Group_4213" data-name="Group 4213" transform="translate(3.129 16.614)">
          <path id="Path_4842" data-name="Path 4842" d="M1129.463,778.424c1.658.3,4.458-1.378,4.431-1.779-.038-.553-3.1-2.5-4.934-2.933-1.6-.374-4.644.567-4.709.958C1124.147,775.3,1127.354,778.037,1129.463,778.424Z" transform="translate(-1124.249 -773.625)" fill="#4e7158"/>
        </g>
        <g id="Group_4214" data-name="Group 4214" transform="translate(0.36 10.56)">
          <path id="Path_4843" data-name="Path 4843" d="M1108.04,734.675c1.262.508,3.8-.3,3.856-.632.074-.459-2.006-2.53-3.408-3.185-1.2-.56-3.821-.262-3.933.045C1104.38,731.383,1106.442,734.031,1108.04,734.675Z" transform="translate(-1104.545 -730.544)" fill="#4e7158"/>
        </g>
        <g id="Group_4215" data-name="Group 4215" transform="translate(0 5.646)">
          <path id="Path_4844" data-name="Path 4844" d="M1103.9,698.494a3.54,3.54,0,0,0,2.656.05,5.379,5.379,0,0,0-1.909-2.528,4.03,4.03,0,0,0-2.65-.33C1101.845,695.962,1102.941,697.9,1103.9,698.494Z" transform="translate(-1101.981 -695.582)" fill="#4e7158"/>
        </g>
      </g>
    </g>
    <g id="Group_4218" data-name="Group 4218" transform="translate(-5093.28 14514.863)">
      <path id="Path_4845" data-name="Path 4845" d="M1302.25,498.469c-2.825-1.34-5.107-3.9-7.032-6.3q-.783-.978-1.486-2.017" transform="translate(-1290.179 -487.14)" fill="none" stroke="#b24029" stroke-miterlimit="10" stroke-width="1.028"/>
      <path id="Path_4846" data-name="Path 4846" d="M1310.763,481.138a39.758,39.758,0,0,0,1,5.421" transform="translate(-1304.816 -479.396)" fill="none" stroke="#b24029" stroke-miterlimit="10" stroke-width="1.028"/>
      <path id="Path_4847" data-name="Path 4847" d="M1282.226,506.538a24.116,24.116,0,0,1,4.086.916" transform="translate(-1280.29 -501.226)" fill="none" stroke="#b24029" stroke-miterlimit="10" stroke-width="1.028"/>
      <circle id="Ellipse_78" data-name="Ellipse 78" cx="1.106" cy="1.106" r="1.106" transform="translate(2.021 1.262)" fill="#dfa161"/>
      <circle id="Ellipse_79" data-name="Ellipse 79" cx="1.106" cy="1.106" r="1.106" transform="translate(0.328 4.065)" fill="#dfa161"/>
      <path id="Path_4848" data-name="Path 4848" d="M1302.677,472.666a1.106,1.106,0,1,0,.847-1.315A1.106,1.106,0,0,0,1302.677,472.666Z" transform="translate(-1297.845 -470.963)" fill="#dfa161"/>
      <path id="Path_4849" data-name="Path 4849" d="M1286.116,477.339a1.064,1.064,0,0,0-.179-.315" transform="translate(-1283.479 -475.86)" fill="none" stroke="#b24029" stroke-miterlimit="10" stroke-width="1.028"/>
      <path id="Path_4850" data-name="Path 4850" d="M1309.236,468.741a2.986,2.986,0,0,1,.022.529" transform="translate(-1303.504 -468.741)" fill="none" stroke="#b24029" stroke-miterlimit="10" stroke-width="1.028"/>
      <path id="Path_4851" data-name="Path 4851" d="M1268.966,504.889l-.518-.087" transform="translate(-1268.448 -499.734)" fill="none" stroke="#b24029" stroke-miterlimit="10" stroke-width="1.028"/>
      <path id="Path_4852" data-name="Path 4852" d="M1313.963,473.821a1.141,1.141,0,0,1,.428.6" transform="translate(-1307.566 -473.107)" fill="none" stroke="#efb47f" stroke-miterlimit="10" stroke-width="0.413"/>
      <path id="Path_4853" data-name="Path 4853" d="M1293.514,480.656a.8.8,0,0,0-.52-.544" transform="translate(-1289.544 -478.514)" fill="none" stroke="#efb47f" stroke-miterlimit="10" stroke-width="0.413"/>
      <path id="Path_4854" data-name="Path 4854" d="M1280.608,500.194a.906.906,0,0,0-.573-.38" transform="translate(-1278.407 -495.448)" fill="none" stroke="#efb47f" stroke-miterlimit="10" stroke-width="0.413"/>
      <path id="Path_4855" data-name="Path 4855" d="M1285.3,488.619a.807.807,0,0,1-.319-.174,1.611,1.611,0,0,1-.265-.338" transform="translate(-1282.429 -485.385)" fill="none" stroke="#ba7d45" stroke-miterlimit="10" stroke-width="0.413"/>
      <path id="Path_4856" data-name="Path 4856" d="M1304.715,481.661a1.226,1.226,0,0,1-1.068-.718" transform="translate(-1298.7 -479.228)" fill="none" stroke="#ba7d45" stroke-miterlimit="10" stroke-width="0.413"/>
      <path id="Path_4857" data-name="Path 4857" d="M1272.729,508.921a1.22,1.22,0,0,0,.341.325.859.859,0,0,0,.22.079,1.016,1.016,0,0,0,.461.011.623.623,0,0,0,.379-.25" transform="translate(-1272.127 -503.274)" fill="none" stroke="#ba7d45" stroke-miterlimit="10" stroke-width="0.413"/>
      <path id="Path_4858" data-name="Path 4858" d="M1296.839,529.911a16.993,16.993,0,0,0,4.579.343" transform="translate(-1292.849 -521.314)" fill="none" stroke="#b24029" stroke-miterlimit="10" stroke-width="1.028"/>
      <circle id="Ellipse_80" data-name="Ellipse 80" cx="1.106" cy="1.106" r="1.106" transform="translate(2.379 7.367)" fill="#dfa161"/>
      <path id="Path_4859" data-name="Path 4859" d="M1283.562,528.386l-.518-.087" transform="translate(-1280.993 -519.929)" fill="none" stroke="#b24029" stroke-miterlimit="10" stroke-width="1.028"/>
      <path id="Path_4860" data-name="Path 4860" d="M1295.2,523.69a.906.906,0,0,0-.573-.379" transform="translate(-1290.952 -515.642)" fill="none" stroke="#efb47f" stroke-miterlimit="10" stroke-width="0.413"/>
      <path id="Path_4861" data-name="Path 4861" d="M1287.325,532.418a1.22,1.22,0,0,0,.341.325.864.864,0,0,0,.22.079,1.019,1.019,0,0,0,.461.011.622.622,0,0,0,.379-.25" transform="translate(-1284.672 -523.469)" fill="none" stroke="#ba7d45" stroke-miterlimit="10" stroke-width="0.413"/>
    </g>
    <g id="Group_4219" data-name="Group 4219" transform="translate(-5114.053 14532.958)">
      <path id="Path_4862" data-name="Path 4862" d="M1153.964,623.806c-2-2.4-3-5.684-3.732-8.674q-.3-1.217-.5-2.455" transform="translate(-1145.641 -610.543)" fill="none" stroke="#b24029" stroke-miterlimit="10" stroke-width="1.028"/>
      <path id="Path_4863" data-name="Path 4863" d="M1160.579,611.659a39.75,39.75,0,0,0-1.372,5.339" transform="translate(-1153.785 -609.668)" fill="none" stroke="#b24029" stroke-miterlimit="10" stroke-width="1.028"/>
      <path id="Path_4864" data-name="Path 4864" d="M1132.4,622.712a24.088,24.088,0,0,1,3.323,2.548" transform="translate(-1130.748 -619.168)" fill="none" stroke="#b24029" stroke-miterlimit="10" stroke-width="1.028"/>
      <path id="Path_4865" data-name="Path 4865" d="M1141.122,600.037a1.106,1.106,0,1,0,1.469-.539A1.106,1.106,0,0,0,1141.122,600.037Z" transform="translate(-1138.153 -599.129)" fill="#dfa161"/>
      <path id="Path_4866" data-name="Path 4866" d="M1121.81,613.07a1.106,1.106,0,1,0,1.468-.539A1.106,1.106,0,0,0,1121.81,613.07Z" transform="translate(-1121.555 -610.33)" fill="#dfa161"/>
      <circle id="Ellipse_81" data-name="Ellipse 81" cx="1.106" cy="1.106" r="1.106" transform="translate(5.401 1.215) rotate(-25.785)" fill="#dfa161"/>
      <path id="Path_4867" data-name="Path 4867" d="M1148.2,597.853a1.058,1.058,0,0,0-.03-.361" transform="translate(-1144.303 -597.492)" fill="none" stroke="#b24029" stroke-miterlimit="10" stroke-width="1.028"/>
      <path id="Path_4868" data-name="Path 4868" d="M1171.556,599.769a3,3,0,0,1-.2.489" transform="translate(-1164.224 -599.449)" fill="none" stroke="#b24029" stroke-miterlimit="10" stroke-width="1.028"/>
      <path id="Path_4869" data-name="Path 4869" d="M1121.063,615.641l-.434-.3" transform="translate(-1120.629 -612.836)" fill="none" stroke="#b24029" stroke-miterlimit="10" stroke-width="1.028"/>
      <path id="Path_4870" data-name="Path 4870" d="M1174.951,606.364a1.142,1.142,0,0,1,.134.728" transform="translate(-1167.317 -605.117)" fill="none" stroke="#efb47f" stroke-miterlimit="10" stroke-width="0.413"/>
      <path id="Path_4871" data-name="Path 4871" d="M1153.523,603.972a.8.8,0,0,0-.243-.712" transform="translate(-1148.691 -602.449)" fill="none" stroke="#efb47f" stroke-miterlimit="10" stroke-width="0.413"/>
      <path id="Path_4872" data-name="Path 4872" d="M1133.6,616.275a.906.906,0,0,0-.36-.585" transform="translate(-1131.467 -613.133)" fill="none" stroke="#efb47f" stroke-miterlimit="10" stroke-width="0.413"/>
      <path id="Path_4873" data-name="Path 4873" d="M1142.721,607.744a.81.81,0,0,1-.216-.292,1.623,1.623,0,0,1-.1-.418" transform="translate(-1139.346 -605.693)" fill="none" stroke="#ba7d45" stroke-miterlimit="10" stroke-width="0.413"/>
      <path id="Path_4874" data-name="Path 4874" d="M1163.263,609.592a1.226,1.226,0,0,1-.667-1.1" transform="translate(-1156.698 -606.946)" fill="none" stroke="#ba7d45" stroke-miterlimit="10" stroke-width="0.413"/>
      <path id="Path_4875" data-name="Path 4875" d="M1122.782,620.882a1.221,1.221,0,0,0,.173.438.868.868,0,0,0,.167.164,1.019,1.019,0,0,0,.414.2.622.622,0,0,0,.449-.068" transform="translate(-1122.479 -617.595)" fill="none" stroke="#ba7d45" stroke-miterlimit="10" stroke-width="0.413"/>
      <path id="Path_4876" data-name="Path 4876" d="M1135.837,650.062a16.993,16.993,0,0,0,4.01,2.235" transform="translate(-1133.7 -642.674)" fill="none" stroke="#b24029" stroke-miterlimit="10" stroke-width="1.028"/>
      <path id="Path_4877" data-name="Path 4877" d="M1125.178,640.525a1.106,1.106,0,1,0,1.468-.539A1.106,1.106,0,0,0,1125.178,640.525Z" transform="translate(-1124.45 -633.927)" fill="#dfa161"/>
      <path id="Path_4878" data-name="Path 4878" d="M1124.431,643.1l-.434-.3" transform="translate(-1123.524 -636.433)" fill="none" stroke="#b24029" stroke-miterlimit="10" stroke-width="1.028"/>
      <path id="Path_4879" data-name="Path 4879" d="M1136.968,643.731a.906.906,0,0,0-.36-.585" transform="translate(-1134.362 -636.73)" fill="none" stroke="#efb47f" stroke-miterlimit="10" stroke-width="0.413"/>
      <path id="Path_4880" data-name="Path 4880" d="M1126.151,648.337a1.217,1.217,0,0,0,.173.438.853.853,0,0,0,.167.164,1.016,1.016,0,0,0,.414.2.622.622,0,0,0,.449-.068" transform="translate(-1125.375 -641.191)" fill="none" stroke="#ba7d45" stroke-miterlimit="10" stroke-width="0.413"/>
    </g>
    <g id="Group_4220" data-name="Group 4220" transform="translate(-5043.565 14498.067)">
      <path id="Path_4881" data-name="Path 4881" d="M1641.273,376.69c-.056-3.127,1.221-6.308,2.518-9.1q.528-1.136,1.146-2.228" transform="translate(-1638.591 -363.094)" fill="none" stroke="#b24029" stroke-miterlimit="10" stroke-width="1.028"/>
      <path id="Path_4882" data-name="Path 4882" d="M1656.022,376.609a39.692,39.692,0,0,0-4.412,3.305" transform="translate(-1647.477 -372.761)" fill="none" stroke="#b24029" stroke-miterlimit="10" stroke-width="1.028"/>
      <path id="Path_4883" data-name="Path 4883" d="M1647.561,362.342a24.117,24.117,0,0,1,1,4.068" transform="translate(-1643.997 -360.499)" fill="none" stroke="#b24029" stroke-miterlimit="10" stroke-width="1.028"/>
      <path id="Path_4884" data-name="Path 4884" d="M1662.831,352.859a1.106,1.106,0,1,0,1.483.5A1.106,1.106,0,0,0,1662.831,352.859Z" transform="translate(-1656.593 -352.25)" fill="#dfa161"/>
      <path id="Path_4885" data-name="Path 4885" d="M1639.612,350.938a1.106,1.106,0,1,0,1.482.5A1.106,1.106,0,0,0,1639.612,350.938Z" transform="translate(-1636.636 -350.599)" fill="#dfa161"/>
      <circle id="Ellipse_82" data-name="Ellipse 82" cx="1.106" cy="1.106" r="1.106" transform="translate(7.234 3.426) rotate(-35.041)" fill="#dfa161"/>
      <path id="Path_4886" data-name="Path 4886" d="M1674.2,352.843a1.062,1.062,0,0,0,.2-.3" transform="translate(-1666.895 -352.076)" fill="none" stroke="#b24029" stroke-miterlimit="10" stroke-width="1.028"/>
      <path id="Path_4887" data-name="Path 4887" d="M1690.585,369.729a2.99,2.99,0,0,1-.464.255" transform="translate(-1680.576 -366.848)" fill="none" stroke="#b24029" stroke-miterlimit="10" stroke-width="1.028"/>
      <path id="Path_4888" data-name="Path 4888" d="M1643.142,349.731l-.153-.5" transform="translate(-1640.067 -349.229)" fill="none" stroke="#b24029" stroke-miterlimit="10" stroke-width="1.028"/>
      <path id="Path_4889" data-name="Path 4889" d="M1688.831,376.221a1.143,1.143,0,0,1-.351.652" transform="translate(-1679.165 -372.428)" fill="none" stroke="#efb47f" stroke-miterlimit="10" stroke-width="0.413"/>
      <path id="Path_4890" data-name="Path 4890" d="M1674.2,360.945a.8.8,0,0,0,.256-.708" transform="translate(-1666.889 -358.69)" fill="none" stroke="#efb47f" stroke-miterlimit="10" stroke-width="0.413"/>
      <path id="Path_4891" data-name="Path 4891" d="M1652,358.072a.9.9,0,0,0,.085-.682" transform="translate(-1647.813 -356.243)" fill="none" stroke="#efb47f" stroke-miterlimit="10" stroke-width="0.413"/>
      <path id="Path_4892" data-name="Path 4892" d="M1663.67,357.127a.8.8,0,0,1,.014-.363,1.6,1.6,0,0,1,.185-.388" transform="translate(-1657.83 -355.372)" fill="none" stroke="#ba7d45" stroke-miterlimit="10" stroke-width="0.413"/>
      <path id="Path_4893" data-name="Path 4893" d="M1678.158,371.424a1.227,1.227,0,0,1,.168-1.276" transform="translate(-1670.202 -367.208)" fill="none" stroke="#ba7d45" stroke-miterlimit="10" stroke-width="0.413"/>
      <path id="Path_4894" data-name="Path 4894" d="M1640.348,354.895a1.213,1.213,0,0,0-.14.45.858.858,0,0,0,.027.232,1.02,1.02,0,0,0,.2.418.622.622,0,0,0,.393.228" transform="translate(-1637.677 -354.099)" fill="none" stroke="#ba7d45" stroke-miterlimit="10" stroke-width="0.413"/>
      <path id="Path_4895" data-name="Path 4895" d="M1633.123,385.824a17,17,0,0,0,1.729,4.253" transform="translate(-1631.588 -380.681)" fill="none" stroke="#b24029" stroke-miterlimit="10" stroke-width="1.028"/>
      <circle id="Ellipse_83" data-name="Ellipse 83" cx="1.106" cy="1.106" r="1.106" transform="matrix(0.938, -0.348, 0.348, 0.938, 0, 3.983)" fill="#dfa161"/>
      <path id="Path_4896" data-name="Path 4896" d="M1628.586,373.253l-.153-.5" transform="translate(-1627.557 -369.445)" fill="none" stroke="#b24029" stroke-miterlimit="10" stroke-width="1.028"/>
      <path id="Path_4897" data-name="Path 4897" d="M1637.447,381.594a.906.906,0,0,0,.085-.682" transform="translate(-1635.304 -376.459)" fill="none" stroke="#efb47f" stroke-miterlimit="10" stroke-width="0.413"/>
      <path id="Path_4898" data-name="Path 4898" d="M1625.792,378.417a1.219,1.219,0,0,0-.14.45.863.863,0,0,0,.027.232,1.02,1.02,0,0,0,.2.418.623.623,0,0,0,.393.228" transform="translate(-1625.167 -374.315)" fill="none" stroke="#ba7d45" stroke-miterlimit="10" stroke-width="0.413"/>
    </g>
    <g id="Group_4223" data-name="Group 4223" transform="translate(-5085.698 14503.513)">
      <rect id="Rectangle_3384" data-name="Rectangle 3384" width="58.277" height="74.488" rx="22.979" transform="translate(1.882 0)" fill="#b24029"/>
      <path id="Path_4899" data-name="Path 4899" d="M1408.425,413.5V480.81h-51.048a1.615,1.615,0,0,1-1.615-1.615V415.113a1.615,1.615,0,0,1,1.615-1.615Z" transform="translate(-1351.073 -409.91)" fill="#fafaf9"/>
      <rect id="Rectangle_3385" data-name="Rectangle 3385" width="51.231" height="74.488" rx="22.979" transform="translate(2.219 0)" fill="#ed755d"/>
      <path id="Path_4900" data-name="Path 4900" d="M1329.3,387.966v74.488h-3.677a3.228,3.228,0,0,1-3.229-3.229V391.2a3.228,3.228,0,0,1,3.229-3.229Z" transform="translate(-1322.393 -387.966)" fill="#d55a3c"/>
      <g id="Group_4221" data-name="Group 4221" transform="translate(10.868 8.366)">
        <path id="Path_4901" data-name="Path 4901" d="M1437.1,582.833v2.455a1.927,1.927,0,0,0-1.926,1.93h-33.521a1.925,1.925,0,0,0-1.926-1.93v-2.455" transform="translate(-1399.727 -563.813)" fill="none" stroke="#d55a3c" stroke-miterlimit="10" stroke-width="3.343"/>
        <path id="Path_4902" data-name="Path 4902" d="M1399.727,454.918v-5.5a1.925,1.925,0,0,0,1.926-1.93h33.521a1.927,1.927,0,0,0,1.926,1.93v5.5" transform="translate(-1399.727 -447.492)" fill="none" stroke="#d55a3c" stroke-miterlimit="10" stroke-width="3.343"/>
      </g>
      <g id="Group_4222" data-name="Group 4222" transform="translate(13.112 10.131)">
        <path id="Path_4903" data-name="Path 4903" d="M1628.379,460.056l.5,1.008,1.113.162-.805.785.19,1.108-1-.523-1,.523.19-1.108-.805-.785,1.113-.162Z" transform="translate(-1597.105 -460.056)" fill="#d55a3c"/>
        <path id="Path_4904" data-name="Path 4904" d="M1417.305,460.056l.5,1.008,1.113.162-.805.785.19,1.108-1-.523-1,.523.19-1.108-.805-.785,1.113-.162Z" transform="translate(-1415.694 -460.056)" fill="#d55a3c"/>
        <path id="Path_4905" data-name="Path 4905" d="M1628.379,579.675l.5,1.008,1.113.162-.805.785.19,1.108-1-.523-1,.523.19-1.108-.805-.785,1.113-.162Z" transform="translate(-1597.105 -562.864)" fill="#d55a3c"/>
        <path id="Path_4906" data-name="Path 4906" d="M1417.305,579.675l.5,1.008,1.113.162-.805.785.19,1.108-1-.523-1,.523.19-1.108-.805-.785,1.113-.162Z" transform="translate(-1415.694 -562.864)" fill="#d55a3c"/>
      </g>
      <line id="Line_117" data-name="Line 117" y2="67.312" transform="translate(56.207 3.588)" fill="none" stroke="#e2d6d0" stroke-miterlimit="10" stroke-width="3.343"/>
      <line id="Line_118" data-name="Line 118" y2="67.312" transform="translate(55.191 3.588)" fill="none" stroke="#e2d6d0" stroke-miterlimit="10" stroke-width="3.343"/>
      <line id="Line_119" data-name="Line 119" y2="67.312" transform="translate(54.176 3.588)" fill="none" stroke="#e2d6d0" stroke-miterlimit="10" stroke-width="3.343"/>
      <line id="Line_120" data-name="Line 120" y2="72.758" transform="translate(5.836 0.781)" fill="none" stroke="#ed755d" stroke-miterlimit="10" stroke-width="3.343"/>
    </g>
    <g id="Group_4229" data-name="Group 4229" transform="translate(-5111.221 14565.801)">
      <path id="Rectangle_3386" data-name="Rectangle 3386" d="M6.105,0H59.7a0,0,0,0,1,0,0V12.211a0,0,0,0,1,0,0H6.105A6.105,6.105,0,0,1,0,6.105v0A6.105,6.105,0,0,1,6.105,0Z" transform="translate(0 0)" fill="#5f8469"/>
      <path id="Path_4907" data-name="Path 4907" d="M1259.3,842.079v-9.561h1.325v-1.325h-59.457a6.105,6.105,0,0,0-6.105,6.105h0a6.105,6.105,0,0,0,6.105,6.105h59.457v-1.325Z" transform="translate(-1187.432 -831.193)" fill="#4e7158"/>
      <path id="Path_4908" data-name="Path 4908" d="M1209.266,850.179a4.781,4.781,0,1,1,0-9.561H1267.4v9.561Z" transform="translate(-1195.533 -839.293)" fill="#fafaf9"/>
      <g id="Group_4228" data-name="Group 4228" transform="translate(10.366 3.479)">
        <g id="Group_4224" data-name="Group 4224" transform="translate(0.81)">
          <rect id="Rectangle_3387" data-name="Rectangle 3387" width="60.69" height="0.607" fill="#e2d6d0"/>
        </g>
        <g id="Group_4225" data-name="Group 4225" transform="translate(0 1.55)">
          <rect id="Rectangle_3388" data-name="Rectangle 3388" width="61.501" height="0.607" fill="#e2d6d0"/>
        </g>
        <g id="Group_4226" data-name="Group 4226" transform="translate(0 3.097)">
          <rect id="Rectangle_3389" data-name="Rectangle 3389" width="61.501" height="0.607" fill="#e2d6d0"/>
        </g>
        <g id="Group_4227" data-name="Group 4227" transform="translate(0.808 4.645)">
          <rect id="Rectangle_3390" data-name="Rectangle 3390" width="60.693" height="0.607" fill="#e2d6d0"/>
        </g>
      </g>
    </g>
    <g id="Group_4235" data-name="Group 4235" transform="translate(-5106.333 14553.59)">
      <path id="Rectangle_3391" data-name="Rectangle 3391" d="M6.105,0H72.739a0,0,0,0,1,0,0V12.211a0,0,0,0,1,0,0H6.105A6.105,6.105,0,0,1,0,6.105v0A6.105,6.105,0,0,1,6.105,0Z" transform="translate(0 0)" fill="#a6bdf4"/>
      <path id="Path_4909" data-name="Path 4909" d="M1205.409,750.413a6.105,6.105,0,0,1,6.105-6.105h-29.841a6.105,6.105,0,1,0,0,12.21h29.841A6.105,6.105,0,0,1,1205.409,750.413Z" transform="translate(-1175.568 -744.308)" fill="#a6bdf4"/>
      <path id="Path_4910" data-name="Path 4910" d="M1193.941,766.779a4.1,4.1,0,1,1,0-8.2h22.844a8.1,8.1,0,0,0,0,8.2Z" transform="translate(-1187.836 -756.575)" fill="none" stroke="#89a3ef" stroke-miterlimit="10" stroke-width="4.111"/>
      <path id="Path_4911" data-name="Path 4911" d="M1390.709,750.413a6.105,6.105,0,0,1,6.105-6.105h-2.8a6.105,6.105,0,1,0,0,12.21h2.8A6.105,6.105,0,0,1,1390.709,750.413Z" transform="translate(-1358.066 -744.308)" fill="#89a3ef"/>
      <path id="Path_4912" data-name="Path 4912" d="M1473.716,755.193v-9.561h1.324v-1.325h-36.87a6.105,6.105,0,0,0-6.105,6.105h0a6.105,6.105,0,0,0,6.105,6.105h36.87v-1.325Z" transform="translate(-1396.018 -744.307)" fill="#89a3ef"/>
      <path id="Path_4913" data-name="Path 4913" d="M1446.271,763.293a4.781,4.781,0,1,1,0-9.561h35.545v9.561Z" transform="translate(-1404.118 -752.408)" fill="#fafaf9"/>
      <g id="Group_4234" data-name="Group 4234" transform="translate(38.785 3.479)">
        <g id="Group_4230" data-name="Group 4230" transform="translate(0.81)">
          <rect id="Rectangle_3392" data-name="Rectangle 3392" width="38.103" height="0.607" fill="#e2d6d0"/>
        </g>
        <g id="Group_4231" data-name="Group 4231" transform="translate(0 1.55)">
          <rect id="Rectangle_3393" data-name="Rectangle 3393" width="38.913" height="0.607" fill="#e2d6d0"/>
        </g>
        <g id="Group_4232" data-name="Group 4232" transform="translate(0 3.097)">
          <rect id="Rectangle_3394" data-name="Rectangle 3394" width="38.913" height="0.607" fill="#e2d6d0"/>
        </g>
        <g id="Group_4233" data-name="Group 4233" transform="translate(0.808 4.645)">
          <rect id="Rectangle_3395" data-name="Rectangle 3395" width="38.105" height="0.607" fill="#e2d6d0"/>
        </g>
      </g>
    </g>
    <g id="Group_4241" data-name="Group 4241" transform="translate(-5112.819 14541.867)">
      <path id="Rectangle_3396" data-name="Rectangle 3396" d="M6.105,0H72.739a0,0,0,0,1,0,0V12.211a0,0,0,0,1,0,0H6.105A6.105,6.105,0,0,1,0,6.105v0A6.105,6.105,0,0,1,6.105,0Z" transform="translate(79.022 12.211) rotate(-180)" fill="#efb47f"/>
      <path id="Path_4914" data-name="Path 4914" d="M1130.736,671.768v-9.561h-1.325v-1.325h28.344a6.105,6.105,0,0,1,6.105,6.105h0a6.105,6.105,0,0,1-6.105,6.105h-28.344v-1.324Z" transform="translate(-1129.411 -660.882)" fill="#dfa161"/>
      <path id="Path_4915" data-name="Path 4915" d="M1375.67,660.881H1331.1a6.105,6.105,0,0,1,6.105,6.105h0a6.105,6.105,0,0,1-6.105,6.105h44.573a6.105,6.105,0,0,0,6.105-6.105h0A6.105,6.105,0,0,0,1375.67,660.881Z" transform="translate(-1302.753 -660.881)" fill="#efb47f"/>
      <path id="Path_4916" data-name="Path 4916" d="M1380.887,683.353a8.1,8.1,0,0,0,0-8.2h37.576a4.1,4.1,0,1,1,0,8.2Z" transform="translate(-1345.546 -673.148)" fill="none" stroke="#dfa161" stroke-miterlimit="10" stroke-width="4.933"/>
      <path id="Path_4917" data-name="Path 4917" d="M1492.987,692.56a4.543,4.543,0,0,0,0-4.6h21.076a2.3,2.3,0,1,1,0,4.6Z" transform="translate(-1441.892 -684.156)" fill="#dfa161"/>
      <path id="Path_4918" data-name="Path 4918" d="M1165.856,679.868a4.781,4.781,0,0,0,0-9.561h-27.019v9.561Z" transform="translate(-1137.512 -668.982)" fill="#fafaf9"/>
      <g id="Group_4240" data-name="Group 4240" transform="translate(1.324 3.479)">
        <g id="Group_4236" data-name="Group 4236">
          <rect id="Rectangle_3397" data-name="Rectangle 3397" width="29.577" height="0.607" fill="#e2d6d0"/>
        </g>
        <g id="Group_4237" data-name="Group 4237" transform="translate(0 1.55)">
          <rect id="Rectangle_3398" data-name="Rectangle 3398" width="30.388" height="0.607" fill="#e2d6d0"/>
        </g>
        <g id="Group_4238" data-name="Group 4238" transform="translate(0 3.097)">
          <rect id="Rectangle_3399" data-name="Rectangle 3399" width="30.388" height="0.607" fill="#e2d6d0"/>
        </g>
        <g id="Group_4239" data-name="Group 4239" transform="translate(0 4.645)">
          <rect id="Rectangle_3400" data-name="Rectangle 3400" width="29.58" height="0.607" fill="#e2d6d0"/>
        </g>
      </g>
      <path id="Path_4919" data-name="Path 4919" d="M1416.013,683.353a8.1,8.1,0,0,0,0-8.2" transform="translate(-1375.735 -673.148)" fill="none" stroke="#dfa161" stroke-miterlimit="10" stroke-width="4.933"/>
      <path id="Path_4920" data-name="Path 4920" d="M1434.05,683.353a8.1,8.1,0,0,0,0-8.2" transform="translate(-1391.237 -673.148)" fill="none" stroke="#dfa161" stroke-miterlimit="10" stroke-width="4.933"/>
    </g>
    <g id="Group_4242" data-name="Group 4242" transform="translate(-5140.766 14511.776)">
      <rect id="Rectangle_3401" data-name="Rectangle 3401" width="67.206" height="8.718" rx="4.359" transform="translate(8.718 0) rotate(90)" fill="#ed755d"/>
      <path id="Rectangle_3402" data-name="Rectangle 3402" d="M2.867,0H29.521a2.867,2.867,0,0,1,2.867,2.867v0a2.867,2.867,0,0,1-2.867,2.867H2.867A2.867,2.867,0,0,1,0,2.867v0A2.867,2.867,0,0,1,2.867,0Z" transform="translate(7.226 17.409) rotate(90)" fill="none" stroke="#d55a3c" stroke-miterlimit="10" stroke-width="2.855"/>
      <rect id="Rectangle_3403" data-name="Rectangle 3403" width="3.736" height="11.474" rx="1.868" transform="translate(2.491 3.013)" fill="#d55a3c"/>
      <rect id="Rectangle_3404" data-name="Rectangle 3404" width="2.135" height="29.042" rx="1.068" transform="translate(3.292 19.082)" fill="#d55a3c"/>
      <rect id="Rectangle_3405" data-name="Rectangle 3405" width="8.175" height="5.734" rx="2.867" transform="translate(7.226 55.263) rotate(90)" fill="none" stroke="#d55a3c" stroke-miterlimit="10" stroke-width="2.855"/>
    </g>
    <g id="Group_4243" data-name="Group 4243" transform="translate(-5157.89 14521.369)">
      <rect id="Rectangle_3406" data-name="Rectangle 3406" width="57.613" height="7.474" rx="3.737" transform="translate(7.474 0) rotate(90)" fill="#efb47f"/>
      <rect id="Rectangle_3407" data-name="Rectangle 3407" width="1.518" height="7.474" transform="translate(7.474 51.657) rotate(90)" fill="#dfa161"/>
      <rect id="Rectangle_3408" data-name="Rectangle 3408" width="1.518" height="7.474" transform="translate(7.474 47.877) rotate(90)" fill="#dfa161"/>
      <rect id="Rectangle_3409" data-name="Rectangle 3409" width="27.765" height="4.916" transform="translate(6.195 6.841) rotate(90)" fill="none" stroke="#dfa161" stroke-miterlimit="10" stroke-width="2.855"/>
      <path id="Path_4921" data-name="Path 4921" d="M822.722,791.352v-4.4a1.3,1.3,0,0,1-1.3-1.3h-2.31a1.3,1.3,0,0,1-1.3,1.3v4.4a1.3,1.3,0,0,1,1.3,1.3h2.31A1.3,1.3,0,0,1,822.722,791.352Z" transform="translate(-816.527 -747.616)" fill="#dfa161"/>
      <circle id="Ellipse_84" data-name="Ellipse 84" cx="0.934" cy="0.934" r="0.934" transform="translate(2.803 8.229)" fill="none" stroke="#dfa161" stroke-miterlimit="10" stroke-width="2.855"/>
      <circle id="Ellipse_85" data-name="Ellipse 85" cx="0.934" cy="0.934" r="0.934" transform="translate(2.803 11.298)" fill="none" stroke="#dfa161" stroke-miterlimit="10" stroke-width="2.855"/>
      <circle id="Ellipse_86" data-name="Ellipse 86" cx="0.934" cy="0.934" r="0.934" transform="translate(2.803 14.367)" fill="none" stroke="#dfa161" stroke-miterlimit="10" stroke-width="2.855"/>
      <rect id="Rectangle_3410" data-name="Rectangle 3410" width="1.512" height="13.876" transform="translate(2.981 18.992)" fill="#dfa161"/>
    </g>
    <g id="Group_4244" data-name="Group 4244" transform="translate(-5132.047 14516.285)">
      <rect id="Rectangle_3411" data-name="Rectangle 3411" width="62.697" height="13.15" rx="6.575" transform="translate(13.15 0) rotate(90)" fill="#efb47f"/>
      <path id="Path_4922" data-name="Path 4922" d="M1017.254,585.076V558.137a1.638,1.638,0,0,1-1.638-1.638h-5.374a1.638,1.638,0,0,1-1.638,1.638v26.939a1.638,1.638,0,0,1,1.638,1.638h5.374A1.638,1.638,0,0,1,1017.254,585.076Z" transform="translate(-1006.354 -545.587)" fill="none" stroke="#dfa161" stroke-miterlimit="10" stroke-width="2.855"/>
      <rect id="Rectangle_3412" data-name="Rectangle 3412" width="7.627" height="8.649" transform="translate(10.9 51.555) rotate(90)" fill="none" stroke="#dfa161" stroke-miterlimit="10" stroke-width="2.855"/>
      <rect id="Rectangle_3413" data-name="Rectangle 3413" width="1.388" height="13.15" transform="translate(13.15 46.376) rotate(90)" fill="#dfa161"/>
      <rect id="Rectangle_3414" data-name="Rectangle 3414" width="1.388" height="13.15" transform="translate(13.15 43.483) rotate(90)" fill="#dfa161"/>
      <rect id="Rectangle_3415" data-name="Rectangle 3415" width="8.628" height="1.957" transform="translate(2.261 6.865)" fill="#dfa161"/>
      <rect id="Rectangle_3416" data-name="Rectangle 3416" width="8.628" height="1.957" transform="translate(2.261 3.085)" fill="#dfa161"/>
    </g>
    <g id="Group_4245" data-name="Group 4245" transform="translate(-5150.417 14527.017)">
      <rect id="Rectangle_3417" data-name="Rectangle 3417" width="51.966" height="9.65" rx="4.825" transform="translate(9.65 0) rotate(90)" fill="#a6bdf4"/>
      <path id="Path_4923" data-name="Path 4923" d="M879.985,598.887V577.11a1.633,1.633,0,0,1-1.633-1.633h-3.08a1.633,1.633,0,0,1-1.633,1.633v21.777a1.633,1.633,0,0,1,1.633,1.633h3.08A1.633,1.633,0,0,1,879.985,598.887Z" transform="translate(-871.986 -572.629)" fill="none" stroke="#89a3ef" stroke-miterlimit="10" stroke-width="2.855"/>
      <circle id="Ellipse_87" data-name="Ellipse 87" cx="3.329" cy="3.329" r="3.329" transform="matrix(0.806, -0.591, 0.591, 0.806, 0.171, 42.636)" fill="none" stroke="#89a3ef" stroke-miterlimit="10" stroke-width="2.855"/>
      <rect id="Rectangle_3418" data-name="Rectangle 3418" width="8.072" height="1.334" transform="translate(0.789 32.335)" fill="#89a3ef"/>
      <rect id="Rectangle_3419" data-name="Rectangle 3419" width="8.072" height="1.334" transform="translate(0.789 35.203)" fill="#89a3ef"/>
    </g>
    <g id="Group_4247" data-name="Group 4247" transform="translate(-5130.508 14555.072)">
      <g id="Group_4246" data-name="Group 4246" transform="translate(0 0)">
        <path id="Path_4924" data-name="Path 4924" d="M1080.948,761.621a22.39,22.39,0,0,0-1.722,9.365" transform="translate(-1068.579 -760.669)" fill="none" stroke="#5f8469" stroke-linecap="round" stroke-miterlimit="10" stroke-width="5.332"/>
        <path id="Path_4925" data-name="Path 4925" d="M1052.8,759.489h0a4.644,4.644,0,0,1-4.644-4.644h0a4.644,4.644,0,0,1,4.644,4.644Z" transform="translate(-1041.888 -754.845)" fill="#5f8469"/>
        <path id="Path_4926" data-name="Path 4926" d="M1020.34,807.146a6.237,6.237,0,0,0-5.129,1.019,2.026,2.026,0,0,1-2.246,0,6.237,6.237,0,0,0-5.13-1.019c-3.61,1.012-5.269,5.7-3.7,10.472s5.76,7.819,9.371,6.807l.006,0a2.139,2.139,0,0,1,1.159,0l.006,0c3.61,1.012,7.806-2.035,9.371-6.807S1023.951,808.158,1020.34,807.146Z" transform="translate(-1003.542 -799.629)" fill="#d55a3c"/>
        <ellipse id="Ellipse_88" data-name="Ellipse 88" cx="2.438" cy="1.731" rx="2.438" ry="1.731" transform="translate(1.109 14.089) rotate(-74.184)" fill="#ed755d"/>
      </g>
    </g>
    <g id="Group_4270" data-name="Group 4270" transform="translate(-5110.283 14520.059)">
      <g id="Group_4269" data-name="Group 4269" transform="translate(0 0)">
        <path id="Path_4927" data-name="Path 4927" d="M1177.036,508.2c1.335-.437.848-1.438,1.34-1.839.753-.613,2.581-.65,4.218-.65s3.465.038,4.218.65c.492.4,0,1.4,1.34,1.839" transform="translate(-1172.88 -505.71)" fill="none" stroke="#d55a3c" stroke-linecap="round" stroke-miterlimit="10" stroke-width="5.332"/>
        <line id="Line_121" data-name="Line 121" y2="1.841" transform="translate(9.732 3.119)" fill="none" stroke="#d55a3c" stroke-linecap="round" stroke-miterlimit="10" stroke-width="5.332"/>
        <path id="Path_4928" data-name="Path 4928" d="M1228.231,522.341l1.671.713,2.25.961,1.671.713a2.7,2.7,0,0,0-1.42-3.535l-.636-.272a2.694,2.694,0,0,0-3.535,1.42Z" transform="translate(-1216.88 -518.596)" fill="#ed755d"/>
        <path id="Path_4929" data-name="Path 4929" d="M1239.655,539.259l-.777,1.82a1.871,1.871,0,0,1,1.045.446l.777-1.82Z" transform="translate(-1226.031 -534.544)" fill="#d55a3c"/>
        <path id="Path_4930" data-name="Path 4930" d="M1169.414,522.341l-1.671.713-2.25.961-1.671.713a2.7,2.7,0,0,1,1.42-3.535l.636-.272a2.694,2.694,0,0,1,3.535,1.42Z" transform="translate(-1161.337 -518.596)" fill="#ed755d"/>
        <path id="Path_4931" data-name="Path 4931" d="M1182.368,539.259l.777,1.82a1.872,1.872,0,0,0-1.045.446l-.777-1.82Z" transform="translate(-1176.564 -534.544)" fill="#d55a3c"/>
        <g id="Group_4250" data-name="Group 4250" transform="translate(3.168 19.085)">
          <g id="Group_4248" data-name="Group 4248" transform="translate(10.761)">
            <path id="Path_4932" data-name="Path 4932" d="M1248.83,642.879a1.015,1.015,0,0,1-1.883.759l-.373-.927a5.038,5.038,0,0,0,1.706-1.2Z" transform="translate(-1246.574 -641.512)" fill="#d55a3c"/>
          </g>
          <g id="Group_4249" data-name="Group 4249">
            <path id="Path_4933" data-name="Path 4933" d="M1170.078,642.879a1.015,1.015,0,0,0,1.883.759l.373-.927a5.041,5.041,0,0,1-1.707-1.2Z" transform="translate(-1170.004 -641.512)" fill="#d55a3c"/>
          </g>
        </g>
        <g id="Group_4251" data-name="Group 4251" transform="translate(0.832 3.994)">
          <path id="Path_4934" data-name="Path 4934" d="M1163.575,534.229a8.885,8.885,0,0,1,2.191,16.95,8.884,8.884,0,0,1-12.383-8.192,8.878,8.878,0,0,1,8.912-8.854A8.749,8.749,0,0,1,1163.575,534.229Z" transform="translate(-1153.383 -534.133)" fill="#ed755d"/>
        </g>
        <g id="Group_4252" data-name="Group 4252" transform="translate(0 3.163)">
          <circle id="Ellipse_89" data-name="Ellipse 89" cx="7.286" cy="7.286" r="7.286" transform="matrix(0.903, -0.431, 0.431, 0.903, 0, 6.276)" fill="#e2d6d0"/>
        </g>
        <g id="Group_4266" data-name="Group 4266" transform="translate(0.706 3.869)">
          <g id="Group_4253" data-name="Group 4253" transform="translate(0 0)">
            <circle id="Ellipse_90" data-name="Ellipse 90" cx="6.897" cy="6.897" r="6.897" transform="translate(0 5.264) rotate(-22.434)" fill="#fff"/>
          </g>
          <g id="Group_4254" data-name="Group 4254" transform="translate(8.474 2.532)">
            <path id="Path_4935" data-name="Path 4935" d="M1213.853,551.789a.534.534,0,1,1-.534-.534A.534.534,0,0,1,1213.853,551.789Z" transform="translate(-1212.786 -551.255)" fill="#e2d6d0"/>
          </g>
          <g id="Group_4255" data-name="Group 4255" transform="translate(5.503 3.328)">
            <path id="Path_4936" data-name="Path 4936" d="M1192.64,557.186a.534.534,0,1,1-.729-.2A.534.534,0,0,1,1192.64,557.186Z" transform="translate(-1191.644 -556.919)" fill="#e2d6d0"/>
          </g>
          <g id="Group_4256" data-name="Group 4256" transform="translate(3.328 5.503)">
            <path id="Path_4937" data-name="Path 4937" d="M1176.969,572.467a.534.534,0,1,1-.729.2A.534.534,0,0,1,1176.969,572.467Z" transform="translate(-1176.168 -572.396)" fill="#e2d6d0"/>
          </g>
          <g id="Group_4257" data-name="Group 4257" transform="translate(2.532 8.474)">
            <path id="Path_4938" data-name="Path 4938" d="M1171.038,593.538a.534.534,0,1,1-.534.534A.534.534,0,0,1,1171.038,593.538Z" transform="translate(-1170.504 -593.538)" fill="#e2d6d0"/>
          </g>
          <g id="Group_4258" data-name="Group 4258" transform="translate(3.328 11.445)">
            <path id="Path_4939" data-name="Path 4939" d="M1176.435,614.75a.534.534,0,1,1-.2.729A.533.533,0,0,1,1176.435,614.75Z" transform="translate(-1176.168 -614.678)" fill="#e2d6d0"/>
          </g>
          <g id="Group_4259" data-name="Group 4259" transform="translate(5.503 13.62)">
            <path id="Path_4940" data-name="Path 4940" d="M1191.716,630.421a.534.534,0,1,1,.2.729A.534.534,0,0,1,1191.716,630.421Z" transform="translate(-1191.644 -630.154)" fill="#e2d6d0"/>
          </g>
          <g id="Group_4260" data-name="Group 4260" transform="translate(8.474 14.416)">
            <path id="Path_4941" data-name="Path 4941" d="M1212.786,636.354a.534.534,0,1,1,.534.534A.534.534,0,0,1,1212.786,636.354Z" transform="translate(-1212.786 -635.82)" fill="#e2d6d0"/>
          </g>
          <g id="Group_4261" data-name="Group 4261" transform="translate(11.445 13.62)">
            <path id="Path_4942" data-name="Path 4942" d="M1234,630.955a.534.534,0,1,1,.729.2A.534.534,0,0,1,1234,630.955Z" transform="translate(-1233.927 -630.154)" fill="#e2d6d0"/>
          </g>
          <g id="Group_4262" data-name="Group 4262" transform="translate(13.62 11.445)">
            <path id="Path_4943" data-name="Path 4943" d="M1249.67,615.674a.534.534,0,1,1,.729-.2A.534.534,0,0,1,1249.67,615.674Z" transform="translate(-1249.403 -614.678)" fill="#e2d6d0"/>
          </g>
          <g id="Group_4263" data-name="Group 4263" transform="translate(14.416 8.474)">
            <path id="Path_4944" data-name="Path 4944" d="M1255.6,594.605a.534.534,0,1,1,.534-.534A.534.534,0,0,1,1255.6,594.605Z" transform="translate(-1255.069 -593.538)" fill="#e2d6d0"/>
          </g>
          <g id="Group_4264" data-name="Group 4264" transform="translate(13.62 5.503)">
            <path id="Path_4945" data-name="Path 4945" d="M1250.2,573.391a.534.534,0,1,1,.2-.729A.533.533,0,0,1,1250.2,573.391Z" transform="translate(-1249.403 -572.396)" fill="#e2d6d0"/>
          </g>
          <g id="Group_4265" data-name="Group 4265" transform="translate(11.445 3.328)">
            <path id="Path_4946" data-name="Path 4946" d="M1234.923,557.72a.534.534,0,1,1-.2-.729A.534.534,0,0,1,1234.923,557.72Z" transform="translate(-1233.927 -556.919)" fill="#e2d6d0"/>
          </g>
        </g>
        <g id="Group_4267" data-name="Group 4267" transform="translate(9.405 8.576)">
          <path id="Path_4947" data-name="Path 4947" d="M1216.534,573.328l-2.152-2.166.014-4.427.617,0-.014,4.172,1.972,1.985Z" transform="translate(-1214.382 -566.735)" fill="#4e7158"/>
        </g>
        <g id="Group_4268" data-name="Group 4268" transform="translate(8.986 12.149)">
          <path id="Path_4948" data-name="Path 4948" d="M1212.86,592.889a.727.727,0,1,1-.725-.73A.727.727,0,0,1,1212.86,592.889Z" transform="translate(-1211.405 -592.159)" fill="#4e7158"/>
        </g>
        <line id="Line_122" data-name="Line 122" x2="2.481" transform="translate(8.473 3.119)" fill="none" stroke="#d55a3c" stroke-linecap="round" stroke-miterlimit="10" stroke-width="5.332"/>
      </g>
    </g>
    <g id="Group_4271" data-name="Group 4271" transform="translate(-5164.364 14492.012)">
      <path id="Path_4949" data-name="Path 4949" d="M1305.181,365.037l.7,1.777,1.777.7-1.777.7-.7,1.777-.7-1.777-1.777-.7,1.777-.7Z" transform="translate(-1226.801 -356.759)" fill="#fafaf9"/>
      <path id="Path_4950" data-name="Path 4950" d="M1767.492,695.874l1.088,2.743,2.744,1.088-2.744,1.088-1.088,2.743-1.088-2.743-2.744-1.088,2.744-1.088Z" transform="translate(-1622.98 -641.101)" fill="#fafaf9"/>
      <path id="Path_4951" data-name="Path 4951" d="M1389.548,317.992l1.088,2.743,2.743,1.088-2.743,1.088-1.088,2.743-1.088-2.743-2.743-1.088,2.743-1.088Z" transform="translate(-1298.151 -316.326)" fill="#fafaf9"/>
      <path id="Path_4952" data-name="Path 4952" d="M911.705,378.276l1.088,2.743,2.743,1.088-2.743,1.088-1.088,2.743-1.088-2.743-2.744-1.088,2.744-1.088Z" transform="translate(-887.462 -368.138)" fill="#e2d6d0"/>
      <path id="Path_4953" data-name="Path 4953" d="M764.78,559.79l.61,1.538,1.538.61-1.538.61-.61,1.538-.61-1.538-1.538-.61,1.538-.61Z" transform="translate(-762.631 -524.142)" fill="#e2d6d0"/>
      <path id="Path_4954" data-name="Path 4954" d="M955.778,306.134l.61,1.538,1.538.61-1.538.61-.61,1.538-.61-1.538-1.538-.61,1.538-.61Z" transform="translate(-926.788 -306.134)" fill="#e2d6d0"/>
      <path id="Path_4955" data-name="Path 4955" d="M1806.086,518.968l.61,1.538,1.538.61-1.538.61-.61,1.538-.61-1.538-1.538-.61,1.538-.61Z" transform="translate(-1657.597 -489.057)" fill="#e2d6d0"/>
    </g>
  </g>
</svg>
