<svg xmlns="http://www.w3.org/2000/svg" xmlns:xlink="http://www.w3.org/1999/xlink" width="172.929" height="111.645" viewBox="0 0 172.929 111.645">
  <defs>
    <linearGradient id="linear-gradient" x1="0.061" y1="0.771" x2="1.013" y2="0.315" gradientUnits="objectBoundingBox">
      <stop offset="0.361" stop-color="#f5c91d"/>
      <stop offset="1" stop-color="#f18f23"/>
    </linearGradient>
    <linearGradient id="linear-gradient-2" x1="0.04" y1="0.864" x2="0.954" y2="-0.067" gradientUnits="objectBoundingBox">
      <stop offset="0" stop-color="#f18f23"/>
      <stop offset="0.738" stop-color="#f5c91d"/>
    </linearGradient>
    <linearGradient id="linear-gradient-3" x1="0.5" x2="0.5" y2="1" gradientUnits="objectBoundingBox">
      <stop offset="0" stop-color="#f5c91d"/>
      <stop offset="1" stop-color="#f18f23"/>
    </linearGradient>
    <linearGradient id="linear-gradient-4" x1="0.5" y1="0" x2="0.5" y2="1" xlink:href="#linear-gradient-3"/>
  </defs>
  <g id="Group_4649" data-name="Group 4649" transform="translate(-1541.88 -509.654)">
    <path id="Path_5122" data-name="Path 5122" d="M1901,1561.818c0,.658-.8,1.3-2.3,1.907-8.177,3.321-37.219,5.777-71.792,5.777-31.406,0-58.248-2.026-69.032-4.888-3.267-.866-5.06-1.81-5.06-2.8,0-.716.945-1.409,2.712-2.067,8.7-3.239,37.365-5.617,71.38-5.617,36.385,0,66.645,2.72,72.9,6.307.78.446,1.188.907,1.188,1.377Z" transform="translate(-191.495 -948.203)" fill="#cbd5e8"/>
    <g id="Group_4295" data-name="Group 4295" transform="translate(1557.377 546.298)">
      <path id="Path_5123" data-name="Path 5123" d="M1757.917,986.857a.16.16,0,0,0,.138-.2c-6.611-22.033-12.629-37.589-16.944-43.8-.1-.138-.165-.238-.191-.288a.16.16,0,0,0-.283.148,3.833,3.833,0,0,0,.212.322c4.3,6.187,10.3,21.711,16.9,43.713a.16.16,0,0,0,.167.113Z" transform="translate(-1737.797 -939.224)" fill="#52599a"/>
      <path id="Path_5124" data-name="Path 5124" d="M1710.306,909.685a2.068,2.068,0,1,0,2.525-1.851,1.566,1.566,0,0,0-2.525,1.851Z" transform="translate(-1710.003 -907.194)" fill="#52599a"/>
      <path id="Path_5125" data-name="Path 5125" d="M1766.561,946.011a2.116,2.116,0,1,0,3.068.923,1.6,1.6,0,0,0-3.068-.923Z" transform="translate(-1761.287 -941.397)" fill="#52599a"/>
      <path id="Path_5126" data-name="Path 5126" d="M1719.133,980.563a8.219,8.219,0,0,0,3.6-1.37,8.219,8.219,0,0,0-3.387-1.826,1.6,1.6,0,0,0-.209,3.2Z" transform="translate(-1716.932 -970.895)" fill="#52599a"/>
      <path id="Path_5127" data-name="Path 5127" d="M1846.255,1099.525c-.579,1.368-.2,6.291.188,6.456s4.186-2.993,4.765-4.36a2.688,2.688,0,0,0-4.952-2.1Z" transform="translate(-1833.426 -1080.306)" fill="#52599a"/>
      <path id="Path_5128" data-name="Path 5128" d="M1761.722,1148.616c1.463.256,6.175-1.219,6.248-1.636s-3.859-3.4-5.321-3.66a2.689,2.689,0,0,0-.927,5.3Z" transform="translate(-1754.934 -1121.517)" fill="#52599a"/>
      <path id="Path_5129" data-name="Path 5129" d="M1875.054,1161.962c-1.059,1.476-1.937,7.455-1.515,7.757s5.8-2.445,6.862-3.922a3.29,3.29,0,0,0-5.347-3.835Z" transform="translate(-1858.367 -1137.232)" fill="#52599a"/>
      <path id="Path_5130" data-name="Path 5130" d="M1767.166,1222.634c1.813.127,7.363-2.261,7.4-2.778s-5.125-3.658-6.938-3.786a3.29,3.29,0,0,0-.461,6.564Z" transform="translate(-1759.12 -1187.591)" fill="#52599a"/>
      <path id="Path_5131" data-name="Path 5131" d="M1900.925,1239.9c-1.059,1.476-1.937,7.455-1.515,7.757s5.8-2.445,6.862-3.922a3.29,3.29,0,1,0-5.347-3.835Z" transform="translate(-1881.853 -1207.987)" fill="#52599a"/>
      <path id="Path_5132" data-name="Path 5132" d="M1793.048,1300.585c1.813.127,7.363-2.261,7.4-2.778s-5.125-3.658-6.938-3.785a3.29,3.29,0,0,0-.461,6.564Z" transform="translate(-1782.616 -1258.357)" fill="#52599a"/>
      <path id="Path_5133" data-name="Path 5133" d="M1930.615,1346.474c-1.542.962-4.63,6.155-4.355,6.595s6.3-.05,7.838-1.012a3.29,3.29,0,1,0-3.483-5.583Z" transform="translate(-1906.31 -1305.53)" fill="#52599a"/>
      <path id="Path_5134" data-name="Path 5134" d="M1819.946,1378.206c1.782.353,7.588-1.323,7.688-1.832s-4.628-4.27-6.41-4.623a3.29,3.29,0,0,0-1.278,6.455Z" transform="translate(-1807.405 -1328.873)" fill="#52599a"/>
      <path id="Path_5135" data-name="Path 5135" d="M1791.83,995.168a2.15,2.15,0,1,0,3.117.938,1.627,1.627,0,0,0-3.117-.938Z" transform="translate(-1784.226 -986.007)" fill="#52599a"/>
      <path id="Path_5136" data-name="Path 5136" d="M1744.908,1030.869a8.349,8.349,0,0,0,3.653-1.392,8.346,8.346,0,0,0-3.441-1.855,1.627,1.627,0,0,0-.212,3.248Z" transform="translate(-1740.31 -1016.517)" fill="#52599a"/>
      <path id="Path_5137" data-name="Path 5137" d="M1819.345,1037.952c-.467,1.188-.035,5.412.3,5.545s3.532-2.666,4-3.854a2.312,2.312,0,0,0-4.3-1.691Z" transform="translate(-1809.08 -1024.568)" fill="#52599a"/>
      <path id="Path_5138" data-name="Path 5138" d="M1747.483,1086.958c1.274.083,5.166-1.614,5.19-1.978s-3.614-2.553-4.889-2.636a2.312,2.312,0,0,0-.3,4.614Z" transform="translate(-1742.066 -1066.194)" fill="#52599a"/>
    </g>
    <g id="Group_4296" data-name="Group 4296" transform="translate(1541.88 579.738)">
      <path id="Path_5139" data-name="Path 5139" d="M1580.836,1291.293s2.3-23.423-38.184-20.649C1542.652,1270.644,1560.816,1308.289,1580.836,1291.293Z" transform="translate(-1542.581 -1270.376)" fill="#a4b2db"/>
      <path id="Path_5140" data-name="Path 5140" d="M1541.88,1270.211l38.031,17.73C1578.978,1281.753,1573.381,1268.053,1541.88,1270.211Z" transform="translate(-1541.88 -1269.983)" fill="#cbd5e8"/>
      <path id="Path_5141" data-name="Path 5141" d="M1583.1,1291.552a.1.1,0,0,1-.087,0l-36.425-16.981a.1.1,0,1,1,.085-.182l36.425,16.981a.1.1,0,0,1,.049.134A.1.1,0,0,1,1583.1,1291.552Z" transform="translate(-1546.105 -1273.975)" fill="#2e2e46"/>
      <path id="Path_5142" data-name="Path 5142" d="M1642.153,1367.735l-.016.006-10.67,3.285a.1.1,0,1,1-.059-.192l10.67-3.286a.1.1,0,0,1,.075.186Z" transform="translate(-1623.092 -1358.552)" fill="#2e2e46"/>
      <path id="Path_5143" data-name="Path 5143" d="M1768.049,1320.158a.1.1,0,0,1-.126-.031l-6.481-8.838a.1.1,0,0,1,.162-.119l6.481,8.837a.1.1,0,0,1-.021.141Z" transform="translate(-1741.186 -1307.337)" fill="#2e2e46"/>
    </g>
    <g id="Group_4297" data-name="Group 4297" transform="translate(1552.31 597.256)">
      <path id="Path_5144" data-name="Path 5144" d="M1687.414,1464.825s-10.438-14.657-32.379,7.279C1655.035,1472.1,1684.413,1484.677,1687.414,1464.825Z" transform="translate(-1655.035 -1460.03)" fill="url(#linear-gradient)"/>
      <path id="Path_5145" data-name="Path 5145" d="M1655.03,1519.331l32.38-7.279S1687.46,1531.4,1655.03,1519.331Z" transform="translate(-1655.03 -1507.257)" fill="#f9a51b"/>
      <path id="Path_5146" data-name="Path 5146" d="M1706.566,1510.926l-7.411,1.711-7.569-2.135a.072.072,0,0,0-.039.139l7.316,2.064-20.464,4.724a.072.072,0,0,0,.033.141l14.521-3.352-4.486,6.433a.072.072,0,0,0,.118.083l4.578-6.564,13.436-3.1a.073.073,0,0,0,.049-.04.071.071,0,0,0,0-.047A.072.072,0,0,0,1706.566,1510.926Z" transform="translate(-1676.194 -1505.847)" fill="#2e2e46"/>
    </g>
    <g id="Group_4298" data-name="Group 4298" transform="translate(1675.772 571.593)">
      <path id="Path_5147" data-name="Path 5147" d="M2995.365,1213.9s-8.967-20.7,28.8-30.037C3024.164,1183.863,3018.619,1223.545,2995.365,1213.9Z" transform="translate(-2994.436 -1183.656)" fill="#a4b2db"/>
      <path id="Path_5148" data-name="Path 5148" d="M3024.738,1183.24l-29.514,27.328C2994.262,1204.647,2995.355,1190.5,3024.738,1183.24Z" transform="translate(-2994.958 -1183.09)" fill="#cbd5e8"/>
      <path id="Path_5149" data-name="Path 5149" d="M3009.3,1208.071a.15.15,0,0,0,.172-.022l28.268-26.174a.15.15,0,1,0-.2-.22l-28.268,26.174a.15.15,0,0,0,.031.243Z" transform="translate(-3007.862 -1181.614)" fill="#2e2e46"/>
      <path id="Path_5150" data-name="Path 5150" d="M3155.875,1328.873a.147.147,0,0,0,.072.017l10.7-.128a.15.15,0,0,0,0-.3l-10.7.128a.15.15,0,0,0-.069.283Z" transform="translate(-3140.922 -1314.926)" fill="#2e2e46"/>
      <path id="Path_5151" data-name="Path 5151" d="M3090.186,1292.812l.023.01a.15.15,0,0,0,.19-.1l3.325-9.965a.15.15,0,1,0-.285-.095l-3.325,9.965a.151.151,0,0,0,.072.18Z" transform="translate(-3081.288 -1273.259)" fill="#2e2e46"/>
    </g>
    <g id="Group_4299" data-name="Group 4299" transform="translate(1684.388 594.079)">
      <path id="Path_5152" data-name="Path 5152" d="M3087.91,1437.357s.577-16.236,28.02-10.617C3115.93,1426.74,3100.044,1450.824,3087.91,1437.357Z" transform="translate(-3087.91 -1425.558)" fill="url(#linear-gradient-2)"/>
      <path id="Path_5153" data-name="Path 5153" d="M3115.932,1438.38,3087.912,1449S3097.5,1463.6,3115.932,1438.38Z" transform="translate(-3087.912 -1437.198)" fill="#f9a51b"/>
    </g>
    <g id="Group_4300" data-name="Group 4300" transform="translate(1691.865 576.378)">
      <path id="Path_5154" data-name="Path 5154" d="M3247.121,1296.643l-.025,0a.126.126,0,0,1-.086-.156c5.1-17.445,9.769-29.769,13.144-34.7.075-.11.129-.189.149-.229a.126.126,0,1,1,.224.115,2.911,2.911,0,0,1-.166.255c-3.36,4.912-8.016,17.211-13.11,34.63A.126.126,0,0,1,3247.121,1296.643Z" transform="translate(-3239.818 -1258.906)" fill="#52599a"/>
      <path id="Path_5155" data-name="Path 5155" d="M3389.551,1235.484a1.634,1.634,0,1,1-2.006-1.448,1.237,1.237,0,0,1,2.006,1.448Z" transform="translate(-3366.842 -1233.523)" fill="#52599a"/>
      <path id="Path_5156" data-name="Path 5156" d="M3348.544,1264.5a1.672,1.672,0,1,1-2.418.747,1.266,1.266,0,0,1,2.418-.746Z" transform="translate(-3329.75 -1260.834)" fill="#52599a"/>
      <path id="Path_5157" data-name="Path 5157" d="M3371.519,1291.536a1.672,1.672,0,1,1-.183-2.524,1.265,1.265,0,1,1,.183,2.524Z" transform="translate(-3350.268 -1283.894)" fill="#52599a"/>
      <path id="Path_5158" data-name="Path 5158" d="M3268.906,1386.293c.465,1.077.2,4.969-.112,5.1s-3.323-2.341-3.788-3.418a2.124,2.124,0,0,1,3.9-1.683Z" transform="translate(-3256 -1371.046)" fill="#52599a"/>
      <path id="Path_5159" data-name="Path 5159" d="M3312.587,1424.594c-1.154.21-4.885-.928-4.946-1.258s3.03-2.711,4.184-2.921a2.124,2.124,0,1,1,.762,4.179Z" transform="translate(-3294.864 -1403.156)" fill="#52599a"/>
      <path id="Path_5160" data-name="Path 5160" d="M3230.011,1435.865c.845,1.161,1.571,5.879,1.24,6.12s-4.6-1.9-5.443-3.06a2.6,2.6,0,0,1,4.2-3.06Z" transform="translate(-3220.122 -1416.243)" fill="#52599a"/>
      <path id="Path_5161" data-name="Path 5161" d="M3293.262,1483.143c-1.431.111-5.83-1.745-5.861-2.154s4.029-2.919,5.46-3.029a2.6,2.6,0,1,1,.4,5.183Z" transform="translate(-3276.49 -1455.421)" fill="#52599a"/>
      <path id="Path_5162" data-name="Path 5162" d="M3210,1497.6c.845,1.161,1.572,5.879,1.24,6.12s-4.6-1.9-5.443-3.06a2.6,2.6,0,0,1,4.2-3.06Z" transform="translate(-3201.956 -1472.283)" fill="#52599a"/>
      <path id="Path_5163" data-name="Path 5163" d="M3273.253,1544.873c-1.431.111-5.83-1.745-5.861-2.154s4.029-2.919,5.46-3.029a2.6,2.6,0,0,1,.4,5.183Z" transform="translate(-3258.324 -1511.461)" fill="#52599a"/>
      <path id="Path_5164" data-name="Path 5164" d="M3172.988,1582.051c1.223.751,3.692,4.837,3.478,5.186s-4.975,0-6.2-.756a2.6,2.6,0,0,1,2.721-4.43Z" transform="translate(-3169.028 -1549.576)" fill="#52599a"/>
      <path id="Path_5165" data-name="Path 5165" d="M3253.392,1606.355c-1.406.289-6-1-6.084-1.4s3.633-3.4,5.039-3.688a2.6,2.6,0,0,1,1.045,5.093Z" transform="translate(-3240.091 -1567.317)" fill="#52599a"/>
      <path id="Path_5166" data-name="Path 5166" d="M3328.453,1303.478a1.7,1.7,0,1,1-2.457.758,1.286,1.286,0,1,1,2.457-.758Z" transform="translate(-3311.475 -1296.206)" fill="#52599a"/>
      <path id="Path_5167" data-name="Path 5167" d="M3350.8,1331.427a1.7,1.7,0,1,1-.186-2.565,1.286,1.286,0,0,1,.186,2.565Z" transform="translate(-3331.415 -1320.071)" fill="#52599a"/>
      <path id="Path_5168" data-name="Path 5168" d="M3295.977,1337.473a9.376,9.376,0,0,1-.21,4.383c-.267.107-2.805-2.087-3.181-3.023a1.827,1.827,0,0,1,3.391-1.36Z" transform="translate(-3281.077 -1326.849)" fill="#52599a"/>
      <path id="Path_5169" data-name="Path 5169" d="M3332.178,1375.794c-1.006.073-4.09-1.247-4.111-1.534s2.841-2.037,3.848-2.11a1.827,1.827,0,0,1,.264,3.644Z" transform="translate(-3313.407 -1359.367)" fill="#52599a"/>
    </g>
    <path id="Path_5170" data-name="Path 5170" d="M2066.844,540.124c-.445-.112-.975-.387-.936-.845.035-.409.524-.62.934-.612a4.83,4.83,0,0,0,1.225.048,2.353,2.353,0,0,0,1.187-1.035,4.17,4.17,0,0,1,1.21-1.186,1.706,1.706,0,0,1,1.63-.1c.382.209.646.605,1.05.768a2.877,2.877,0,0,0,1.723-.188c.572-.141,1.339-.045,1.512.518.145.471-.212,1.071.12,1.434,1.7,1.86-1.637,1.22-2.854,1.3a21.6,21.6,0,0,1-6.8-.105Z" transform="translate(-475.724 -24.126)" fill="#cbd5e8"/>
    <path id="Path_5171" data-name="Path 5171" d="M3013.414,513.176a6.134,6.134,0,0,0,2.014.562l1.548.249a8.388,8.388,0,0,0,3.507.061c.813-.224,1.5-.693,2.335-.865a16.242,16.242,0,0,1,2.565-.065,2.354,2.354,0,0,0,.716-.12.97.97,0,0,0,.685-1.039,1.163,1.163,0,0,0-1.062-.808c-.688-.06-1.52.322-2-.079a2.149,2.149,0,0,1-.344-.508,2.1,2.1,0,0,0-1.136-.688,9.2,9.2,0,0,0-4.042.033,15.289,15.289,0,0,1-2.814-.132c-1.222-.081-2.469.062-2.9,1.127A1.873,1.873,0,0,0,3013.414,513.176Z" transform="translate(-1334.945 0)" fill="#cbd5e8"/>
    <path id="Path_5172" data-name="Path 5172" d="M2514.567,645.762a2.114,2.114,0,0,1-.794,2.749,3.1,3.1,0,0,1-3.031-.039,5.953,5.953,0,0,0-1.5-.756c-1.349-.284-3.005,1.359-4.263.406-1.091-.826-.574-1.577.259-2.217C2507.727,644,2511.816,646.564,2514.567,645.762Z" transform="translate(-873.764 -123.037)" fill="#cbd5e8"/>
    <g id="Group_4303" data-name="Group 4303" transform="translate(1577.477 536.868)">
      <g id="Group_4301" data-name="Group 4301" transform="translate(0 0)">
        <path id="Path_5173" data-name="Path 5173" d="M1928.99,805.249l-.93-.351v75.571l56.311-.07V812.911l-50.117-7.662Z" transform="translate(-1928.06 -804.898)" fill="#2e2e46"/>
        <path id="Path_5174" data-name="Path 5174" d="M2045.367,816.366,1995.25,808.7V883.1h50.117Z" transform="translate(-1989.057 -808.353)" fill="#e3e7f1"/>
        <rect id="Rectangle_3424" data-name="Rectangle 3424" width="5.263" height="74.395" transform="translate(0.93 0.351)" fill="#a4b2db"/>
      </g>
      <g id="Group_4302" data-name="Group 4302" transform="translate(56.311 0)">
        <path id="Path_5175" data-name="Path 5175" d="M2594.342,805.249l.93-.351v75.571l-56.312-.07V812.911l50.118-7.662Z" transform="translate(-2538.96 -804.898)" fill="#2e2e46"/>
        <path id="Path_5176" data-name="Path 5176" d="M2538.96,816.366l50.118-7.662V883.1H2538.96Z" transform="translate(-2538.96 -808.353)" fill="#e3e7f1"/>
        <rect id="Rectangle_3425" data-name="Rectangle 3425" width="5.263" height="74.395" transform="translate(50.118 0.351)" fill="#a4b2db"/>
      </g>
    </g>
    <path id="Path_5177" data-name="Path 5177" d="M2596.61,850.2s-1.156-2.32-2.9-2.1l-5.059.637s3.595-.071,4.115,2.052Z" transform="translate(-950.285 -307.231)" fill="#f9a51b"/>
    <path id="Path_5178" data-name="Path 5178" d="M2622.062,877.406v63.678H2581.03V882.96Z" transform="translate(-943.364 -333.854)" fill="#2e2e46"/>
    <path id="Path_5179" data-name="Path 5179" d="M2563.564,848.875a7.058,7.058,0,0,0-1.274,4.316c.142,2.476-1.273,7.429-1.273,7.429l2.547-1.132,1.344,2.264s2.123-4.811,1.981-8a8.972,8.972,0,0,1,1.734-5.519Z" transform="translate(-925.196 -307.375)" fill="url(#linear-gradient-3)"/>
    <g id="Group_4305" data-name="Group 4305" transform="translate(1637.666 565.576)">
      <path id="Path_5180" data-name="Path 5180" d="M2622.063,1125.807v32.145c-.011.013-.021.028-.033.041H2582.4l-.152-.189c-.1-.131-.209-.265-.312-.4q-.093-.122-.185-.245c-.062-.082-.122-.164-.182-.246s-.12-.166-.18-.25-.118-.167-.176-.251-.118-.171-.177-.258V1127.6l.028-.042a25.544,25.544,0,0,1,27.841-10.338,25.186,25.186,0,0,1,13.162,8.583Z" transform="translate(-2581.032 -1116.34)" fill="#a4b2db"/>
      <g id="Group_4304" data-name="Group 4304" transform="translate(0 2.717)">
        <path id="Path_5181" data-name="Path 5181" d="M3001.111,1475.593v.2c-.133.26-.771.414-.971.73-.14.221-.027.508-.043.769a.767.767,0,1,1-1.516-.209,1.554,1.554,0,0,1,.275-.53l.5-.717c.325-.482.962-.934,1.532-.489a.751.751,0,0,1,.224.246Z" transform="translate(-2960.079 -1444.806)" fill="#52599a"/>
        <path id="Path_5182" data-name="Path 5182" d="M2730.459,1149.567a12.567,12.567,0,0,1,.449,1.247,1.379,1.379,0,0,0,.9.9,1.157,1.157,0,0,0,.957-.292,2.99,2.99,0,0,0,.62-.822,15.551,15.551,0,0,0,.89-1.826,1.939,1.939,0,0,0,.2-1.089,1.914,1.914,0,0,0-.5-.848,3.13,3.13,0,0,0-1.064-.867,2.964,2.964,0,0,0-1.946.021c-.525.147-3.344,1.116-3.134,1.829.082.279,1.216.525,1.477.667A2.737,2.737,0,0,1,2730.459,1149.567Z" transform="translate(-2714.283 -1145.815)" fill="#52599a"/>
        <path id="Path_5183" data-name="Path 5183" d="M2820.134,1158.91c-1.306.384-1.746,2.35-2.847,2.99-1.73,1.005-3.966-.755-5.875-.155-.365.116-.7.314-1.075.4a13.853,13.853,0,0,1-1.892.025c-.63.057-1.331.522-1.246,1.148.075.543.688.837,1.233.892a5.189,5.189,0,0,1,1.62.2,1.72,1.72,0,0,1,.938,1.63,2.563,2.563,0,0,1-.874,1.737c-.536.5-1.313,1.012-1.154,1.725.152.683,1.087.859,1.745.618a16.353,16.353,0,0,1,1.895-.886,2.866,2.866,0,0,1,2.42.781,14.468,14.468,0,0,1,1.695,2.016,1.4,1.4,0,0,0,.692.552c.292.074.665-.114.663-.415,0-.2-.158-.364-.269-.535a1.664,1.664,0,0,1,.771-2.213,3.7,3.7,0,0,1,2.572-.136c-.381,1.009.955,2.14.458,3.1-.312.6-1.119.672-1.789.754a28.2,28.2,0,0,1-3.557.57c-2.293-.01-4.61-1.574-6.739-.722a4.81,4.81,0,0,0-1.956,1.634,6.406,6.406,0,0,0-1.262,5.773,13.182,13.182,0,0,0,3.078,4.585c1.786.441,2.922.316,3.442.711,1.959,1.485-.253,4.869-.4,6.621a20.235,20.235,0,0,0,.076,4.33h7.413a8.122,8.122,0,0,0,1.408-2.869c.467-1.8.335-3.738.968-5.488a32.748,32.748,0,0,1,2.427-4.234,11.219,11.219,0,0,0,.8-8.7,6.986,6.986,0,0,1-.48-1.872,1.687,1.687,0,0,1,.838-1.624,1.229,1.229,0,0,1,.471-.109v-7.286a27.979,27.979,0,0,0-6.2-5.544Z" transform="translate(-2785.302 -1157.703)" fill="#52599a"/>
        <path id="Path_5184" data-name="Path 5184" d="M2591.519,1189.624c.407-.391.9-.687,1.3-1.078a3.355,3.355,0,0,0,1.051-2.366,2.714,2.714,0,0,0-1.186-2.259,3.723,3.723,0,0,1-.849-.574c-.734-.839.189-2.124.059-3.231-.125-1.069-1.218-1.753-2.257-2.033a11.672,11.672,0,0,1-3.09-.888c-.923-.554-1.5-1.905-.794-2.716.928-1.063,3.11-.271,3.8-1.5.229-.406.212-.941.533-1.278.258-.271.669-.339.956-.581.334-.283.45-.762.783-1.046.562-.479,1.6-.293,1.946-.943.389-.719-.5-1.418-.92-2.119a2.055,2.055,0,0,1,.858-2.8c.728-.339,1.84-.444,1.886-1.245.036-.643-.721-.995-1.341-1.168l-3.353-.935a2.614,2.614,0,0,1-2.087-1.871,3.276,3.276,0,0,0-.179-.328,25.681,25.681,0,0,0-7.581,7.322l-.028.042v4.094a2.732,2.732,0,0,1,.194.641c.085.516-.009,1.049.068,1.566.242,1.615,2.074,2.73,2.071,4.363,0,1.481-1.48,2.467-2.241,3.738-.032.054-.063.109-.093.165v3.94c.3.56.707,1.061,1,1.627,1.52,2.953-.418,6.9,1.324,9.731a4.837,4.837,0,0,0,.375.525h5.6c.1-.887.263-1.771.434-2.645a7.545,7.545,0,0,1,1.758-4.149Z" transform="translate(-2581.031 -1157.48)" fill="#52599a"/>
      </g>
    </g>
    <path id="Path_5185" data-name="Path 5185" d="M2648.632,1003.933h0a.276.276,0,0,0,.153.507.624.624,0,0,0,.3-.093,30.5,30.5,0,0,1,15.906-4.374v-.007a35.336,35.336,0,0,0-16.359,3.967Z" transform="translate(-1004.622 -445.117)" fill="#e3e7f1"/>
    <path id="Path_5186" data-name="Path 5186" d="M2885.62,921.761a.219.219,0,1,1,.219.219A.219.219,0,0,1,2885.62,921.761Z" transform="translate(-1219.878 -373.922)" fill="#e3e7f1"/>
    <path id="Path_5187" data-name="Path 5187" d="M2966.558,1037.4a.457.457,0,1,1-.457-.456A.456.456,0,0,1,2966.558,1037.4Z" transform="translate(-1292.527 -478.69)" fill="#e3e7f1"/>
    <path id="Path_5188" data-name="Path 5188" d="M2724.4,1065.492a.228.228,0,1,1-.228-.228A.228.228,0,0,1,2724.4,1065.492Z" transform="translate(-1073.108 -504.396)" fill="#e3e7f1"/>
    <path id="Path_5189" data-name="Path 5189" d="M2804.053,969.089a.228.228,0,1,1-.228-.228A.228.228,0,0,1,2804.053,969.089Z" transform="translate(-1145.416 -416.879)" fill="#e3e7f1"/>
    <path id="Path_5190" data-name="Path 5190" d="M2692.233,969.089a.228.228,0,1,1-.228-.228A.228.228,0,0,1,2692.233,969.089Z" transform="translate(-1043.903 -416.879)" fill="#e3e7f1"/>
    <g id="Group_4307" data-name="Group 4307" transform="translate(1589.115 543.641)">
      <path id="Path_5191" data-name="Path 5191" d="M2072.2,891.98l-17.88-1.6V878.37l17.88,2.4Z" transform="translate(-2054.32 -878.37)" fill="#a4b2db"/>
      <path id="Path_5192" data-name="Path 5192" d="M2072.2,1056.2l-17.88-.8v-12.01l17.88,1.6Z" transform="translate(-2054.32 -1028.179)" fill="#a4b2db"/>
      <g id="Group_4306" data-name="Group 4306" transform="translate(0 31.223)">
        <path id="Path_5193" data-name="Path 5193" d="M2095.151,1219.5l-40.831-1.6v-.8l40.831,1.6Z" transform="translate(-2054.32 -1217.1)" fill="#a4b2db"/>
        <path id="Path_5194" data-name="Path 5194" d="M2095.151,1240.352l-40.831-1.6v-.8l40.831,1.6Z" transform="translate(-2054.32 -1236.028)" fill="#a4b2db"/>
        <path id="Path_5195" data-name="Path 5195" d="M2095.151,1261.192l-40.831-1.6v-.8l40.831,1.6Z" transform="translate(-2054.32 -1254.947)" fill="#a4b2db"/>
        <path id="Path_5196" data-name="Path 5196" d="M2095.151,1282.041l-40.831-1.6v-.8l40.831,1.6Z" transform="translate(-2054.32 -1273.875)" fill="#a4b2db"/>
        <path id="Path_5197" data-name="Path 5197" d="M2095.151,1302.882l-40.831-1.6v-.8l40.831,1.6Z" transform="translate(-2054.32 -1292.794)" fill="#a4b2db"/>
        <path id="Path_5198" data-name="Path 5198" d="M2095.151,1323.732l-40.831-1.6v-.8l40.831,1.6Z" transform="translate(-2054.32 -1311.722)" fill="#a4b2db"/>
      </g>
    </g>
    <g id="Group_4309" data-name="Group 4309" transform="translate(1614.158 545.224)">
      <path id="Path_5199" data-name="Path 5199" d="M2443.6,1027.65s1.107,7.256,2.859,9.856l-.632.378a15.459,15.459,0,0,1-3.633-8.231l1.406-2Z" transform="translate(-2431.481 -1015.473)" fill="#f2b6ba"/>
      <path id="Path_5200" data-name="Path 5200" d="M2335.945,1034.12s-3.205,6.546-3.059,9.677l-.736-.005a15.459,15.459,0,0,1,1.171-8.921Z" transform="translate(-2331.394 -1021.346)" fill="#f2b6ba"/>
      <path id="Path_5201" data-name="Path 5201" d="M2424.721,1375.33s-.285,2.813.289,3.132c1.04.578,2.958,1.129,2.8,1.625s-4.758.515-4.885.063a17.444,17.444,0,0,0-.158-4.532l1.958-.288h0Z" transform="translate(-2413.845 -1331.105)" fill="#f2b6ba"/>
      <path id="Path_5202" data-name="Path 5202" d="M2424.346,1414.212a4.06,4.06,0,0,0-.046,1.01c.128.452,4.725.433,4.886-.063.119-.368-.9-.783-1.86-1.2-.228.383-.713.979-2.98.249Z" transform="translate(-2415.222 -1366.178)" fill="#2e2e46"/>
      <g id="Group_4308" data-name="Group 4308" transform="translate(0.179 44.185)">
        <path id="Path_5203" data-name="Path 5203" d="M2330.148,1374.9s-.518,2.779.028,3.145c.988.662,2.854,1.371,2.652,1.852s-4.784.118-4.874-.344a17.461,17.461,0,0,0,.219-4.53l1.975-.124Z" transform="translate(-2327.946 -1374.9)" fill="#f2b6ba"/>
        <path id="Path_5204" data-name="Path 5204" d="M2328.1,1414.5a4.042,4.042,0,0,0-.13,1c.09.461,4.672.824,4.874.344.149-.357-.828-.855-1.754-1.346-.258.363-.792.916-2.99,0Z" transform="translate(-2327.958 -1410.849)" fill="#2e2e46"/>
      </g>
      <path id="Path_5205" data-name="Path 5205" d="M2336.345,1107.06a20.292,20.292,0,0,1,1.244,6.869c0,1.858-.363,19.161-.363,19.161h-2.495s-1.636-18.941-1.636-19.107c0-.652-4.6,19.107-4.6,19.107H2326s.665-22.528,4.477-26.03l2.927.181,2.938-.181Z" transform="translate(-2326.004 -1087.563)" fill="#2e2e46"/>
      <path id="Path_5206" data-name="Path 5206" d="M2380.331,1096.172v.785s-1.489,1.448-5.864,0l-.01-.785,3.843-.241,2.032.241h0Z" transform="translate(-2369.99 -1077.46)" fill="#2e2e46"/>
      <path id="Path_5207" data-name="Path 5207" d="M2346.532,990.816a4.8,4.8,0,0,1,2.338.486c.563.389,1.806,4.311,1.806,4.311a12.778,12.778,0,0,1-2.081,1.265l-.575,3.4a6.853,6.853,0,0,1-5.875,0s-.412-4.147-.469-3.927a1.867,1.867,0,0,1-.349.6l-2.463-1.078s1.271-4.771,2.084-5.157a3.931,3.931,0,0,1,3.449-.034l2.135.137h0Z" transform="translate(-2337.679 -981.567)" fill="#52599a"/>
      <path id="Path_5208" data-name="Path 5208" d="M2375.754,904.492a2.554,2.554,0,0,0-1.74,3.81,11.03,11.03,0,0,0,1.24,2,2.542,2.542,0,0,1,.646,1.745l-.019.65c1.561.569,2.17.178,2.17.178l-.217-1.9h0c1.575-.373,1.025-3.295.926-4.166h0c0-.033,0-.065-.009-.1a2.554,2.554,0,0,0-3-2.222h0Z" transform="translate(-2369.267 -903.629)" fill="#f2b6ba"/>
      <path id="Path_5209" data-name="Path 5209" d="M2345.533,895.695a5.135,5.135,0,0,0-3.588.427c-1.557.966-1.283,4.247-1.776,5.4s-1.7,1.413-1.505,2.76,2.6,5.772,6.869,4.079,2.821-3.936,2.286-4.976-2.3-2.511-1.739-4.186S2347.008,895.842,2345.533,895.695Z" transform="translate(-2337.478 -895.545)" fill="#2e2e46"/>
      <path id="Path_5210" data-name="Path 5210" d="M2418.563,901.257a3.226,3.226,0,0,1,.824,1.591c.083.821-.738.879-1.066,1.534s.242-3.125.242-3.125Z" transform="translate(-2409.718 -900.73)" fill="#2e2e46"/>
      <path id="Path_5211" data-name="Path 5211" d="M2480.77,1132.459a7.555,7.555,0,0,0,.139,1c.081.262-.036.576.123.583s.217-.517.217-.517.388.4.49.542.345.348.454.282-.422-.711-.422-.711.5.5.614.46-.43-.768-.43-.768a4.638,4.638,0,0,0,.586.567c.078.009.093-.09-.039-.332a2.619,2.619,0,0,0-.329-.454,5.891,5.891,0,0,0,.448.393c.062.028.167.021-.066-.316a4.232,4.232,0,0,0-1.3-1.179Z" transform="translate(-2466.504 -1110.215)" fill="#f2b6ba"/>
      <path id="Path_5212" data-name="Path 5212" d="M2332.825,1137.651a7.513,7.513,0,0,1,.539.856c.108.252.4.417.282.525s-.5-.257-.5-.257-.039.557-.025.73-.04.488-.166.509-.135-.815-.135-.815-.062.7-.174.748-.165-.864-.165-.864a4.654,4.654,0,0,1-.083.812c-.054.057-.129-.01-.184-.279a2.625,2.625,0,0,1-.041-.559,5.882,5.882,0,0,1-.09.59c-.029.061-.114.123-.153-.284a4.235,4.235,0,0,1,.233-1.738l.659.029Z" transform="translate(-2331.376 -1115.308)" fill="#f2b6ba"/>
    </g>
    <g id="Group_4311" data-name="Group 4311" transform="translate(1588.557 594.223)">
      <g id="Group_4310" data-name="Group 4310" transform="translate(0 0)">
        <path id="Path_5213" data-name="Path 5213" d="M2093.568,1427.118h-45.3v1.3h23.239a4.24,4.24,0,0,1,4.24,4.24h0a4.24,4.24,0,0,1-4.24,4.24h-23.239v1.223h45.3a5.5,5.5,0,0,0,5.5-5.5h0a5.5,5.5,0,0,0-5.5-5.5h0Z" transform="translate(-2048.271 -1427.118)" fill="url(#linear-gradient-4)"/>
        <path id="Path_5214" data-name="Path 5214" d="M2077.813,1432.621h0a5.5,5.5,0,0,0-5.5-5.5h-24.042v1.3h23.239a4.24,4.24,0,0,1,4.24,4.24h0a4.24,4.24,0,0,1-4.24,4.24h-23.239v1.223h24.042a5.5,5.5,0,0,0,5.5-5.5h0Z" transform="translate(-2048.267 -1427.117)" fill="#f9a51b"/>
        <path id="Path_5215" data-name="Path 5215" d="M2071.512,1441.33h-23.239v.029a4.24,4.24,0,0,1,3.751,4.211h0a4.24,4.24,0,0,1-3.751,4.211v.029h23.239a4.24,4.24,0,0,0,4.24-4.24h0a4.24,4.24,0,0,0-4.24-4.24h0Z" transform="translate(-2048.272 -1440.02)" fill="#ebedf4"/>
        <path id="Path_5216" data-name="Path 5216" d="M2075.752,1445.068a4.241,4.241,0,0,0-4.24-4.24h-23.239v.029a4.235,4.235,0,0,1,2.734,1.459c4.648-.368,18.511-.8,19.972,6.993h.533a4.24,4.24,0,0,0,4.24-4.24h0Z" transform="translate(-2048.271 -1439.564)" fill="#a4b2db"/>
      </g>
      <path id="Path_5217" data-name="Path 5217" d="M2097.1,1546.55h56.063v1.5H2124.4a5.068,5.068,0,0,0-5.248,4.867h0a5.068,5.068,0,0,0,5.248,4.867h28.763v1.4H2097.1a6.58,6.58,0,0,1-6.812-6.318h0a6.579,6.579,0,0,1,6.813-6.318Z" transform="translate(-2086.412 -1535.541)" fill="#52599a"/>
      <path id="Path_5218" data-name="Path 5218" d="M2375.69,1552.862h0a6.579,6.579,0,0,1,6.813-6.318h29.755v1.5h-28.763a5.068,5.068,0,0,0-5.248,4.867h0a5.068,5.068,0,0,0,5.248,4.867h28.763v1.4H2382.5a6.579,6.579,0,0,1-6.812-6.318Z" transform="translate(-2345.509 -1535.536)" fill="#2e2e46"/>
      <path id="Path_5219" data-name="Path 5219" d="M2408.672,1562.85h28.763v.033a5.015,5.015,0,0,0-4.642,4.834h0a5.015,5.015,0,0,0,4.642,4.834v.033h-28.763a5.068,5.068,0,0,1-5.248-4.868h0a5.068,5.068,0,0,1,5.248-4.867Z" transform="translate(-2370.687 -1550.338)" fill="#ebedf4"/>
      <path id="Path_5220" data-name="Path 5220" d="M2403.42,1567.155a5.068,5.068,0,0,1,5.248-4.867h28.762v.033a5.371,5.371,0,0,0-3.384,1.675c-5.753-.423-22.911-.915-24.719,8.027h-.66a5.068,5.068,0,0,1-5.248-4.867Z" transform="translate(-2370.683 -1549.828)" fill="#a4b2db"/>
    </g>
  </g>
</svg>
