<svg xmlns="http://www.w3.org/2000/svg" width="26.667" height="33.54" viewBox="0 0 26.667 33.54">
  <g id="Group_4650" data-name="Group 4650" transform="translate(-48.096 -672.109)">
    <rect id="Rectangle_3273" data-name="Rectangle 3273" width="17.814" height="23.012" transform="translate(55.072 673.977)" fill="#1d262d"/>
    <path id="Path_4725" data-name="Path 4725" d="M143.719,43.636v1.613h3.342a.933.933,0,0,1,0,1.867h-3.342v1.862h1.663a.933.933,0,0,1,0,1.867h-1.663v12.08H157.8V43.647H143.719Z" transform="translate(-86.78 632.202)" fill="#616161"/>
    <g id="Group_4059" data-name="Group 4059" transform="translate(48.096 672.109)">
      <path id="Path_4726" data-name="Path 4726" d="M179.3,113.81h2.21v2.21a.933.933,0,1,0,1.867,0v-2.21h2.21a.933.933,0,1,0,0-1.867h-2.21v-2.21a.933.933,0,0,0-1.867,0v2.21H179.3a.933.933,0,1,0,0,1.867Z" transform="translate(-166.566 -99.504)" fill="#939598"/>
      <path id="Path_4727" data-name="Path 4727" d="M66.59,31.944a3.765,3.765,0,0,1,0-5.457.893.893,0,0,0,.282-.674h.006V.933A.932.932,0,0,0,65.944,0H43.794A3.58,3.58,0,0,0,40.22,3.574V29.209a4.331,4.331,0,0,0,4.331,4.331H65.939A.918.918,0,0,0,66.59,31.944ZM42.087,3.579A1.714,1.714,0,0,1,43.8,1.867H45.34V24.879h-.779a4.327,4.327,0,0,0-2.469.779C42.087,25.658,42.087,3.579,42.087,3.579Zm22.034,28.1H44.556a2.469,2.469,0,1,1,0-4.938H64.121a5.642,5.642,0,0,0,0,4.938Zm.889-6.805H47.2V1.867H65.011Z" transform="translate(-40.22 0)" fill="#939598"/>
    </g>
    <path id="Path_4728" data-name="Path 4728" d="M64.54,313.018a2.469,2.469,0,0,0,0,4.938H84.105a5.642,5.642,0,0,1,0-4.938Z" transform="translate(-12.108 385.837)" fill="#1d262d"/>
    <path id="Path_4729" data-name="Path 4729" d="M65.26,44.863V21.851H63.719a1.714,1.714,0,0,0-1.712,1.712V45.642a4.327,4.327,0,0,1,2.469-.779Z" transform="translate(-12.05 652.126)" fill="#1d262d"/>
  </g>
</svg>
