<svg xmlns="http://www.w3.org/2000/svg" width="27.334" height="27.333" viewBox="0 0 27.334 27.333">
  <g id="logout" transform="translate(0 -0.008)">
    <path id="Path_4415" data-name="Path 4415" d="M289.006,209.716H278.186a.854.854,0,1,1,0-1.708h10.819a.854.854,0,0,1,0,1.708Zm0,0" transform="translate(-262.527 -196.896)" fill="#fafafa"/>
    <path id="Path_4416" data-name="Path 4416" d="M400.858,138.222a.855.855,0,0,1-.6-1.459l3.667-3.667-3.667-3.667a.854.854,0,0,1,1.208-1.208l4.271,4.271a.854.854,0,0,1,0,1.208l-4.271,4.271A.849.849,0,0,1,400.858,138.222Zm0,0" transform="translate(-378.65 -121.131)" fill="#fafafa"/>
    <path id="Path_4417" data-name="Path 4417" d="M9.111,27.341a2.347,2.347,0,0,1-.706-.106L1.551,24.952A2.3,2.3,0,0,1,0,22.786V2.286A2.28,2.28,0,0,1,2.278.008a2.349,2.349,0,0,1,.706.106L9.837,2.4a2.3,2.3,0,0,1,1.551,2.166v20.5a2.28,2.28,0,0,1-2.278,2.278ZM2.278,1.716a.571.571,0,0,0-.57.57v20.5a.592.592,0,0,0,.4.549l6.822,2.273a.619.619,0,0,0,.186.025.571.571,0,0,0,.569-.57V4.563a.592.592,0,0,0-.4-.549L2.463,1.741a.618.618,0,0,0-.186-.025Zm0,0" transform="translate(0 0)" fill="#fafafa"/>
    <path id="Path_4418" data-name="Path 4418" d="M42.612,9.119a.854.854,0,0,1-.854-.854V3.14a1.425,1.425,0,0,0-1.423-1.424H27.522a.854.854,0,1,1,0-1.708H40.334A3.134,3.134,0,0,1,43.466,3.14V8.265A.854.854,0,0,1,42.612,9.119Zm0,0" transform="translate(-25.245)" fill="#fafafa"/>
    <path id="Path_4419" data-name="Path 4419" d="M186.742,286.451h-4.556a.854.854,0,1,1,0-1.708h4.556a1.425,1.425,0,0,0,1.423-1.424v-5.125a.854.854,0,0,1,1.708,0v5.125A3.134,3.134,0,0,1,186.742,286.451Zm0,0" transform="translate(-171.652 -262.527)" fill="#fafafa"/>
  </g>
</svg>
