<svg xmlns="http://www.w3.org/2000/svg" width="32.026" height="25" viewBox="0 0 32.026 25">
  <g id="my_books" data-name="my books" transform="translate(0 -36.758)">
    <g id="Group_4058" data-name="Group 4058" transform="translate(-0.001 36.758)">
      <path id="Path_4724" data-name="Path 4724" d="M29.741,44.31c-.13-.974-.148-2.65.757-3.213a.34.34,0,0,0,.042-.038c.739-.236,1.251-.568.849-1.015L20.484,36.758,2.825,39.213S.8,39.5.983,42.644a4.059,4.059,0,0,0,1.1,2.963l-1.449.437c-.4.447.109.778.849,1.015a.292.292,0,0,0,.042.038c.9.564.886,2.24.756,3.214C-.962,51.232.2,51.533.2,51.533l.712.172a3.455,3.455,0,0,0-.905,2.939C.191,57.785,1.852,58,1.852,58l11.556,3.756,17.442-4.225s1.166-.3-2.082-1.223c-.131-.972-.149-2.649.757-3.214a.268.268,0,0,0,.042-.038c.739-.236,1.251-.568.849-1.015l-.758-.229c.506-.3,1.265-1.1,1.384-3.172a3.674,3.674,0,0,0-.719-2.748l1.5-.363S32.988,45.232,29.741,44.31Zm-14.589-.04,2.933-.6L28,41.63l1.477-.3a5.113,5.113,0,0,0-.374,2.805c.017.172.037.329.056.448l-1.616.4L15.029,48.094Zm-12.6,3.057,1.477.3,9.519,1.957.832.17h0l2.494.513L17,54.095,4.138,50.9l-1.268-.315c.019-.119.038-.276.056-.449A5.114,5.114,0,0,0,2.552,47.327Zm-.574-4.834a2.48,2.48,0,0,1,.432-1.747.784.784,0,0,1,.573-.237.971.971,0,0,1,.145.011L10.737,43l3.8,1.238-.125,3.851L3.759,45.1,3.2,44.946a.34.34,0,0,0-.07-.011C3.083,44.932,2.03,44.835,1.979,42.493Zm11.457,17.6L2.225,56.946a.335.335,0,0,0-.07-.011c-.045,0-1.1-.1-1.149-2.441a2.482,2.482,0,0,1,.432-1.748.786.786,0,0,1,.573-.237,1.013,1.013,0,0,1,.145.011h0l11.4,3.719Zm14.691-3.958c.018.172.037.329.056.449L14.056,60.1l.123-3.824,3.02-.621.446.108,1.672-.543,7.707-1.584,1.477-.3A5.108,5.108,0,0,0,28.127,56.132Zm.778-5.2a.271.271,0,0,0-.076.012l-1.066.3L17.618,54.09l-.124-3.851,3.329-1.086,8.06-2.629a.84.84,0,0,1,.734.221,2.484,2.484,0,0,1,.432,1.747C30,50.835,28.943,50.932,28.905,50.935Z" transform="translate(0.001 -36.758)" fill="#939598"/>
    </g>
  </g>
</svg>
