<svg xmlns="http://www.w3.org/2000/svg" width="17.721" height="26.13" viewBox="0 0 17.721 26.13">
  <path id="Path_4789" data-name="Path 4789" d="M560.543,72.294a7.416,7.416,0,1,0-4.91,10.154c.305.72.634,1.492.974,2.287l-1.462.644,3.794,8.615,1.444-.635.011.021,1.061-.493,2.6-1.146-3.794-8.617-1.515.667c-.339-.795-.667-1.567-.972-2.287A7.412,7.412,0,0,0,560.543,72.294Zm-4.55,8.071a5.5,5.5,0,1,1,2.816-7.245A5.5,5.5,0,0,1,555.993,80.364Z" transform="translate(-546.338 -67.864)" fill="#f7f9fa"/>
</svg>
