<svg xmlns="http://www.w3.org/2000/svg" width="25.26" height="30.387" viewBox="0 0 25.26 30.387">
  <path id="Path_4790" data-name="Path 4790" d="M602,90.448c-5.979-2.153-6.833-14.157-6.833-14.157a6.861,6.861,0,0,0-4.2-6.654,2.2,2.2,0,0,0,.052-.3,1.677,1.677,0,1,0-3.3,0,2.163,2.163,0,0,0,.05.3,6.864,6.864,0,0,0-4.2,6.654s-.854,12-6.833,14.157a24.011,24.011,0,0,0,9.694,4.035,2.782,2.782,0,0,0-.03.292,2.966,2.966,0,1,0,5.931,0c0-.058-.014-.113-.016-.169A19.951,19.951,0,0,0,602,90.448Z" transform="translate(-576.744 -67.355)" fill="#f7f9fa"/>
</svg>
